<?xml version="1.0" standalone="no"?>
<!DOCTYPE svg PUBLIC "-//W3C//DTD SVG 1.1//EN" "http://www.w3.org/Graphics/SVG/1.1/DTD/svg11.dtd" >
<svg xmlns="http://www.w3.org/2000/svg">
<metadata></metadata>
<defs>
<font id="epsiloncregular" horiz-adv-x="1427" >
<font-face units-per-em="2048" ascent="1147" descent="-901" />
<missing-glyph horiz-adv-x="948" />
<glyph horiz-adv-x="0" />
<glyph horiz-adv-x="682" />
<glyph unicode=" "  horiz-adv-x="948" />
<glyph unicode="&#x09;" horiz-adv-x="948" />
<glyph unicode="&#xa0;" horiz-adv-x="948" />
<glyph unicode="!" horiz-adv-x="665" d="M197 57q3 28 79 88t117 60q34 0 54 -19t20 -47q0 -44 -60.5 -94t-127.5 -49q-49 1 -67 15.5t-15 45.5zM225 485q14 92 23.5 185t19 207t17.5 192q3 28 7 76.5t7 79.5t8 72t10.5 66.5t13.5 50.5t19 36.5t25 11.5q59 0 51 -82q-3 -50 2.5 -167.5t-2.5 -237.5 q-2 -35 -6.5 -139.5t-11 -181t-21.5 -179.5q-5 -41 -32.5 -67t-69.5 -23q-43 3 -54 28.5t-6 71.5z" />
<glyph unicode="&#x22;" horiz-adv-x="790" d="M215 1534q0 13 24 38t58 25q32 0 52 -25t18 -52q-6 -59 -9 -168q-1 -25 -1.5 -67.5t-1 -77t-2 -76t-6 -73t-12 -58.5t-21 -41t-31.5 -13q-19 1 -31.5 11t-17.5 29t-7 36.5t-2 42.5q-10 272 -10 469zM436 1493q5 119 84 119q25 0 51.5 -28t26.5 -54q0 -42 -3.5 -139 t-2.5 -146q2 -64 0.5 -119.5t-6 -96.5t-19.5 -65t-41 -24q-29 0 -54.5 48t-25.5 87q0 5 -3 103.5t-5.5 198.5t-1.5 116z" />
<glyph unicode="#" horiz-adv-x="1591" d="M147 539q0 14 3 25t6 18.5t11 13t13 8t16.5 5t16.5 3t19 1.5t18 1q47 4 103.5 3.5t154.5 0.5l37 265q-190 -15 -226 -15q-32 0 -59 7t-48 25.5t-22 47.5q-2 24 24.5 41t75.5 27t94 15.5t104.5 11t82.5 8.5q9 59 18.5 129.5t15 115t13 93t14.5 77t17 53.5t23 35.5t30 10.5 q42 0 57 -25t15 -76q0 -32 -11.5 -200.5t-12.5 -186.5q57 -4 221 -4q8 30 17 83t16.5 93t20 80.5t33 62t48.5 19.5q57 -3 57 -92q0 -37 -14 -124t-14 -114q53 -2 75.5 -0.5t62.5 7t62 6.5q31 1 54.5 -36.5t15.5 -74.5q-13 -62 -111 -70q-34 -3 -91.5 3.5t-80.5 5.5 q-9 -39 -15 -114t-7 -130l-2 -55q68 -2 168 0.5t127 -0.5q45 -2 69.5 -15t24.5 -47q0 -2 -2.5 -8t-10 -15t-18.5 -17.5t-30 -15.5t-42 -9q-188 -10 -282 -9q-2 -22 -2 -78t1 -131.5t1 -101.5q0 -53 -24.5 -82.5t-53.5 -27.5q-45 3 -64 45t-22 135q-1 29 0 85.5t2.5 103.5 t1.5 48q-181 5 -303 0q-8 -42 -15 -92.5t-11.5 -85.5t-10 -72.5t-12.5 -62t-16.5 -45.5t-24 -31.5t-33.5 -11.5q-24 -1 -41 25t-23.5 58t-5.5 60q5 114 29 250h-252q-35 0 -55.5 18t-20.5 46zM676 618q76 0 272 9q0 61 7.5 152t9.5 141q-22 -2 -108 -5t-142 -10z" />
<glyph unicode="$" horiz-adv-x="1040" d="M141 287q0 14 1.5 22.5t10 15.5t23.5 7q21 0 78.5 -41.5t148 -116t125.5 -100.5q-9 34 -39 121.5t-40 132.5q-2 7 -11.5 50t-11.5 53.5t-10 49t-10 57t-8 57.5t-7.5 69t-4.5 73.5t-4 89.5t-1 99q0 161 48 297.5t132 175.5q0 32 8.5 115.5t8.5 152.5q0 27 16 38t49 11 q31 0 48.5 -23t17.5 -63q0 -45 -3 -93t-3 -80.5t6 -72.5q110 -93 158.5 -233t41.5 -369q-6 -208 -63 -219q-35 -6 -62.5 34t-25.5 75q0 4 3.5 49.5t6 96.5t2.5 104t-7.5 104.5t-23.5 101t-47.5 79t-73.5 28.5q-42 -2 -72 -102t-30 -277q0 -140 21.5 -266t80.5 -307 q17 -53 85.5 -178.5t68.5 -165.5q0 -45 -18 -78t-47 -33q-20 0 -66 16q-1 -49 -4.5 -133.5t-3.5 -120.5v-21v-21.5t-0.5 -19.5t-2 -19.5t-4 -16.5t-6 -15.5t-9 -11.5t-13 -10t-17.5 -5.5t-22 -2.5q-42 0 -57.5 29t-12.5 110q5 180 19 324q-91 50 -170 109.5t-138 133 t-59 134.5z" />
<glyph unicode="%" horiz-adv-x="1214" d="M92 895q0 64 70.5 143t148.5 111q46 20 77.5 18t47 -19t8.5 -40q21 15 53.5 -4t57.5 -61t25 -87q0 -124 -73.5 -212.5t-215.5 -88.5q-87 0 -143 80t-56 160zM120 -277q-10 28 1 60q51 152 152.5 382t222.5 466q25 48 66 128t69.5 135t66 124.5t68 116t63.5 89.5 t63.5 64.5t57.5 22.5q32 1 44 -19.5t12 -42.5q0 -16 -20.5 -49.5t-62.5 -94.5t-93.5 -141t-126 -215.5t-146.5 -291.5q-1 -2 -41.5 -84t-100 -206t-102.5 -220q-7 -15 -20.5 -48.5t-22 -53t-22 -48.5t-23.5 -46t-22.5 -33.5t-24 -23.5t-22.5 -5q-26 6 -36 34zM231 883 q0 -32 23 -57.5t57 -34.5q46 -10 90.5 38.5t44.5 88.5q0 61 -45 112q-52 -7 -111 -51.5t-59 -95.5zM616 236q0 80 95.5 195t181.5 147q46 15 79.5 -6t45.5 -58t6 -76q25 -29 30 -54.5t5 -96.5q0 -38 -22.5 -88t-57 -95t-83 -76.5t-95.5 -31.5q-185 0 -185 240zM770 199 q0 -3 1 -11.5t4 -11.5t7.5 -8t11.5 -7.5t17 -2.5q33 -1 70 50t37 85q0 24 -15 55.5t-18 52.5q-38 -26 -75 -78t-40 -100v-11v-13z" />
<glyph unicode="&#x26;" horiz-adv-x="1112" d="M158 -123q0 45 119.5 287t125.5 260q0 1 -30.5 51t-53.5 99t-45 150t-22 216q0 42 17.5 108t51.5 140t77.5 138t102.5 106.5t120 42.5q58 0 101.5 -20.5t67.5 -56t35 -76t11 -87.5q0 -90 -33 -220.5t-84 -261t-85.5 -210.5t-64.5 -142q20 -36 50.5 -78.5t44.5 -64.5 q4 2 48.5 30.5t76.5 47t80.5 43.5t92.5 38t80 13q48 0 48 -65q0 -15 -75.5 -61.5t-174 -102t-129.5 -78.5q30 -30 100.5 -93t112 -105.5t41.5 -61.5q-2 -14 -7.5 -22t-14 -10.5t-15.5 -3t-18.5 1t-16.5 1.5q-35 1 -91 41t-103.5 85.5t-110.5 113.5q-73 -49 -113 -77 t-45 -32.5t-17 -13t-44 -27.5q-23 -14 -49.5 -32.5t-39 -26.5t-32.5 -14.5t-45 -6.5q-38 0 -45 37zM387 913q0 -171 109 -391q87 140 145.5 330t58.5 383q0 36 -30.5 63t-69.5 29q-35 2 -86 -64.5t-89 -166.5t-38 -183zM406 131l122 57l-49 74z" />
<glyph unicode="'" horiz-adv-x="561" d="M203 1554q0 13 24 38.5t58 25.5q32 0 51.5 -25.5t17.5 -52.5q-5 -46 -8 -168q-1 -24 -1.5 -67t-1 -77t-2 -76t-6.5 -73t-12.5 -58t-21 -41t-31.5 -13q-19 1 -31 11t-17.5 29t-7 36t-1.5 42q-10 272 -10 469z" />
<glyph unicode="(" horiz-adv-x="651" d="M176 705q0 48 1 85.5t6.5 74t7.5 56t13 57t15 50t21.5 62t23.5 67.5q26 78 72 164t93.5 144.5t74.5 58.5q65 0 65 -62q0 -23 -31.5 -77.5t-80.5 -138.5t-78 -154q-64 -156 -64 -430q0 -62 32.5 -269t62.5 -289q17 -46 51 -112t57 -112.5t23 -65.5q0 -66 -68 -66 q-36 0 -93 109t-116 274q-37 104 -62.5 278.5t-25.5 295.5z" />
<glyph unicode=")" horiz-adv-x="733" d="M125 -178q0 27 25.5 95t62.5 168t74 224.5t62.5 302t25.5 363.5q0 69 -19.5 136.5t-47.5 117t-56 90t-46.5 68.5t-17.5 38q3 28 17 41t47 13q15 0 45 -25.5t66.5 -75t69.5 -113t55 -150t22 -175.5q0 -173 -18.5 -313t-67.5 -320q-49 -183 -125 -365t-111 -182 q-32 0 -47.5 17.5t-15.5 44.5z" />
<glyph unicode="*" horiz-adv-x="1361" d="M92 928q0 13 13 25.5t40.5 24t55 21t73 20t77 17.5t84 18t77.5 17q-171 327 -168 371q1 24 23.5 36.5t40.5 12.5q19 0 42.5 -26.5t48 -72.5t45.5 -90t45 -97.5t36 -76.5q114 206 162 277q114 168 192 168q19 0 35 -16t16 -35q0 -15 -55.5 -88.5t-129 -173.5t-104.5 -162 q50 10 118.5 21t111.5 17l43 5q23 0 47.5 -2t66 -9t67.5 -26.5t26 -48.5q0 -60 -64 -60q-23 -1 -78.5 8t-83.5 9q-132 0 -260 -35q54 -75 147 -223t93 -174q0 -28 -18 -46t-44 -18q-34 0 -127 135.5t-137 227.5q-39 -65 -124.5 -244.5t-90.5 -188.5q-48 -86 -106 -86 q-15 0 -25 14.5t-10 35.5q0 8 17 50t48 109t58.5 127t64 137.5t49.5 106.5q-13 -2 -174 -42t-202 -40q-25 0 -43.5 19t-18.5 51z" />
<glyph unicode="+" d="M203 621q0 31 154.5 68.5t281.5 43.5q1 9 1 79t3 106q5 72 22.5 112t49.5 37q39 -3 53.5 -35t17.5 -98q1 -30 -0.5 -97.5t-1.5 -97.5q31 -4 133.5 -5t159.5 -14.5t58 -51.5q1 -37 -20 -56t-54 -22q-37 -4 -137 8t-146 12q-1 -30 -1 -70t0.5 -90.5t0.5 -76.5 q0 -45 -2.5 -73t-10 -55.5t-25 -39.5t-44.5 -10q-56 6 -69 186q-6 70 0 221q-73 -2 -208 -17t-157 -16q-27 -1 -43 15.5t-16 36.5z" />
<glyph unicode="," horiz-adv-x="929" d="M242 -377q2 16 71 223t84 273q4 19 8 46.5t6 45t8 38t14.5 32.5t23.5 20t37 8q26 0 43 -7t26 -15.5t13.5 -27.5t5 -31.5t0.5 -39.5q0 -36 -21.5 -100.5t-44 -117.5t-65.5 -146q-11 -25 -17 -37q-97 -217 -143 -217q-33 0 -42.5 11t-6.5 42z" />
<glyph unicode="-" d="M327.5 441q5.5 19 28.5 26l34 8q33 8 41.5 9.5t45 8.5t58.5 9.5l66 7.5t84 6.5t95.5 3.5t116.5 2q46 0 100.5 -7t102 -26.5t45.5 -46.5q-2 -42 -96 -47q-23 0 -69 0.5t-83.5 0.5t-67.5 -1q-49 -1 -203.5 -15.5t-174.5 -14.5q-8 0 -31 -1t-34 -0.5t-26 3.5t-22.5 11.5 t-9.5 22.5q-6 21 -0.5 40z" />
<glyph unicode="." horiz-adv-x="1009" d="M328 70q3 29 55 78t92 49q34 0 54 -19t20 -47q0 -42 -45 -82.5t-94 -40.5t-67 15.5t-15 46.5z" />
<glyph unicode="/" horiz-adv-x="1048" d="M-4 -219q-2 28 151.5 330.5t323.5 597.5q63 109 122.5 221.5t105.5 192.5t124 196q40 59 70 99.5t70 84.5t79 67.5t76 24.5q31 1 41 -16.5t8 -48.5q-1 -18 -29.5 -56t-71.5 -86.5t-117 -145.5t-146 -206q-81 -118 -128.5 -213.5t-84.5 -154.5q-82 -129 -223.5 -369 t-233 -391.5t-104.5 -153.5q-10 -1 -21.5 9t-11.5 18z" />
<glyph unicode="0" horiz-adv-x="1058" d="M123 426q0 32 13 85.5t38.5 121t69.5 135t99 124t133.5 91.5t166.5 35q23 0 40 -13.5t17 -37.5q0 -9 -4 -17.5t-14 -16t-19.5 -13.5t-26.5 -13.5t-29.5 -12t-34.5 -13t-35 -13.5q-44 -17 -104 -91t-107 -178.5t-47 -188.5q0 -43 20.5 -98t60.5 -99.5t86 -44.5 q75 0 150 41.5t128 102t86.5 129.5t33.5 124q0 33 -20.5 58t-49.5 41t-59 31t-52 36t-24 47q-3 38 21 62t77 24q27 0 66 -19t79.5 -52t68.5 -87.5t28 -115.5q0 -95 -36 -184t-94.5 -154.5t-131.5 -115t-149.5 -75t-145.5 -24.5q-122 2 -210.5 111t-88.5 278z" />
<glyph unicode="1" horiz-adv-x="831" d="M27 799q2 20 47.5 56t166.5 121q46 32 72 50q98 68 166 125t88 75.5t29 18.5q17 0 37 -16.5t20 -36.5q0 -21 -6.5 -64t-17 -104t-15.5 -102q-29 -216 -34 -267q-5 -42 -8.5 -83.5t-6 -73t-5 -74.5t-4 -66.5t-3 -72t-2 -66.5t-2 -74.5t-2.5 -74.5q-2 -37 -20 -63.5 t-58 -26.5q-36 0 -57 29t-21 69q0 14 -0.5 81t0 108t1.5 106.5t4.5 128t9.5 121.5q3 28 8 74t8 70t10.5 72t18.5 109q-90 -84 -205.5 -157.5t-149.5 -73.5q-18 0 -45 27.5t-24 54.5z" />
<glyph unicode="2" horiz-adv-x="1013" d="M47 735q0 11 40 55t118.5 112.5t165.5 131.5q51 38 125 71.5t133 33.5q49 0 85 -42.5t36 -142.5q0 -68 -18 -145t-57 -166t-63 -139t-75.5 -143.5t-55.5 -100.5q46 22 150 75.5t168 82t94 28.5q29 0 49 -14.5t21 -42.5q1 -26 -50 -61t-148.5 -85t-137.5 -75 q-40 -24 -116 -76t-122 -79t-67 -27q-37 0 -59 16t-21 43q1 15 5.5 31.5t10 28.5t17.5 36.5t20 42.5q94 204 194.5 438.5t100.5 262.5q0 35 -16.5 52.5t-53.5 20.5q-30 3 -93.5 -43.5t-124 -104t-120.5 -105.5t-84 -48q-51 0 -51 78z" />
<glyph unicode="3" horiz-adv-x="919" d="M70 856q0 60 319 197q70 30 161.5 63.5t147.5 51.5l56 18q33 0 61.5 -16.5t28.5 -43.5q0 -22 -136.5 -224t-134.5 -218q2 -14 27 -21t60.5 -21.5t56.5 -43.5q36 -48 46.5 -80t10.5 -102q0 -89 -59 -232t-138 -270t-162 -220t-128 -93q-29 0 -48.5 27t-17.5 48q2 13 42 59 t94.5 111.5t109.5 144t93 178.5t38 193q0 64 -12 97.5t-49 60.5q-21 15 -56 25.5t-62 15.5t-47 17t-20 32q0 24 20 65.5t44 77.5t68 101.5t67 101.5q-43 -17 -146 -68t-183 -86.5t-107 -33.5q-16 2 -30.5 29t-14.5 59z" />
<glyph unicode="4" horiz-adv-x="980" d="M45 442q0 11 32.5 64.5t110.5 158t177 218.5q49 58 126 150q129 154 167 192.5t65 38.5q28 0 41 -16t13.5 -53.5t-3.5 -78.5t-10 -111.5t-6 -132.5q0 -70 -2 -145t-2 -117q75 25 118 25q21 0 31.5 -2t18.5 -12.5t8 -30.5q0 -26 -9 -47t-20 -33t-34 -23t-35.5 -15 t-41.5 -11.5t-36 -9.5q-9 -156 -9 -267q0 -116 -12.5 -148t-73.5 -32q-50 0 -69 23t-17 51q8 183 5 340q-15 -3 -85.5 -18.5t-113.5 -24t-97.5 -17.5t-80.5 -10q-27 -1 -51.5 2.5t-49.5 12.5t-40 29.5t-15 49.5zM279 516q114 16 307 66q0 208 8 319q-64 -59 -123.5 -130.5 t-119.5 -155t-72 -99.5z" />
<glyph unicode="5" horiz-adv-x="1007" d="M156 -221q0 9 10.5 21.5t32.5 29.5t44.5 33t58.5 42t63 46q114 86 194 166t80 125q0 29 -14 53.5t-43.5 45.5t-57.5 36.5t-76.5 39.5t-78.5 42q-44 25 -74 46.5t-64 54t-53 74t-22 91.5q-2 44 20 143t64 190t84 91q54 0 66 -32q5 -17 7 -77q1 -24 -24 -135.5t-25 -171.5 q0 -61 44.5 -100.5t131.5 -83.5q5 -2 40.5 -20.5t43 -22.5t39 -22t40.5 -25.5t34 -26.5t34 -31.5t25 -33.5t22 -40t11.5 -43.5t5.5 -50.5q0 -60 -97 -162.5t-239 -213.5q-215 -165 -272 -170q-28 -1 -41.5 27t-13.5 65zM467 1094q0 32 82 41.5t272 14.5q34 1 51 1 q122 3 204.5 -12.5t82.5 -42.5q0 -22 -15.5 -39t-49 -27t-70 -16.5t-94.5 -9.5t-105.5 -4t-119.5 -1h-12q-27 0 -43 0.5t-47 2.5t-51 8.5t-41.5 16t-32.5 27t-11 40.5z" />
<glyph unicode="6" horiz-adv-x="1103" d="M135 311q0 213 180 539q31 56 86 130.5t118 144.5t127.5 118.5t105.5 48.5q21 0 38 -18t17 -31q0 -20 -39.5 -68.5t-93 -103t-121 -136t-111.5 -153.5q-85 -139 -112 -242t-27 -245q0 -58 27 -118.5t67 -70.5q-4 14 -6 30.5t-2.5 26t0 33.5t0.5 33q0 70 34 133t85 103.5 t106 64t99 23.5q71 0 130 -68.5t58 -152.5q-1 -34 -15.5 -77t-51.5 -94.5t-90 -93.5t-140.5 -70t-193.5 -28q-126 0 -200.5 94.5t-74.5 247.5zM508 205q0 -51 12 -86q99 16 174.5 85t75.5 128q0 94 -86 94q-51 0 -93.5 -42.5t-62.5 -92t-20 -86.5z" />
<glyph unicode="7" horiz-adv-x="966" d="M33 866q0 31 55 52t161.5 42t151.5 35q103 29 237 58.5t153 29.5q24 0 40 -8.5t22.5 -25t8.5 -31.5t2 -37q0 -25 -28 -75.5t-101 -173t-139 -249.5q-288 -552 -397 -827q-12 -33 -32.5 -58t-41.5 -24q-19 1 -28 20t-9 44q0 40 94.5 281t200.5 466q23 49 107 235t106 232 q-136 -37 -199 -51q-209 -49 -260 -49q-52 0 -78 33.5t-26 80.5z" />
<glyph unicode="8" horiz-adv-x="880" d="M111 209q0 59 17 120t49.5 119t56.5 95.5t62.5 87.5t43.5 57q-59 57 -110 158t-48 188q3 104 47 204t111.5 162t134.5 62q53 0 80 -17.5t27 -47.5q0 -24 -29 -41.5t-66 -24.5q-48 -9 -102 -101.5t-53 -176.5q1 -72 26 -120t76 -106q27 70 130.5 235.5t144.5 166.5 q32 1 47.5 -26.5t13.5 -51.5q-4 -33 -53.5 -112.5t-112 -169.5t-80.5 -124q2 -6 47 -88t79 -180.5t34 -193.5q0 -82 -47.5 -150.5t-119.5 -104.5t-148 -36q-110 0 -184 57.5t-74 159.5zM258 246q0 -48 32 -91.5t75 -43.5q58 0 108.5 60t50.5 108q0 65 -24.5 143t-69.5 143 q-71 -88 -121.5 -179t-50.5 -140z" />
<glyph unicode="9" horiz-adv-x="964" d="M80 709q1 37 9.5 76.5t37 92t73 92t126 67.5t188.5 28q61 0 110.5 -14t83 -37t58.5 -58.5t39.5 -71.5t23 -82.5t11 -86.5t2.5 -88q0 -213 -180 -539q-41 -74 -135.5 -202t-189.5 -233.5t-124 -105.5q-21 0 -38 18.5t-17 31.5q0 15 57 93t147 200.5t144 211.5 q172 280 172 537q0 90 -26.5 172t-63.5 102q5 -18 6 -30.5t-0.5 -34t-1.5 -37.5q0 -70 -34 -133t-85 -103.5t-106 -64t-99 -23.5q-71 0 -130 69t-58 153zM215 717q0 -44 18 -67t64 -23q39 0 74 23t56 57t33.5 68.5t12.5 60.5q0 51 -12 86q-100 -16 -173 -81t-73 -124z" />
<glyph unicode=":" horiz-adv-x="784" d="M213 82q3 28 79.5 87.5t117.5 59.5q34 0 53.5 -18.5t19.5 -46.5q0 -44 -60.5 -94.5t-127.5 -49.5q-49 1 -67 16t-15 46zM254 492q3 28 79.5 87.5t117.5 59.5q34 0 53.5 -19t19.5 -47q0 -44 -60.5 -94t-127.5 -49q-49 1 -67 16t-15 46z" />
<glyph unicode=";" horiz-adv-x="978" d="M248 -434q2 16 71 222.5t84 272.5q4 21 8.5 55t8.5 53.5t12.5 41t25 31.5t42.5 10t43 -6.5t26 -14.5t13.5 -26t5 -31t0.5 -39q0 -39 -26 -115t-48 -126t-74 -164q-97 -217 -143 -217q-33 0 -42.5 11t-6.5 42zM362 561q3 28 79.5 88t117.5 60q34 0 54 -19t20 -47 q0 -44 -61 -94t-128 -49q-49 1 -67 15.5t-15 45.5z" />
<glyph unicode="&#x3c;" horiz-adv-x="1085" d="M127 475q-5 24 9.5 44t34.5 30.5t48.5 24t38.5 20.5q603 399 668 397q36 -2 55 -13t18 -40q-2 -16 -32 -51t-62 -56q-54 -35 -171 -117t-214 -147.5t-147 -91.5q498 -236 606 -291q21 -10 35.5 -37.5t9.5 -40.5q-8 -19 -27 -32t-41 -13q-56 0 -302.5 112.5t-473.5 232.5 q-45 23 -53 69z" />
<glyph unicode="=" horiz-adv-x="1349" d="M203 670q0 41 214.5 88t405.5 55q128 4 243 -17.5t118 -66.5q1 -32 -26.5 -58t-61.5 -24q-23 1 -117.5 10.5t-151.5 10.5q-34 1 -75 -1t-82.5 -6t-85 -9t-83.5 -11.5t-77.5 -12.5t-68.5 -12t-54 -10.5t-36 -7.5l-13 -2q-19 0 -34 27t-15 47zM324 369q0 27 105 57.5 t233.5 49t214.5 20.5q45 0 75 -1.5t69.5 -7.5t60 -21t20.5 -38q-3 -37 -33 -49t-94 -14q-60 -1 -266 -27.5t-275 -26.5q-110 0 -110 58z" />
<glyph unicode="&#x3e;" horiz-adv-x="1085" d="M74 94q-5 13 9.5 40.5t35.5 37.5q108 55 606 291q-50 26 -147 91.5t-214 147.5t-171 117q-32 21 -62.5 56t-32.5 51q-1 29 18.5 40t55.5 13q65 2 668 -397q2 -1 46.5 -25t64 -45t20.5 -49q2 -41 -53 -70q-224 -118 -472.5 -231t-304.5 -113q-21 0 -40 13t-27 32z" />
<glyph unicode="?" horiz-adv-x="1021" d="M12 1049q-3 26 71.5 108t158.5 158q9 8 36.5 32.5t37 33t33.5 28t36 27t32.5 20t36 17.5t34.5 9.5t38 4.5q150 0 150 -172q0 -96 -16 -201.5t-56 -275.5q-27 -113 -51.5 -239.5t-34.5 -168.5q80 53 158 121q20 17 34.5 28.5t24 19t15.5 11.5t9.5 5t4.5 0.5t2.5 -2.5 t2.5 -4t4.5 -3.5t8.5 -1.5q53 0 58 -43q3 -12 1 -22t-29.5 -37.5t-96.5 -87.5q-89 -73 -150.5 -114.5t-101.5 -41.5q-95 0 -98 61q-3 33 12.5 111t44 200t41.5 187q67 333 73 404q2 27 1 45q-2 26 -14.5 44t-33.5 19q-22 1 -83.5 -41.5t-124.5 -101.5q-26 -23 -59.5 -54.5 t-55 -52t-43.5 -40t-36 -29t-21 -9.5q-23 0 -37.5 13t-16.5 35zM377 49q0 26 64.5 79.5t101.5 53.5q31 0 49 -16.5t20 -42.5q3 -40 -47 -85t-110 -44q-44 1 -62 14.5t-16 40.5z" />
<glyph unicode="@" horiz-adv-x="1236" d="M100 369q0 118 49 228.5t128.5 189.5t185 126.5t215.5 47.5q80 0 145.5 -19.5t132.5 -69.5q179 -97 179 -444v-16q0 -33 -7.5 -70t-26 -77.5t-45.5 -73.5t-69 -56.5t-94 -28.5q-112 15 -160 97q-36 61 -53 151q-51 -76 -123 -139q-47 -56 -147 -65q-73 23 -86 116 q15 144 116 287q144 206 222 227q45 0 45 -39q0 -21 -58 -61q-60 -60 -106 -117q-46 -54 -88 -157q-37 -93 -37 -125q0 -18 3.5 -23.5t16.5 -5.5q77 -9 148 90q71 103 71 123q0 23 20 37t40 14q27 2 38.5 -31t4.5 -98q0 -47 12 -85.5t47 -84.5q21 -18 64 -37q53 3 94 31 q78 99 78 252q0 126 -47 252q-61 84 -147.5 131t-174.5 47q-95 0 -183.5 -36.5t-157.5 -102t-110.5 -166.5t-41.5 -221v-5q0 -116 36.5 -192.5t89.5 -116.5q118 -90 353 -90q120 0 217 43q8 4 20 4q18 0 29.5 -12.5t11.5 -28.5q0 -23 -24 -35q-124 -57 -244 -57 q-262 0 -410 113q-59 42 -103.5 115.5t-57.5 154.5q-11 68 -11 109z" />
<glyph unicode="A" horiz-adv-x="997" d="M76 29q0 17 39.5 178.5t105.5 399t123 411.5q132 407 182 407q24 0 53.5 -94.5t70.5 -267.5t67 -256q29 -92 94 -284t99 -301q32 -100 32 -124q0 -38 -13 -54q-12 -15 -48 -15q-27 0 -48.5 14t-39.5 45.5t-28.5 56t-27.5 72.5q-8 23 -25.5 62t-23.5 59 q-85 -26 -131.5 -38.5t-130.5 -27t-172 -18.5q-1 -8 -7.5 -43.5t-9 -54t-7 -51t-6.5 -63t-3 -62.5q0 -26 -26 -41q-23 -13 -52 -13h-8q-59 3 -59 103zM283 381q36 5 67.5 11.5t61.5 16.5t50.5 17.5t49 22.5t40.5 21.5t43.5 24.5t39.5 23q-16 66 -69.5 264.5t-73.5 261.5 q-17 -59 -101 -313t-108 -350z" />
<glyph unicode="B" horiz-adv-x="937" d="M88 1024q-1 11 28.5 54.5t87 103t128 115t166 94.5t188.5 39q18 0 44.5 -9.5t57 -29t50.5 -57.5q20 -37 20 -83q0 -53 -33 -129q-31 -72 -87.5 -156.5t-98 -142t-106 -138.5t-70.5 -89q15 3 29.5 7t20.5 5.5t19 2.5t35 1q29 0 67 -12.5t78 -37.5t66 -73q23 -43 24 -97 q0 -6 -1 -13q-1 -40 -37.5 -110t-91.5 -138.5t-128 -119t-136 -50.5q-23 0 -38.5 18.5t-15.5 43.5q2 37 29 66.5t76 35.5q56 6 128.5 87t82.5 161q1 5 1 10q0 31 -23 49q-26 20 -73 21q-25 0 -50 -4.5t-40.5 -8.5t-45.5 -19t-39 -20t-49 -29l-50 -30q3 -36 23 -254 q19 -198 18 -248v-8q-5 -67 -72 -74h-4q-27 0 -52 34q-27 37 -30 81q-1 10 -6 72t-6 80q-2 18 -4 85q-2 48 -1 91v35q1 58 3 160t6 229q7 206 12 346q-15 -3 -29 -3q-24 0 -42 10q-29 16 -29 46zM311 614q68 79 152.5 185.5t171 238t86.5 181.5q0 23 -15.5 43t-39.5 20 q-186 0 -347 -205q-5 -5 -5 -61q0 -19 1 -43q1 -48 1 -85.5t-1 -64.5q-4 -148 -4 -209z" />
<glyph unicode="C" horiz-adv-x="921" d="M158 338q0 402 184 733q44 79 94.5 139t92 91.5t83 51t65.5 24.5t42 5q14 0 22 -3.5t11 -14.5t3.5 -17.5t0.5 -27.5q0 -16 -55.5 -68.5t-131 -128t-110.5 -135.5q-68 -121 -101.5 -297.5t-33.5 -302.5q0 -197 67 -197q30 0 71 16t73.5 34.5t101 60t111.5 66.5 q57 34 104 34q13 1 21 -4.5t8 -13.5q-1 -26 -57.5 -82.5t-136 -114t-178.5 -101.5t-173 -44q-49 0 -86 33.5t-55.5 83.5t-27.5 96.5t-9 83.5z" />
<glyph unicode="D" horiz-adv-x="1009" d="M131 1135q3 46 45 77q-3 13 -3 26q1 34 21 64q28 42 70 41h2q12 -1 20.5 -5.5t14 -15t8.5 -18t8 -24.5t7 -25q103 27 186 27q107 -1 204.5 -74t159.5 -202.5t64 -282.5v-14q0 -49 -12 -97q-14 -54 -33.5 -93.5t-57.5 -86.5t-64 -72.5t-75 -72t-69 -66.5 q-45 -45 -92.5 -95t-72 -76.5t-50.5 -51t-43 -34t-33 -9.5q-40 0 -63 11.5t-23 45.5q-2 38 -17 219t-16 252q-1 38 -31 572q-26 7 -42 29q-13 18 -14 40q0 5 1 11zM340 1114q0 -95 19 -486t26 -456q39 37 103 94.5t99 90t80.5 82t68.5 88.5t40 90.5t17 105.5 q0 44 -20.5 113.5t-55.5 141.5t-92.5 123.5t-120.5 51.5q-57 0 -90 -8t-74 -31z" />
<glyph unicode="E" horiz-adv-x="933" d="M86 1028q-1 5 -1 10q-1 11 3 20q4 13 18 24.5t25 18t33 17.5q10 154 67 154q19 0 31.5 -9t18 -26.5t7.5 -31.5t3 -34q56 20 148 62t162 72.5t95 33.5q24 1 47 1q1 0 2 1q21 1 37 -13t17 -42q0 -24 -33.5 -53.5t-95.5 -62t-119.5 -58.5t-136.5 -60t-115 -51 q24 -306 33 -387q80 38 214 90.5t159 53.5q21 1 37 -19.5t16 -40.5q0 -26 -47.5 -64.5t-124.5 -79t-129.5 -66t-106.5 -48.5q24 -212 31 -305q26 8 55.5 21t50 23.5t59 31t60.5 31.5q18 9 77 42.5t92 47.5t52 12q47 -3 47 -51q0 -29 -68 -87q-70 -60 -164 -117.5 t-197.5 -101.5t-161.5 -44q-31 0 -50.5 26.5t-19.5 59.5q0 36 20 53q-13 202 -32 381q-13 105 -22 206t-15 187t-8 107q-25 -9 -46 13t-24 52z" />
<glyph unicode="F" horiz-adv-x="786" d="M115 1150q0 21 15 38q16 19 45.5 33.5t57 24.5t64.5 20q270 73 305 73q34 0 60 -11.5t26 -33.5q0 -25 -16 -43t-34.5 -26t-55.5 -21q-21 -7 -94.5 -30.5t-130.5 -44t-95 -39.5q0 -86 39 -476q35 12 131 46t158 53.5t82 19.5q22 0 38.5 -14.5t16.5 -34.5q0 -72 -244 -164 q-26 -10 -79 -33.5t-76 -31.5q4 -56 14 -148t17 -158q6 -58 6 -78q0 -3 1 -5q-2 -41 -20.5 -59.5t-66.5 -18.5q-20 0 -35.5 36.5t-26.5 104.5t-19 134.5t-18 159t-18 146.5q-47 339 -47 581z" />
<glyph unicode="G" horiz-adv-x="962" d="M113 356q-1 16 -1 33q0 120 39 243q44 140 136 326q77 159 190 302t164 143q25 0 37 -23.5t12 -52.5q0 -15 -42.5 -75.5t-113.5 -165.5t-120 -197q-71 -132 -111.5 -279t-40.5 -258q0 -24 4 -56.5t14.5 -77t35 -74t59.5 -29.5q82 0 147 58t127 165q25 42 39 83.5t14 65.5 q0 23 -20.5 34t-52.5 9q-34 -2 -81 -58t-48 -128q0 -27 -18.5 -45t-51.5 -18q-57 0 -57 118q0 26 19.5 69.5t52 87.5t84 76t106.5 32q47 0 92 -13.5t81 -49.5t36 -89q0 -63 -29 -140t-80 -150.5t-114 -135.5t-139 -99.5t-146 -37.5q-102 0 -159.5 92.5t-63.5 314.5z" />
<glyph unicode="H" horiz-adv-x="1077" d="M35 532q0 22 10.5 35.5t29.5 18t37.5 5.5t43 1t37.5 2q6 328 14 463q20 301 102 301q17 0 28.5 -12t17.5 -36.5t9 -48.5t2 -62t-2 -61t-4 -61q-4 -151 -6 -233q-1 -50 -1 -77v-29q1 -24 4 -58.5t5 -69.5q29 4 86 14.5t128.5 21t162.5 18.5q-2 72 -12 207.5t-10 224.5 q0 31 0.5 44.5t2 38t5.5 36t11 25t19 19t29 5.5q43 0 57.5 -29t20.5 -125q15 -210 19 -422q4 -135 19.5 -250t32 -174t29.5 -104t12 -58q0 -32 -24 -64t-63 -32q-28 0 -54.5 57t-46 146.5t-31.5 161t-20 135.5q-77 -6 -136.5 -11.5t-88.5 -9.5t-78 -11t-78 -11 q2 -85 9 -243.5t8 -207.5q0 -38 -20 -65t-60 -27q-45 0 -63.5 69t-24.5 244q-2 36 -2.5 109t-1.5 92q-32 -2 -57 0.5t-51.5 11t-41 30.5t-14.5 56z" />
<glyph unicode="I" horiz-adv-x="528" d="M175 1009q1 21 1 76v33t0.5 33.5t1 30.5t2.5 29t4.5 24.5t7.5 21.5t11.5 15.5t15.5 10.5t21 3q21 -1 36.5 -38t26.5 -111.5t18 -139t15.5 -170.5t13.5 -155q6 -69 21 -183.5t23 -195.5q5 -53 4 -97v-44q-5 -58 -30 -92t-67 -35q-15 0 -27 14t-20.5 42t-14 59.5t-9.5 77 t-7 82.5t-6 88t-6 83q-3 33 -8.5 100t-8 96t-7.5 91.5t-6 87.5q-1 26 -4 84q-2 44 -2 66v13z" />
<glyph unicode="J" horiz-adv-x="917" d="M82 516q-1 7 -1 14q0 52 36 54q19 1 40.5 -12.5t45.5 -41t44.5 -54.5t50.5 -67t50 -65q49 -63 98 -112q46 -46 71 -46h3q17 3 17 67v21q-1 72 -21 303t-24 287q-2 30 -9 108.5t-11.5 144.5t-4.5 100q0 55 11 87q12 31 42 31h2q25 -1 42.5 -7t34 -23.5t24.5 -54t8 -91.5 q0 -102 16 -450q4 -103 18.5 -281t14.5 -276q0 -87 -37.5 -138t-77.5 -51q-49 0 -108.5 50t-145.5 151q-90 105 -159 207.5t-70 144.5z" />
<glyph unicode="K" horiz-adv-x="929" d="M115 295q5 52 55 102q4 86 4 705q0 26 1.5 57.5t6.5 76.5t17 74t30 29q33 0 48.5 -27t21.5 -120q6 -33 6 -224v-105q-2 -288 -2 -294q131 144 238 344q57 107 93 196t38 124q4 63 28 102t58 39t50.5 -26.5t16.5 -69.5q0 -87 -48.5 -212t-125.5 -255q-30 -52 -65.5 -106 t-63.5 -94.5t-62.5 -86.5t-53.5 -70.5t-45 -57t-29 -36.5q110 -45 315 -122q16 -6 49 -17t57 -19.5t49 -20.5q25 -11 38 -25q12 -13 12 -27v-15q0 -11 -1 -15t-2.5 -13.5t-3.5 -14t-6.5 -11.5t-10 -10.5t-14 -6t-19.5 -2.5q-53 0 -139.5 28t-198.5 74t-146 58q-1 -36 -4 -58 t-12.5 -49.5t-31.5 -40.5q-20 -12 -51 -12h-5q-11 0 -19.5 4.5t-14 13.5t-8.5 18.5t-5 25t-2.5 27.5t-1.5 32t-2 33q-18 16 -30 44q-10 22 -10 45q0 5 1 11z" />
<glyph unicode="L" horiz-adv-x="868" d="M156 1286q0 86 55 86q52 0 84.5 -125.5t77.5 -462.5q8 -59 8 -202q0 -80 -12 -206q-10 -100 -10 -139q0 -10 1 -16q1 -9 1.5 -23t1 -19t4 -12t10.5 -9t20 -2q28 0 126.5 58t192.5 116q91 56 114 55h1q54 -4 54 -42q-1 -63 -133 -159q-134 -98 -284.5 -167.5t-207.5 -69.5 q-21 0 -43 39.5t-20 62.5q0 1 6 64t10 117t8 146t4 177q0 141 -17 291t-34.5 267t-17.5 175z" />
<glyph unicode="M" horiz-adv-x="1343" d="M168 132v69q11 134 50.5 478t43.5 427q2 30 7.5 61t16 66t30 58t44.5 24h11q43 1 61 -21q22 -24 51 -106q24 -69 95.5 -298.5t97.5 -299.5q111 181 213 500q4 11 13.5 41t13.5 41.5t12.5 34t15.5 32t17 22t21.5 17t25.5 4.5q23 0 38.5 -7.5t24 -21.5t12.5 -34t5.5 -45.5 t1.5 -56.5v-19q5 -272 20 -443q9 -114 39.5 -204.5t87.5 -212.5q10 -21 44 -58.5t34 -60.5q0 -78 -90 -78q-50 0 -104.5 73t-93 173.5t-64 202t-25.5 161.5q0 27 -1 44t-3 42.5t-4 57.5q-6 -14 -28.5 -69t-37 -88.5t-39.5 -88.5t-45 -90t-43 -71.5t-43.5 -54.5t-38.5 -18 q-39 0 -76 95t-88.5 278t-91.5 285q-18 -28 -31 -197.5t-21.5 -379.5t-12.5 -255q-5 -46 -30.5 -80.5t-65.5 -35.5h-2q-33 -1 -50 33q-18 34 -18 74z" />
<glyph unicode="N" horiz-adv-x="1128" d="M151 1089q0 15 4 27q4 14 11 25.5t21 17.5t34 4q38 -4 79 -67.5t95 -170t97 -163.5q231 -314 323 -397q-1 10 -20 147.5t-21 224.5q-3 136 -3 251.5t3 211.5q1 17 1.5 25t5.5 27.5t12 29.5t22.5 19.5t36.5 9.5q39 0 57.5 -40t20.5 -124q1 -50 11.5 -258.5t12.5 -257.5 q3 -84 34.5 -278t31.5 -251q0 -62 -57 -65h-4q-65 0 -144 86q-66 72 -132 148.5t-106.5 125t-117.5 141.5t-115 138q8 -43 8 -80v-13q0 -32 -2 -68q-2 -31 -2 -57v-20q1 -65 4.5 -189.5t3.5 -174.5q0 -29 -0.5 -41.5t-3.5 -34t-9.5 -31t-19.5 -17.5q-12 -7 -28 -7h-4 q-90 3 -90 102q-6 382 -13 610q-3 65 -19 211.5t-17 186.5z" />
<glyph unicode="O" horiz-adv-x="1167" d="M86 575v6q0 141 47 276q48 138 120.5 233t156.5 153t157 60q11 1 22 1l164 -32q93 -36 166 -100.5t129 -141.5q54 -78 82 -161q22 -66 22 -123q0 -15 -1 -29q-4 -53 -27 -122t-61 -144.5t-94 -148t-121.5 -130t-149 -92.5t-170.5 -35q-106 1 -209.5 81.5t-167.5 204 t-65 244.5zM236 616q0 -86 29.5 -166.5t74 -134.5t94.5 -87t92 -33q66 0 148.5 51t152.5 127t118 172.5t48 179.5q0 74 -40 154t-98.5 140t-125.5 99t-119 39q-72 0 -136 -46.5t-106 -114.5t-73 -145.5t-45 -139t-14 -95.5z" />
<glyph unicode="P" horiz-adv-x="944" d="M66 997q0 22 25.5 64.5t55.5 64.5q-5 33 -5 58q0 87 55 94q15 2 25 -1.5t16.5 -14t10 -19.5t8.5 -27t9 -28q10 7 41.5 31t45 33t43 27.5t52 26.5t55 18.5t68 14.5t76.5 4q53 0 94.5 -30t65.5 -79.5t36.5 -107t12.5 -116.5q0 -74 -16 -142.5t-38 -120t-62 -104.5t-71 -86 t-82.5 -74.5t-79 -60.5t-77.5 -53q-25 -17 -37 -25q4 -52 14 -122t17.5 -118.5t7.5 -58.5q0 -32 -26 -62t-60 -30q-15 0 -28 16.5t-23 50.5t-18.5 70.5t-16.5 93t-13 99.5t-13 109t-13 104q-8 62 -22 157t-22.5 160t-12.5 113q-57 11 -77.5 25t-20.5 46zM291 1044 q64 -463 86 -548q11 7 42.5 25t52 30.5t53.5 38t55.5 49.5t48.5 62.5t42 79.5t27 97.5t11 120.5q0 81 -36.5 139t-94.5 58q-36 0 -69 -7.5t-54.5 -15.5t-48.5 -27.5t-39 -30t-39.5 -37t-36.5 -34.5z" />
<glyph unicode="Q" horiz-adv-x="1077" d="M53 418v13q0 247 77 425q78 184 271 352q26 22 73 42q38 17 70 17q7 0 13 -1q1 0 7.5 -0.5t8 -0.5t7 -1t6.5 -2t5 -3t5.5 -4.5t4 -6.5t3 -8.5t1.5 -11t1 -14.5q0 -20 -30.5 -51t-75.5 -66.5t-98.5 -95t-98.5 -130t-75.5 -180t-30.5 -236.5q0 -114 43.5 -190.5 t128.5 -76.5q157 0 237 74q-15 53 -48.5 152t-52.5 164q-18 63 -18 91q0 34 27 56q25 21 55 18q39 -4 172 -366q33 52 51.5 146t18.5 177q0 55 -31 116t-67.5 104t-67.5 85t-31 64q0 33 22 48.5t50 15.5q18 0 50 -20.5t69.5 -60.5t70.5 -90.5t55.5 -117.5t22.5 -135 q0 -85 -11.5 -156.5t-34.5 -127.5t-43 -93t-49 -83q-9 -13 -13 -20q25 -61 68.5 -131t68.5 -115q23 -40 23 -64v-5q-1 -27 -29 -46q-22 -16 -37 -16q-3 0 -6 1q-77 7 -211 282q-42 -29 -68 -43.5t-96 -30.5t-164 -16q-76 0 -136.5 38t-94.5 96.5t-51 120t-17 118.5z" />
<glyph unicode="R" horiz-adv-x="1044" d="M139 1073q-1 9 -1 18q0 46 36 70q0 7 -1 30.5t-0.5 37t3.5 32t11.5 30t23.5 16.5q24 9 48.5 -2.5t39.5 -38.5q2 2 18 14.5t23 17.5t24.5 17t30.5 18t33.5 16t41 15t46 11t54.5 8.5t61 2.5q34 0 62.5 -7.5t48.5 -17.5t36 -30t25.5 -34t16.5 -41.5t10 -40.5t4.5 -42.5 t1.5 -36.5v-34q0 -136 -98.5 -328t-284.5 -383q215 -68 387 -145q78 -36 118 -64t41 -57v-7q-1 -33 -17 -57q-18 -27 -52 -28q-42 0 -185 65q-229 103 -372 140q0 -33 -0.5 -53.5t-3 -60t-8.5 -65.5t-15.5 -53.5t-25.5 -39.5q-14 -11 -33 -11h-6q-27 3 -44 20t-24 39.5 t-7 60.5t3 67t10 75q-67 31 -67 83v7q3 31 20 49t53 27q0 9 -5.5 121t-12 250t-10.5 225q-22 8 -39.5 35.5t-18.5 58.5zM332 1098q0 -11 12 -271q12 -241 13 -331q0 -7 -1 -13q58 65 97.5 112.5t88.5 115.5t79 124t50.5 122.5t20.5 127.5q0 67 -30 107.5t-87 40.5 q-80 0 -144.5 -41.5t-98.5 -93.5z" />
<glyph unicode="S" horiz-adv-x="1040" d="M66 287q0 9 0.5 14t2 11.5t5 10.5t10 6.5t16.5 2.5q21 0 78.5 -41.5t149 -116t125.5 -100.5q-10 35 -40 122t-40 132q-5 21 -26.5 110.5t-30 134t-18 144.5t-9.5 213q0 115 22 222.5t70 184t111 76.5q177 0 264 -165q79 -150 79 -411q0 -27 -1 -55q-6 -208 -64 -219 q-5 -1 -9 -1q-29 0 -53 35q-26 37 -26 70q0 7 4 55q4 46 6 96.5t2 103.5t-8.5 105t-26.5 103t-53.5 82t-83.5 31q-40 0 -61 -100.5t-21 -286.5q0 -140 22 -265.5t81 -307.5q17 -53 85 -178.5t68 -165.5q0 -45 -18 -78t-47 -33q-39 0 -131 44.5t-189 109t-171 150t-74 155.5z " />
<glyph unicode="T" horiz-adv-x="919" d="M-78 1023q0 11 6 23q7 13 22 25t31.5 22.5t43 22t47 19.5t53 19t52.5 17t53.5 16t48.5 15q118 39 299 82t217 43q2 1 17 1h12.5h6.5q4 0 16 -2t16.5 -6t11 -10.5t9.5 -17t3 -24.5v-2q0 -54 -57 -78q-58 -26 -236 -68q-68 -17 -107 -26q4 -117 20.5 -307t20.5 -259 q4 -80 24.5 -252.5t20.5 -193.5q0 -47 -14 -67q-13 -19 -51 -19h-4q-16 0 -30 8t-24 24.5t-18 34.5t-14 46t-10.5 51t-8 57t-5.5 56.5t-4.5 58t-4.5 53.5q-45 517 -53 659q-27 -8 -91 -27.5t-103.5 -31t-85 -21.5t-68.5 -10q-30 0 -46 13q-16 14 -16 56z" />
<glyph unicode="U" horiz-adv-x="1067" d="M111 1200q2 61 77 66q20 2 35.5 -26t25.5 -82t16.5 -117.5t11.5 -146.5t9 -156q3 -69 5 -103q2 -33 3.5 -83.5t3.5 -79.5t4 -67.5t6 -60t10 -43t15.5 -30.5t22.5 -9q37 0 76 30.5t76.5 87.5t68.5 116t66 137q7 58 13 133t9.5 137t8 128.5t12 116t18.5 91t30.5 63 t45.5 21.5q60 0 60 -74q0 -11 -11 -105q-10 -87 -10 -143v-10q5 -340 12 -438q8 -105 36 -247q26 -132 26 -170q-1 -42 -29 -76q-26 -30 -57 -31h-2q-31 1 -49 29q-18 30 -27 85q-33 186 -37 275q-32 -64 -74 -124t-94 -115t-114 -88.5t-123 -33.5q-80 0 -102.5 92.5 t-32.5 330.5q-1 24 -1.5 37t-1.5 34t-2 39q-8 164 -17.5 309.5t-14.5 211.5q-4 55 -4 80v9z" />
<glyph unicode="V" horiz-adv-x="935" d="M8 1163q0 19 1.5 31.5t6.5 27.5t17.5 23t32.5 8q22 0 42.5 -15t39 -45.5t34.5 -64.5t33 -84t30 -91t31 -99t31 -96q32 -97 76 -250.5t55 -183.5q44 102 211 538q16 42 40.5 114t42 120.5t39 99t42 76.5t39.5 26q36 0 50 -16q16 -18 16 -54q0 -40 -68 -248 q-70 -212 -152 -433q-117 -315 -175 -427q-71 -138 -117 -140h-3q-33 0 -61 37q-28 39 -31 106q-2 41 -42.5 202.5t-92.5 329.5q-32 106 -76 226t-68 187.5t-24 94.5z" />
<glyph unicode="W" horiz-adv-x="1206" d="M66 1210q27 74 43 76q31 3 49.5 -15.5t34.5 -82.5q26 -113 93 -438.5t91 -434.5q18 50 39 119.5t36 119.5t32 97t35 72t38 25q28 0 61 -30.5t70.5 -92t63.5 -110.5t66 -130.5t54 -108.5q3 40 30.5 197t39.5 240q15 89 57 450q5 44 30 84.5t54 40.5q23 0 41 -22 q23 -29 23 -59q-1 -29 -17 -176q-18 -163 -53 -393t-69 -380q-32 -140 -60 -204q-28 -63 -64 -62h-1q-38 1 -71.5 57.5t-95.5 192t-124 239.5q-9 -28 -27.5 -101t-37 -136t-43.5 -130t-58 -107t-70 -42h-2q-20 0 -38 22q-20 23 -35 62t-30.5 95t-27.5 115t-24.5 127 t-22.5 126q-3 16 -4.5 24.5t-3.5 21.5t-4 24q-6 37 -25.5 146t-28.5 160t-21.5 128t-17.5 122.5t-5 71.5z" />
<glyph unicode="X" horiz-adv-x="804" d="M37 1274q0 25 17.5 51t43.5 27q16 1 39 -32.5t52 -98t53.5 -124.5t59 -147t52.5 -131q16 32 57 122t72.5 154t71 137t72.5 112.5t57 39.5q38 0 49.5 -15.5t9.5 -51.5q0 -4 -0.5 -9t-2.5 -11.5t-4 -12t-6.5 -15.5t-8 -18t-9.5 -22t-11 -24t-14 -29t-15 -33 q-42 -89 -127.5 -263.5t-114.5 -236.5q87 -215 122 -283q70 -135 116 -135q35 0 56 -17.5t21 -51.5q0 -40 -32 -63t-95 -23q-43 0 -86 36t-78 96t-61.5 119t-48.5 123q-34 -71 -87.5 -222t-59.5 -193q-4 -31 -6 -43.5t-7 -32.5t-11 -27.5t-16.5 -13.5t-25.5 -6 q-45 0 -67.5 32t-22.5 107q0 50 80.5 268t144.5 338q-229 518 -229 623z" />
<glyph unicode="Y" horiz-adv-x="1017" d="M10 1178q0 31 20.5 57t47.5 27q12 1 38.5 -43.5t57.5 -111.5t67 -145t67 -145.5t58.5 -112.5t41.5 -45q59 0 233 304q34 56 101 179.5t102 175.5q34 52 54 52h1q43 -2 64.5 -16t21.5 -47q0 -67 -65 -340q-9 -41 -52.5 -232.5t-62.5 -271.5q-149 -633 -234 -635 q-54 0 -57 41v7q0 38 18 118q21 89 59 226t50 186q62 240 98 425q-1 -2 -22 -34.5t-32 -49.5t-36.5 -55t-44.5 -61.5t-46 -57.5t-49.5 -55t-48 -42.5t-49 -31.5t-44.5 -10q-42 0 -130.5 173.5t-157.5 354.5t-69 216z" />
<glyph unicode="Z" horiz-adv-x="946" d="M-25 881q0 29 90.5 120.5t188.5 174.5q12 10 56.5 47.5t58.5 48t49.5 36.5t56 34t50 17t57.5 9q151 0 151 -201q0 -116 -32.5 -241t-102.5 -320q-89 -247 -184 -553q99 66 184 135q35 28 79 65t71 59.5t55 44.5t45.5 32t28.5 10q58 0 61 -47q1 -32 -86 -119.5 t-221 -195.5q-103 -81 -176 -127.5t-117 -46.5q-105 0 -105 67q0 37 31 140t97.5 294t76.5 222q140 423 140 536q0 29 -13 49t-37 21h-1q-25 0 -95 -47q-72 -48 -145 -113q-42 -35 -109.5 -95t-99.5 -85t-45 -25q-26 0 -42 15t-16 39z" />
<glyph unicode="[" horiz-adv-x="821" d="M248 637q0 319 8 635q0 52 18.5 78.5t78.5 40.5t179 14q18 0 48 0.5t45 0.5t37 -1t32.5 -4.5t22 -10t16 -17.5t4.5 -27q0 -39 -22.5 -50.5t-75.5 -15.5q-10 -1 -71 3t-122 1q-9 0 -16 -4.5t-11 -10t-7 -14.5t-3.5 -14t-1.5 -14t-1 -10q-3 -49 -10.5 -256.5t-8.5 -323.5 q-4 -112 3.5 -289.5t19.5 -296.5q2 -18 29 -37t50 -18q102 4 183 4q55 -2 78 -15t24 -51q1 -30 -30 -49.5t-66 -21.5q-62 -3 -177.5 1t-135.5 3q-36 -2 -71 40t-36 89q-10 300 -10 641z" />
<glyph unicode="\" horiz-adv-x="716" d="M-70 1604q1 22 19 36.5t41 14.5q10 0 18 -2t15.5 -7.5t11.5 -9t10 -13.5l7.5 -12.5t7.5 -14.5l6 -13q33 -69 104 -244t161.5 -402t135.5 -337q37 -92 131 -310.5t148.5 -354t54.5 -162.5q-2 -35 -7 -41t-38 0q-23 3 -191 340.5t-274 582.5q-108 249 -235 580t-126 369z " />
<glyph unicode="]" horiz-adv-x="804" d="M8 -66q0 38 23.5 51t79.5 15q82 0 180 -4q23 -1 51.5 18.5t30.5 36.5q28 336 22 586q-1 69 2.5 207t5.5 219t0 133q0 1 -0.5 8.5t-1.5 12t-2.5 12.5t-4.5 13t-7 10.5t-10.5 8.5t-14.5 3q-61 3 -120.5 -1t-69.5 -3q-22 1 -34 2.5t-27 5.5t-22 10.5t-12 18t-5 28.5 q0 16 4.5 27t16 17.5t22 10t32.5 4.5t37 1t46 -0.5t49 -0.5q118 0 177.5 -14t78.5 -40.5t20 -78.5q2 -81 -9 -295t-11 -319q0 -146 -11 -641q-1 -47 -36 -89t-72 -40q-19 1 -135.5 -3t-178.5 -1q-34 2 -64.5 21.5t-29.5 49.5z" />
<glyph unicode="^" horiz-adv-x="933" d="M115 1040q0 30 19.5 62t64 86t67.5 86q177 250 226 336q14 25 19.5 34l16.5 27t17.5 24.5t16 15t18.5 11t20 2.5q88 -2 168 -630q2 -31 2 -60t-19 -50t-57 -21q-93 0 -96 90q-2 23 -13.5 88.5t-27.5 148t-20 107.5q-44 -78 -181.5 -244.5t-171.5 -169.5q-69 -6 -69 57z " />
<glyph unicode="_" horiz-adv-x="1017" d="M109 -199q0 31 15.5 52.5t45.5 21.5q278 4 328 4t190 2.5t189 -0.5q59 0 80.5 -16.5t19.5 -38.5q-3 -27 -26 -40.5t-47 -16t-82 -4.5q-17 -1 -25 -1q-380 -14 -549 -12q-3 0 -22.5 -0.5t-27 0t-25 1.5t-26 4.5t-19 9t-15 14t-4.5 20.5z" />
<glyph unicode="`" horiz-adv-x="997" d="M170 1849q-3 38 14 49t54 11q16 0 36.5 -7.5t48 -25t49 -32.5t58 -45.5t56 -47t61.5 -53t57 -49.5q113 -94 113 -146q0 -24 -14 -31.5t-44 -5.5q-11 1 -24.5 5.5t-33 15l-32.5 17.5t-38.5 22.5t-34.5 21.5q-162 95 -220 142q-100 83 -106 159z" />
<glyph unicode="a" horiz-adv-x="968" d="M76 156q0 67 52 191t124.5 243.5t159 208.5t147.5 90q26 0 44.5 -12.5t17.5 -40.5q-1 -24 -30 -57t-83.5 -87.5t-91.5 -101.5q-67 -83 -132 -219.5t-65 -173.5q0 -23 6.5 -32.5t26.5 -8.5q33 2 107 67.5t133.5 136.5t60.5 91q1 24 18.5 41.5t34.5 23.5t29 6 q16 0 40.5 -18t29.5 -51q22 -111 51 -213q9 -31 25.5 -79.5t24 -74t7.5 -35.5q0 -39 -25.5 -68.5t-52.5 -29.5q-89 0 -151 344q-66 -102 -177.5 -201.5t-191.5 -99.5q-57 0 -98 49.5t-41 110.5z" />
<glyph unicode="b" horiz-adv-x="946" d="M180 123q0 380 21 893q3 44 3 100v52t-0.5 46t-0.5 44q1 22 1 46q0 46 3 79t8.5 60.5t16 41.5t26.5 14q45 0 63.5 -29t18.5 -98q0 -19 -4 -409q-2 -73 -6 -216.5t-6 -250.5q60 109 182 214t188 105q42 0 72 -15t46.5 -36.5t25.5 -55.5t11.5 -62.5t2.5 -67.5 q0 -94 -44 -204.5t-103 -193.5t-117 -139t-88 -57q-38 -1 -54 25t-16 65q0 23 33 63.5t80 89t63 72.5q48 69 78.5 142t32.5 118q0 20 1 39t-11.5 33.5t-38.5 15.5q-17 1 -47 -20t-66.5 -58.5t-73.5 -94.5t-67.5 -123.5t-50 -152.5t-19.5 -173q0 -78 -86 -78q-27 0 -44 15.5 t-23.5 45.5t-8.5 53.5t-2 61.5z" />
<glyph unicode="c" horiz-adv-x="815" d="M109 193q0 104 56.5 216t133 191t152.5 130.5t118 51.5q26 0 42.5 -11t15.5 -38q-2 -28 -22 -50.5t-67 -57.5t-69 -54q-66 -56 -130.5 -158t-64.5 -167q0 -32 29 -58q28 -26 65 -26h3q33 1 91.5 38t111.5 81.5t109.5 82.5t84.5 39q12 0 20.5 -2.5t15.5 -12.5t7 -28 q0 -17 -47.5 -72t-116.5 -116.5t-159.5 -110.5t-163.5 -51h-9q-19 0 -47 6q-34 8 -71 27t-62.5 58.5t-25.5 91.5z" />
<glyph unicode="d" horiz-adv-x="1056" d="M147 190q0 66 27 154t88 180q73 109 190.5 195.5t178.5 91.5q14 1 30.5 -0.5t36.5 -6.5q18 -4 32 -16q15 -13 15 -34q0 -78 -77 -78q-52 -2 -142.5 -67t-152.5 -158q-70 -107 -70 -234q0 -41 37 -41q29 1 74 32t114 90t107 87q17 12 46.5 36t49 38t27.5 18q0 92 -2 247.5 t-2 377.5q0 246 7 296q9 68 43 68h7q35 -5 47.5 -16t13.5 -45q2 -59 2.5 -111.5t1 -117t1.5 -111.5q3 -186 16 -485t16 -424q0 -30 -4.5 -57.5t-19 -49.5t-37.5 -18q-31 3 -51.5 27t-29.5 56t-11 78q-2 32 -2 60v21q1 35 3 74q0 3 0.5 4.5t0.5 4v4.5q-21 -17 -66.5 -67.5 t-73.5 -75.5q-14 -12 -55.5 -50t-58 -52t-52 -41.5t-57 -39t-50 -22t-54.5 -10.5h-4q-53 0 -95 53q-44 55 -45 135z" />
<glyph unicode="e" horiz-adv-x="905" d="M117 424q0 25 45.5 97t112 150.5t154.5 139.5t161 61q18 0 30.5 -15t10.5 -34q-1 -15 -41.5 -50.5t-101.5 -82.5t-87 -72q-22 -22 -47 -64.5t-24 -57.5q0 -6 4 -12.5t8 -6.5q30 1 98.5 28.5t125.5 54.5q55 26 63 26q11 0 27 -16q14 -14 14 -31q0 -33 -11.5 -69t-24 -59.5 t-36.5 -64.5q-10 -18 -34 -57t-35.5 -60t-27 -51.5t-22 -54.5t-6.5 -45q0 -22 20 -37.5t44 -15.5q53 0 121.5 38.5t121 84t97.5 84t55 38.5q26 0 42.5 -13.5t16.5 -33.5q0 -14 -56 -70.5t-131 -120.5t-159.5 -114.5t-132.5 -50.5q-94 0 -148.5 49.5t-54.5 146.5q0 93 92 273 q-70 -33 -141 -33q-64 0 -103.5 37t-39.5 84z" />
<glyph unicode="f" horiz-adv-x="923" d="M143 588q0 100 203 100q27 0 57 -2q2 77 21 604q3 90 7.5 237t8.5 242t9 168q3 37 19 52.5t67 15.5q53 0 126.5 -93t136.5 -228t107.5 -299t44.5 -293q0 -7 0.5 -22t0.5 -24t-0.5 -22t-2.5 -21.5t-4.5 -17t-7.5 -13t-12 -5.5h-3q-18 0 -41 49q-25 53 -44 114 q-9 31 -39.5 142.5t-47.5 163.5t-60.5 143t-100.5 170q-15 -197 -21 -481q-1 -51 -4 -128.5t-3 -113.5q-1 -8 -1 -17q0 -36 2 -100q1 -18 1 -43q0 -30 -2 -70q-1 -52 -1 -83v-21q220 -6 279 -8q73 -4 73 -45q-1 -34 -71 -60.5t-143.5 -38t-145.5 -16.5q2 -87 14 -228 q10 -122 10 -159v-10t-1.5 -26.5t-2.5 -29.5t-5 -23.5t-11 -23t-19.5 -12.5t-29.5 -6q-27 0 -54 82t-42 201q-15 112 -15 214v13q-14 1 -51.5 1t-67.5 2t-63 8t-51.5 21.5t-18.5 39.5z" />
<glyph unicode="g" horiz-adv-x="860" d="M197 -616q0 75 25.5 161.5t73.5 196.5t50 115q-2 5 -20.5 57t-26 75.5t-25 79t-26 99t-19.5 103.5t-15.5 123t-4.5 128q0 85 38.5 164t93 129.5t110.5 80.5t94 30q43 0 43 -47q1 -33 -29 -57t-75.5 -48t-65.5 -45q-19 -21 -31 -43t-17.5 -50t-7.5 -45.5t-3.5 -54.5 t-2.5 -51v-22q0 -197 86 -414q19 33 88.5 143.5t104.5 172.5q59 102 119 102q8 0 14.5 -1t11 -4t7.5 -5.5t4.5 -8t2.5 -8.5q1 -1 1 -5l-1 -14q0 -2 -1.5 -10.5t-1.5 -9.5q-3 -21 -60 -123t-131.5 -230.5t-99.5 -176.5q6 -42 32 -145t42 -200q13 -77 13 -141q0 -17 -1 -32 q-5 -90 -53 -153t-130 -64h-12q-56 0 -99 32q-48 37 -71.5 94.5t-23.5 121.5zM350 -604q0 -16 14.5 -69t34.5 -54q13 0 32.5 26t19.5 46q0 43 -19 154t-22 136q-19 -43 -39.5 -132t-20.5 -107z" />
<glyph unicode="h" horiz-adv-x="962" d="M180 233v467q-2 121 -2 231q0 235 10 417q1 28 19.5 56t34.5 28q33 0 50.5 -20.5t18.5 -84.5q1 -41 9.5 -236.5t9.5 -271.5q2 -52 2 -317q64 85 107 118.5t110 34.5h5q45 1 101 -69q59 -74 117 -195q53 -104 82 -192q24 -73 24 -108q0 -7 -1 -13q-4 -20 -6.5 -28.5 t-9 -19.5t-17.5 -15q-9 -3 -22 -3h-7q-21 1 -38 12.5t-28.5 27.5t-23 42.5t-18 47.5t-16 53.5t-15.5 50.5q-19 58 -41.5 106t-51.5 85t-55 38h-1q-51 -1 -108 -93q-58 -94 -91 -222q-13 -52 -38.5 -79.5t-51.5 -27.5q-38 0 -48 33.5t-10 146.5z" />
<glyph unicode="i" horiz-adv-x="600" d="M119 1120q0 7 -0.5 16.5t0.5 22.5q2 33 62.5 98.5t90.5 65.5q29 0 43.5 -16.5t12.5 -44.5q-3 -35 -73.5 -108t-94.5 -73q-20 0 -30 12.5t-11 26.5zM190 815q4 24 16 43t32 19q26 0 45.5 -38t30.5 -101.5t17 -126t9 -130.5q2 -57 14 -183q11 -109 11 -162v-15 q-5 -109 -52 -109q-24 0 -41.5 14.5t-27.5 43.5t-16.5 60.5t-9 77t-3 81t-1 85.5t-1.5 77q-2 56 -10 144t-12 146q-2 33 -2 53q0 14 1 21z" />
<glyph unicode="j" horiz-adv-x="829" d="M-16 -176q0 23 21 37q24 16 48 16q20 0 77 -87q59 -89 140 -226t115 -187q-20 347 -20 754q0 56 -1.5 142.5t-1.5 146.5q-1 29 -1 62.5t1 69.5q0 73 4 121.5t11.5 92t22 65t34.5 21.5q15 0 26 -3.5t17.5 -12t10.5 -16t5 -22t1.5 -22.5t0 -24.5t-0.5 -22.5 q0 -17 -3.5 -230t-3.5 -278q1 -230 15 -529q11 -245 11 -390q0 -33 -1 -60q0 -5 -0.5 -21t-1 -22.5t-1 -21t-2.5 -21.5t-4.5 -18t-7 -16.5t-10 -11.5t-13 -8.5t-17.5 -2.5q-36 0 -153 169t-217.5 347.5t-100.5 208.5zM283 1147q0 33 58.5 98.5t88.5 65.5q29 0 44 -17 q13 -15 13 -39v-6q-1 -35 -69 -107.5t-92 -72.5q-15 0 -24.5 6t-13 19.5t-4.5 23.5t-1 29z" />
<glyph unicode="k" horiz-adv-x="974" d="M74 12q0 24 9 73.5t15 111.5q1 9 21 178.5t24 275.5q6 142 6.5 389t2.5 316q1 56 22.5 79t50.5 23q27 0 40.5 -23.5t13.5 -58.5q0 -184 8 -688v-32q0 -152 -25 -312q6 6 47.5 51.5t79 86.5t92 100t100 106.5t89 91t72 68t36.5 24.5q33 0 43 -9.5t10 -39.5 q0 -28 -32 -79.5t-90 -118.5t-112 -125.5t-126 -134t-104 -111.5q26 -6 78 -17t85.5 -18.5t80 -18.5t76.5 -21t59 -22.5t43 -26.5t14 -28q0 -44 -35.5 -70t-85.5 -26q-15 0 -83 16.5t-166.5 40t-162.5 35.5q-29 -61 -64.5 -106t-66.5 -45q-65 0 -65 65z" />
<glyph unicode="l" horiz-adv-x="575" d="M197 1413q2 39 20.5 66.5t56.5 27.5q15 0 25 -14.5t16 -47t9 -72.5t4.5 -104.5t2.5 -128t3 -157.5t6 -180q2 -62 13 -241.5t19 -326.5q6 -107 6 -152q0 -17 -1 -26q-3 -35 -29 -64.5t-57 -29.5q-36 0 -56 170t-22 340l-2 170q-2 73 -5 185t-7 323q-3 141 -3 210 q0 35 1 52z" />
<glyph unicode="m" horiz-adv-x="1284" d="M135 758q0 78 70 78q24 0 42 -25t32.5 -87t20.5 -100t19 -130q3 -23 5 -35q15 32 23.5 47.5t22.5 34t30.5 26t37.5 6.5q24 0 47.5 -15t41 -34.5t37.5 -54.5t31.5 -60t31 -68t28.5 -62q18 49 39.5 94t49 91t60 73.5t62.5 27.5q53 0 170 -233q13 -25 33.5 -63t34 -63.5 t27.5 -53.5t21 -47.5t7 -30.5q0 -29 -18.5 -51.5t-50.5 -22.5q-25 0 -49.5 16.5t-47.5 50t-41.5 67t-42.5 83.5q-4 9 -29 62.5t-36 72.5q-11 -12 -35 -69.5t-47.5 -116t-55.5 -106.5t-59 -48q-29 0 -62 54t-57 119t-50 119q-25 53 -39 52h-1q-18 -1 -30.5 -42t-21.5 -99.5 t-20 -117.5t-32 -100t-51 -42q-36 0 -54 32.5t-24 135.5q-18 231 -37 373q-5 39 -15 100t-14 96t-4 66z" />
<glyph unicode="n" horiz-adv-x="999" d="M156 754q1 21 24 37t41 16h1q38 0 66 -84q28 -85 39.5 -177.5t12.5 -164.5q22 40 46 79t58 87t67 78t58 30q23 0 46 -17.5t48 -54.5t43.5 -68.5t47.5 -87t45 -83.5q8 -15 28 -48.5t29 -51t21.5 -43.5t18 -45.5t5.5 -36.5q0 -43 -21 -65.5t-53 -20.5q-38 3 -63.5 41 t-63.5 124q-5 13 -8 19q-62 131 -127 234q-120 -191 -180 -320q-26 -55 -53.5 -87t-65.5 -32q-20 0 -35 10.5t-23.5 32.5t-13.5 44t-6.5 58.5t-1.5 61.5t1 67t1 62q0 80 -18 226q-15 125 -14 168v12z" />
<glyph unicode="o" horiz-adv-x="894" d="M115 324q0 44 14.5 97t47.5 112t79.5 106.5t118.5 79t157 31.5q44 0 90.5 -23.5t81 -56.5t56.5 -68.5t22 -60.5q0 -152 -47 -272t-139 -190.5t-215 -70.5q-62 0 -114.5 31t-84.5 79t-49.5 102t-17.5 104zM270 315q0 -43 37 -105.5t82 -62.5q56 0 100 28.5t69 69.5 t41.5 94t22 95t5.5 78q0 49 -38.5 77.5t-92.5 28.5q-29 0 -66.5 -21.5t-74 -58.5t-61 -96.5t-24.5 -126.5z" />
<glyph unicode="p" horiz-adv-x="843" d="M118 608q-1 6 -1 11t1 9q0 7 1.5 18t5 17t8.5 13.5t12 11.5t17 7.5t22 4.5q22 1 38.5 -10t25 -30.5t12.5 -38t6 -39.5q36 69 155.5 155t196.5 86q43 0 74.5 -15t48 -37t26.5 -54t12.5 -57.5t2.5 -57.5q0 -88 -31.5 -183.5t-78 -172.5t-98 -141t-94.5 -99t-64 -35 q-12 0 -33.5 35.5t-22.5 59.5q-1 13 27.5 46.5t70.5 81t84 103.5t71.5 127t29.5 137q0 31 -23.5 71t-46.5 40q-48 0 -132.5 -78.5t-116.5 -179.5q-18 -52 -18 -175t18 -317q7 -76 18 -183.5t17 -169.5t6 -81q0 -50 -15.5 -86.5t-40.5 -36.5q-82 0 -96 172q-4 53 -18.5 198 t-18.5 191q-13 135 -30 348.5t-23 274.5q-1 5 -2 19t-2 20.5t-1 19.5z" />
<glyph unicode="q" horiz-adv-x="1077" d="M117 160q0 89 75.5 209.5t177 219t206 168t161.5 70.5q21 0 44 -4.5t48 -24.5t23 -53q-1 -14 -7 -23.5t-12.5 -14.5t-20.5 -7.5t-23 -3t-28.5 -0.5h-27.5q-43 -1 -155 -98.5t-210 -224t-98 -193.5v-15.5v-15t0.5 -11.5t3 -11t6 -7t9.5 -5.5t14 -1.5q37 0 140 88.5 t175 175.5q29 34 52 80t39 66t45 20q20 0 35.5 -5t24 -15t14 -20t7 -25t2 -23.5t0 -23t-0.5 -17.5q0 -11 -8 -183t-9 -272v-40q0 -146 12 -353q36 53 104 173t114.5 188t72.5 69q27 -2 38 -10.5t11 -34.5q0 -9 -4 -22.5t-13.5 -34t-16 -32.5t-21 -39.5t-18.5 -35.5 q-38 -75 -99 -188.5t-106 -204.5q-2 -4 -8.5 -16.5t-9.5 -18t-10 -17t-11 -18t-11 -16t-13 -14.5t-13.5 -11t-15 -8.5t-15.5 -3.5h-4q-21 0 -38 23q-19 24 -31.5 73.5t-21.5 110.5t-13.5 142.5t-6.5 158t-3 168.5q0 33 -0.5 96.5t-0.5 113.5t1 87q-80 -97 -206 -191 t-204 -94q-70 0 -105.5 47t-35.5 154z" />
<glyph unicode="r" horiz-adv-x="724" d="M139 804q18 18 41 19q21 0 38 -8.5t31 -28t23.5 -36.5t19.5 -48.5t15 -48.5t13 -51q3 -11 4 -16q41 66 126 141t140 76h4q44 0 66 -22q24 -23 24 -60q0 -30 -29.5 -51t-77 -40t-65.5 -32q-38 -28 -77.5 -80.5t-61.5 -103.5q-17 -38 -21 -88q-2 -31 -2 -70v-52 q2 -50 2 -79v-19q-2 -42 -22.5 -74t-50.5 -32q-37 0 -59.5 29.5t-22.5 89.5q0 285 -7 352q-4 61 -38 167q-33 103 -33 123q0 22 20 43z" />
<glyph unicode="s" horiz-adv-x="790" d="M78 244q0 14 16 36.5t37 22.5q11 0 34.5 -18.5t60 -52.5t57.5 -50q13 -10 36.5 -30.5t41.5 -36.5t26 -21q-137 502 -137 582v22v27.5t1.5 29t3.5 32.5t7 30.5t11.5 31t16.5 25t22.5 21.5t30 12.5t38.5 5.5q35 0 109.5 -72t136.5 -163.5t65 -140.5q1 -8 1 -15 q0 -47 -34 -47q-29 0 -71 37t-76.5 81.5t-67.5 81.5t-47 38q-20 0 -20 -25q-1 -9 2.5 -30t7.5 -41.5t12 -55t11 -51.5q16 -71 33 -132.5t42.5 -141t38.5 -125.5q16 -59 19 -121q0 -47 -11.5 -77.5t-33.5 -31.5h-4q-38 -1 -134 67q-102 72 -192 163t-90 133z" />
<glyph unicode="t" horiz-adv-x="759" d="M-70 672q3 78 336 106q-3 56 -3.5 77.5t-1 52t-0.5 49.5t0.5 85.5t0.5 145.5q0 100 49 100q34 0 57 -32t25 -72q9 -294 15 -389q31 -1 215 -9q39 -1 61.5 -19t24.5 -42q1 -26 -31.5 -47.5t-71.5 -26.5q-93 -12 -192 -16q-2 -45 -6 -262q0 -35 4 -105q3 -47 3 -89 q0 -21 -1 -42q-10 -139 -68 -141h-1q-21 0 -37 28q-16 29 -24.5 92t-14 115t-7 144t-1.5 129.5t1 118.5v4v4q-142 -17 -270 -17q-62 0 -62 53v5z" />
<glyph unicode="u" horiz-adv-x="974" d="M135 553q0 97 19 147t75 50q20 0 32.5 -10t19 -33.5t8.5 -51.5t2 -73q0 -369 49 -369q34 0 89 53t108 127q28 39 61 98.5t53.5 90t36.5 30.5q54 0 71.5 -37t26.5 -129q2 -24 2.5 -70t4.5 -84.5t14 -82.5q9 -39 41 -81q29 -39 29 -63q0 -73 -78 -73q-51 0 -83 41t-48 102 q-13 49 -17.5 75t-7.5 85q-22 -29 -46 -58t-65 -70t-80 -71t-87 -51.5t-91 -21.5q-25 0 -45.5 15t-34.5 45t-25 62t-17 81t-9.5 84.5t-5 89.5t-2 81t-0.5 72z" />
<glyph unicode="v" horiz-adv-x="759" d="M70 692q0 24 16 42.5t45 15.5q37 -3 59.5 -34.5t51.5 -113.5q83 -243 127 -356q13 28 106 270q28 75 49 120t51 83t60 39h3q28 0 44 -16q18 -18 18 -46q0 -37 -106 -286q-25 -59 -83.5 -213t-94.5 -225q-36 -70 -63 -70h-1q-10 0 -21.5 10t-23 30.5t-22.5 43t-24.5 58 t-23.5 64t-24 72t-22.5 71.5t-22.5 74t-21 68q-5 16 -21.5 65.5t-22.5 69.5t-16 55.5t-13.5 61t-3.5 47.5z" />
<glyph unicode="w" horiz-adv-x="1150" d="M106 696q0 117 78 117q39 0 53 -33.5t21 -115.5l4 -52t5 -59.5t6 -56.5t8.5 -59.5t11 -51t15.5 -48t20 -34.5q35 48 67 96.5t46 71t29.5 42t28.5 25t33 5.5q44 0 101 -72.5t176 -271.5q12 21 25 58t22 68.5t23.5 84.5t21.5 77q26 88 52 129t77 41q23 0 39 -16t16 -39 t-24.5 -115.5t-61 -201t-87 -194t-93.5 -85.5q-41 0 -87.5 49t-80 107.5t-66 107.5t-48.5 49q-14 0 -45.5 -42t-64.5 -92t-77.5 -92t-81.5 -42q-42 0 -80.5 108t-60 257t-21.5 280z" />
<glyph unicode="x" horiz-adv-x="978" d="M84 647q0 23 15.5 42.5t31.5 19.5q27 0 74.5 -38t88 -81.5t100 -110.5t83.5 -92q29 47 95 180t117.5 218t80.5 85q23 0 34 -15.5t11 -59.5q0 -100 -223 -512q43 -48 109 -78.5t112 -32.5q26 -1 46 -25t20 -49q0 -45 -18.5 -61.5t-84.5 -16.5q-56 0 -135.5 36t-120.5 77 q-40 -62 -118 -133q-77 -70 -120 -70h-1q-40 1 -56.5 25.5t-13.5 60.5q2 28 90 114t107 116l-27 27t-39.5 40t-44.5 45.5t-50.5 53t-47.5 53t-45.5 55t-35 49t-26 45t-8.5 33.5z" />
<glyph unicode="y" horiz-adv-x="905" d="M66 705q0 108 61 108q27 0 45 -28t21 -80q5 -118 44 -274.5t74 -156.5q26 0 128.5 152t138.5 242q5 14 8.5 40.5t7 44t17.5 32t40 14.5q39 0 58 -26q19 -25 19 -60q0 -20 -2 -74q-1 -11 -1 -16q-3 -92 -3 -133v-13q1 -39 5.5 -138.5t5.5 -154.5q3 -117 26.5 -269 t45.5 -260.5t22 -125.5q0 -32 -13 -61t-40 -29q-48 0 -101.5 213.5t-74.5 462.5q-8 93 -12 295q-27 -41 -56 -82t-80.5 -106.5t-101 -106.5t-84.5 -41q-50 0 -97.5 111t-74 257t-26.5 263z" />
<glyph unicode="z" horiz-adv-x="882" d="M4 500q1 26 108.5 120t238.5 179t186 86h3q46 0 80 -31q36 -32 35 -76q0 -87 -42.5 -234t-100.5 -302t-66 -185q63 23 147.5 58t133 54t64.5 19q4 0 15.5 1t16 0t11.5 -4t10 -11q4 -11 4 -27q0 -21 -8 -38q-9 -19 -29 -34.5t-37.5 -26t-48.5 -26.5l-12 -6 q-89 -45 -224 -103t-186 -58q-26 0 -43 21t-14 46q2 30 28 104t72 194t72 194q17 51 41.5 115t36.5 98t12 49q0 22 -6 28t-31 9h-1q-20 -1 -206 -135q-188 -136 -211 -136q-49 0 -49 50v8z" />
<glyph unicode="{" horiz-adv-x="782" d="M246 717q-2 30 8.5 48.5t25 25.5t29 23.5t19.5 41.5q16 76 16 363q0 119 25 165q27 51 73 69.5t119 23.5q70 3 100.5 -11.5t24.5 -52.5q-3 -23 -24 -36t-50 -15q-12 -1 -31 -1.5t-25.5 -1t-17 -3.5t-17 -9t-13.5 -16q-13 -19 -14.5 -58t2.5 -73q0 -25 1.5 -99.5t1.5 -120 t-5 -99t-17 -80.5q-8 -17 -21 -29.5t-33 -26.5t-34 -28q2 -2 16.5 -11.5t19 -13t14 -11.5t14.5 -14.5t8 -13.5q5 -13 7 -34t2.5 -52t0 -52.5t-2 -59.5t-1.5 -49q-1 -37 -5.5 -125t-4.5 -125q0 -69 14 -97q29 -41 184 -32q29 0 46 -15.5t16 -42.5q-2 -31 -23 -59t-49 -29 q-2 0 -61 -1t-103 0t-84 5q-44 5 -73 84q-11 25 -11 131q1 45 7.5 154.5t7.5 159.5q0 12 2 50t2 67.5t-4 43.5q-4 19 -17.5 36t-27 28t-25 31.5t-12.5 46.5z" />
<glyph unicode="|" horiz-adv-x="528" d="M205 -227q3 126 4 537.5t8 543.5q1 48 2.5 203t4.5 279t9 180q3 55 66 55q30 0 48 -25.5t18 -66.5q0 -31 -7.5 -221t-7.5 -199q0 -270 -10 -529q-2 -40 -2 -182t0.5 -282t-0.5 -265v-27v-28.5t-0.5 -26.5t-2.5 -26.5t-5 -22.5t-8.5 -20.5t-12.5 -15t-17.5 -10.5t-23.5 -3 q-22 0 -36.5 13t-19.5 38t-6.5 47t-0.5 54z" />
<glyph unicode="}" horiz-adv-x="704" d="M35 -31q-1 27 16 42.5t45 15.5q156 -9 185 32q14 22 14 97q0 14 1.5 130t0.5 165q-4 144 14 194q3 7 8 13.5t14.5 14.5t14 11.5t19 13t16.5 11.5q-10 10 -44 35.5t-44 48.5q-15 34 -15.5 103.5t6.5 165.5t7 134q4 90 -17 117q-6 7 -10 12t-7.5 9.5t-8 7.5t-7 5t-8 3.5 t-7.5 2.5t-10 2t-11 1t-14.5 1t-16.5 1q-65 4 -74 51q-6 38 24.5 52.5t100.5 11.5q74 -5 120.5 -23.5t74.5 -69.5q22 -40 22 -166q0 -36 -4 -118.5t-4 -146t8 -101.5q5 -25 19.5 -41.5t29 -23.5t25 -25.5t8.5 -48.5q-1 -26 -12 -46.5t-25 -31.5t-27.5 -28t-17.5 -36 q-8 -31 -8 -108q1 -49 1 -181t1 -178q0 -108 -10 -131q-29 -79 -74 -84q-40 -4 -84 -5t-103 0t-61 1q-28 1 -48.5 29t-22.5 59z" />
<glyph unicode="~" horiz-adv-x="997" d="M143 1221q0 19 28 67.5t69 100.5q118 147 206 147q76 0 162 -90q13 -12 30.5 -30t29 -29.5t24 -23t22.5 -17.5t17 -7q19 -1 49 27.5t56.5 62.5t53.5 62.5t40 28.5q30 0 47 -11.5t20 -46.5q1 -18 -6 -38t-29.5 -49t-35 -43.5t-47.5 -53.5q-54 -64 -90 -93.5t-66 -29.5 q-14 0 -26.5 4.5t-26 16t-23 20.5t-27.5 28t-28 29q-12 12 -32.5 34t-32 33t-28 24.5t-32 19t-33.5 6.5q-40 0 -121 -96q-6 -7 -20.5 -25t-21.5 -26t-19.5 -21t-21 -19.5t-19.5 -12t-21 -5.5q-22 0 -34.5 19t-12.5 37z" />
<glyph unicode="&#xa8;" horiz-adv-x="933" d="M221 1284q0 48 55 199t93 151q18 0 43 -22.5t24 -57.5q-1 -27 -15.5 -69t-31 -75t-36.5 -71t-23 -45q-11 -26 -30.5 -46.5t-37.5 -20.5q-19 0 -30 16t-11 41zM424 1270q0 48 54.5 199t92.5 151q18 0 43.5 -22.5t24.5 -57.5q-1 -27 -15.5 -69t-31.5 -75t-36.5 -70.5 t-23.5 -45.5q-11 -27 -30 -47.5t-37 -20.5t-29.5 16.5t-11.5 41.5z" />
<glyph unicode="&#xa9;" horiz-adv-x="1019" d="M53 979q-1 102 42.5 213t84.5 154q53 58 121 85t174 42q325 59 486 -365q121 -355 -54 -576q-131 -174 -446 -143q-81 10 -158.5 78t-130 159.5t-85 186.5t-34.5 166zM188 975q-6 -62 43.5 -173.5t126.5 -206t138 -103.5q115 -21 193 19t136 124q56 80 64.5 174.5 t-25.5 206.5q-44 184 -147 277.5t-252 66.5q-252 -43 -277 -385zM291 952q0 80 40 141.5t91.5 88.5t97.5 26q39 -1 78.5 -10t69 -30.5t22.5 -49.5q-9 -31 -51 -31q-18 0 -57 7.5t-54 7.5q-35 0 -58 -11.5t-33.5 -35t-14 -46.5t-4.5 -59t29.5 -68t64.5 -32q24 0 58 3t61 1 q70 -5 84 -23q3 -5 4 -10q10 -32 -5.5 -51.5t-49 -25.5t-66.5 -7.5t-72 -0.5q-22 1 -32 1q-91 0 -147 58.5t-56 156.5z" />
<glyph unicode="&#xab;" horiz-adv-x="1341" d="M184 494q0 4 88 128.5t191 251.5t133 127q16 0 29 -2.5t21.5 -5t14.5 -9t9 -10t4.5 -13t1.5 -12v-13.5v-12q0 -50 -45 -124.5t-98.5 -135t-98.5 -114.5t-45 -69q0 -65 270 -260q4 -4 5.5 -13t-4 -27.5t-19.5 -39.5q-10 -13 -18 -17.5t-12.5 -3.5t-13.5 4t-17 3 q-34 0 -129.5 65t-181 155t-85.5 147zM645 498q0 43 74 170t166 239.5t135 112.5q29 0 48 -17.5t15 -50.5q-3 -31 -31 -80.5t-65.5 -100t-74 -100.5t-62 -93.5t-25.5 -67.5q0 -5 82 -79t164 -153.5t82 -99.5q0 -9 -19 -36t-32 -27q-38 0 -149.5 77t-209.5 171.5t-98 134.5z " />
<glyph unicode="&#xad;" d="M327.5 441q5.5 19 28.5 26l34 8q33 8 41.5 9.5t45 8.5t58.5 9.5l66 7.5t84 6.5t95.5 3.5t116.5 2q46 0 100.5 -7t102 -26.5t45.5 -46.5q-2 -42 -96 -47q-23 0 -69 0.5t-83.5 0.5t-67.5 -1q-49 -1 -203.5 -15.5t-174.5 -14.5q-8 0 -31 -1t-34 -0.5t-26 3.5t-22.5 11.5 t-9.5 22.5q-6 21 -0.5 40z" />
<glyph unicode="&#xae;" horiz-adv-x="1058" d="M51 1030q-1 103 42 214t85 153q53 58 121 85t172 42q170 31 291 -68t196 -297q120 -353 -53 -575q-134 -175 -446 -144q-82 10 -159.5 78t-129.5 159.5t-84.5 186.5t-34.5 166zM186 1026q-7 -61 43 -173t127 -206.5t138 -103.5q115 -21 193 19t134 124q57 80 66 174.5 t-25 206.5q-46 184 -148.5 277.5t-250.5 66.5q-132 -23 -198.5 -119.5t-78.5 -265.5zM319 1102q0 43 0.5 73t4.5 55t6 40t12 28t14.5 18.5t21.5 11.5t25 8t33 7q133 28 211 -53q55 -57 58 -125q0 -12 1.5 -32t2.5 -31.5t-2 -27t-11 -26t-24.5 -21.5t-42.5 -19 q12 -29 49.5 -75.5t48.5 -62.5q8 -13 23 -35.5t23.5 -35.5t18 -30.5t13.5 -31.5q10 -35 -13 -46.5t-47 3.5q-1 1 -19.5 12.5t-21 13.5t-18.5 12.5t-20.5 14t-17.5 13t-19 15.5t-16 15.5t-18 18t-15 18.5q-16 26 -42 63t-53 79q0 -31 -2 -60t-2 -53q-1 -22 11 -84.5t12 -73.5 q0 -13 -24 -18.5t-42 -5.5q-16 0 -49 36.5t-37 63.5q-33 213 -33 328zM461 1204q-3 -26 1.5 -63t4.5 -58q17 -2 35.5 -7t25.5 -6t15.5 2.5t17.5 14.5q24 33 0 78q-13 27 -30.5 33t-69.5 6z" />
<glyph unicode="&#xbb;" horiz-adv-x="1341" d="M184 178q0 20 82 99.5t164 153.5t82 79q0 24 -25.5 67.5t-62 93.5t-74 100.5t-65.5 100t-31 80.5q-4 33 15 50.5t48 17.5q43 0 135 -112.5t166 -239.5t74 -170q0 -40 -97.5 -134.5t-209 -171.5t-149.5 -77q-13 0 -32.5 27t-19.5 36zM661.5 936q-0.5 10 0 13.5t2 12 t4.5 12.5t8.5 10.5t14 9t21.5 5t29 2.5q30 0 133 -127t191 -251.5t88 -128.5q0 -57 -85.5 -147t-180.5 -155t-129 -65q-9 0 -21 -4.5t-20 -1.5t-21 20q-14 21 -19.5 39.5t-4 27.5t5.5 13q270 195 270 260q0 12 -29.5 49t-71.5 85.5t-84 101.5t-71.5 109.5t-29.5 97.5 q0 2 -0.5 12z" />
<glyph unicode="&#x2c6;" horiz-adv-x="933" d="M135 897q0 30 20 62t64.5 85t67.5 86q172 242 225 336q20 35 29 50t24 34t27.5 25.5t28.5 5.5q87 -2 167 -631q1 -9 4.5 -29.5t4.5 -31t-1.5 -26.5t-10.5 -24t-25.5 -14t-44.5 -6q-94 0 -97 90q-2 23 -13.5 88.5t-27.5 148t-20 107.5q-44 -78 -181 -244t-171 -169 q-70 -6 -70 57z" />
<glyph unicode="&#x401;" horiz-adv-x="933" d="M86 1028q-2 17 2.5 30t18 24.5t24.5 18t33 17.5q10 154 67 154q19 0 31.5 -9t18 -26.5t7.5 -31.5t3 -34q56 20 148 62t162 72.5t95 33.5q24 1 47 1.5t39.5 -13t16.5 -41.5q0 -24 -33.5 -53.5t-95.5 -62t-119.5 -58.5t-136.5 -60t-115 -51q24 -306 33 -387q80 38 214 90.5 t159 53.5q21 1 37 -19.5t16 -40.5q0 -26 -47.5 -64.5t-124.5 -79t-129.5 -66t-106.5 -48.5q24 -212 31 -305q26 8 55.5 21t50 23.5t59 31t60.5 31.5q18 9 77 42.5t92 47.5t52 12q44 -3 47 -49q2 -29 -67.5 -88.5t-164 -117.5t-198 -102t-161.5 -44q-31 0 -50.5 26.5 t-19.5 59.5q0 36 20 53q-13 202 -32 381q-13 105 -22 206t-15 187t-8 107q-25 -9 -46 13t-24 52zM221 1468q0 48 55 199.5t93 151.5q18 0 43 -22.5t24 -57.5q-1 -27 -15.5 -69t-31 -75t-36.5 -71t-23 -45q-11 -27 -30.5 -47.5t-37.5 -20.5q-19 0 -30 16t-11 41zM424 1454 q0 48 54.5 199t92.5 151q18 0 43.5 -22.5t24.5 -57.5q-1 -27 -15.5 -69t-31.5 -75t-36.5 -70.5t-23.5 -45.5q-11 -27 -30 -47t-37 -20q-19 0 -30 16t-11 41z" />
<glyph unicode="&#x402;" horiz-adv-x="831" d="M-307 1116q0 6 2.5 12t9 11.5t12.5 9.5t17 9t18.5 8t21.5 7t21.5 6.5t23 6.5t21.5 6q27 7 73 19.5t74.5 20t70 21t81.5 29.5q10 154 68 154q19 0 31 -9t17.5 -27t7.5 -31t3 -34q56 20 148.5 62t162.5 72.5t95 33.5q24 1 46.5 1.5t39 -13t16.5 -41.5q0 -24 -33.5 -53.5 t-95.5 -62t-119.5 -58.5t-136.5 -60t-115 -51q-6 -15 -2 -86.5t2 -132.5q-1 -33 -1 -81.5t0.5 -107t0.5 -81.5q26 9 57 21.5t45 17.5t37 10.5t48.5 7.5t64.5 2q29 0 72 -13.5t89.5 -39.5t79 -75t32.5 -111q0 -55 -39.5 -154t-98 -196t-134.5 -168.5t-140 -71.5q-23 0 -38 18 t-15 43q1 22 3.5 36.5t9.5 32.5t23.5 27.5t41.5 10.5q38 1 99 71t109 170t48 174q0 38 -41.5 62t-91.5 24q-79 0 -128.5 -15t-132.5 -64q1 -30 7.5 -151t11 -227t4.5 -147q0 -37 -19.5 -62t-48.5 -28t-56 34t-30 81q-1 10 -6 72t-6 80t-3.5 85t-1.5 125.5t3 160.5t6 229 q8 245 8 378q-255 -91 -364 -82q-44 3 -64.5 17t-21.5 55z" />
<glyph unicode="&#x403;" horiz-adv-x="647" d="M86 1126q-4 22 8 40t26 27t44 24q10 153 67 153q19 0 31.5 -9t18 -26.5t7.5 -31t3 -33.5q56 20 148 62t162 72.5t95 33.5q24 1 47 1.5t39.5 -13.5t16.5 -42q0 -24 -33.5 -53.5t-95.5 -61.5t-119.5 -58t-136 -60t-115.5 -51q4 -46 15 -171t20.5 -249.5t15.5 -239.5 q19 -315 19 -424q0 -73 -70 -73q-31 0 -49.5 20.5t-18.5 52.5q0 283 -18 447q-13 104 -23 231t-17 234.5t-9 132.5q-25 -9 -49 12.5t-29 52.5zM262 1487q0 43 193 203q28 24 71.5 63.5t65.5 58.5t51.5 41t52 30.5t45.5 8.5q34 0 51.5 -12.5t16.5 -46.5q-1 -21 -16.5 -44 t-61.5 -60t-72.5 -56.5t-105.5 -75.5q-64 -46 -140 -93t-100 -48q-17 -1 -28.5 -0.5t-17 7.5t-5.5 24z" />
<glyph unicode="&#x404;" horiz-adv-x="827" d="M98 338q0 76 4 135.5t19.5 163.5t56.5 215.5t105 218.5q48 81 118.5 150.5t134 109t112.5 61t69 21.5q30 0 51.5 -16.5t22.5 -44.5q1 -15 -12 -30t-28.5 -25.5t-47.5 -30t-52 -33.5q-79 -57 -149 -123.5t-103 -122.5q-68 -121 -101.5 -297.5t-33.5 -302.5q0 -197 68 -197 q30 0 71 16t73.5 34.5t100 60t111.5 66.5q57 34 105 34q13 1 20.5 -4.5t7.5 -13.5q-1 -26 -57.5 -82.5t-136 -114t-178.5 -101.5t-173 -44q-49 0 -86 33.5t-55.5 83.5t-27.5 96.5t-9 83.5zM305 635q-8 60 78 90q48 16 190.5 84.5t174.5 71.5q23 1 44 2.5t35.5 -11.5 t14.5 -41q0 -39 -102 -108t-212 -119.5t-141 -50.5q-27 0 -53 26.5t-29 55.5z" />
<glyph unicode="&#x405;" horiz-adv-x="1040" d="M66 287q0 9 0.5 14t2 11.5t5 10.5t10 6.5t16.5 2.5q21 0 78.5 -41.5t149 -116t125.5 -100.5q-10 35 -40 122t-40 132q-5 21 -26.5 110.5t-30 134t-18 144.5t-9.5 213q0 115 22 222.5t70 184t111 76.5q177 0 264 -165t78 -466q-6 -208 -64 -219q-35 -6 -62.5 34t-25.5 75 q0 4 3.5 49.5t6 96.5t2.5 104t-8.5 105t-26.5 103t-53.5 82t-83.5 31q-40 0 -61 -100.5t-21 -286.5q0 -140 22 -265.5t81 -307.5q17 -53 85 -178.5t68 -165.5q0 -45 -18 -78t-47 -33q-39 0 -131 44.5t-189 109t-171 150t-74 155.5z" />
<glyph unicode="&#x406;" horiz-adv-x="528" d="M175 1009q1 21 1 76v33t0.5 33.5t1 30.5t2.5 29t4.5 24.5t7.5 21.5t11.5 15.5t15.5 10.5t21 3q21 -1 36.5 -38t26.5 -111.5t18 -139t15.5 -170.5t13.5 -155q6 -69 21 -183.5t22.5 -195.5t3.5 -141q-5 -58 -29.5 -92t-66.5 -35q-15 0 -27 14t-20.5 42t-14 59.5t-9.5 77 t-7 82.5t-6 88t-6 83q-3 33 -8.5 100t-8 96t-7.5 91.5t-6 87.5t-4 83.5t-2 79.5z" />
<glyph unicode="&#x407;" horiz-adv-x="528" d="M78 1452q0 48 54.5 199t92.5 151q18 0 43.5 -22.5t24.5 -57.5q-1 -27 -15.5 -69t-31.5 -75t-36.5 -70.5t-23.5 -45.5q-11 -27 -30 -47t-37 -20q-19 0 -30 16t-11 41zM175 1009q1 21 1 76v33t0.5 33.5t1 30.5t2.5 29t4.5 24.5t7.5 21.5t11.5 15.5t15.5 10.5t21 3 q21 -1 36.5 -38t26.5 -111.5t18 -139t15.5 -170.5t13.5 -155q6 -69 21 -183.5t22.5 -195.5t3.5 -141q-5 -58 -29.5 -92t-66.5 -35q-15 0 -27 14t-20.5 42t-14 59.5t-9.5 77t-7 82.5t-6 88t-6 83q-3 33 -8.5 100t-8 96t-7.5 91.5t-6 87.5t-4 83.5t-2 79.5zM281 1438 q0 48 54.5 199t92.5 151q18 0 43.5 -22.5t24.5 -57.5q-1 -27 -15.5 -69t-31.5 -75t-36.5 -70.5t-23.5 -45.5q-11 -27 -30 -47.5t-37 -20.5t-29.5 16.5t-11.5 41.5z" />
<glyph unicode="&#x408;" horiz-adv-x="917" d="M82 516q-5 66 35 68q19 1 40.5 -12.5t45.5 -41t44.5 -54.5t50.5 -67t50 -65q49 -63 98 -112t74 -46q20 3 17 88q-1 72 -21 303t-24 287q-2 30 -9 108.5t-11.5 144.5t-4.5 100q0 55 11.5 87t43.5 31q25 -1 42.5 -7t34 -23.5t24.5 -54t8 -91.5q0 -102 16 -450 q4 -103 18.5 -281t14.5 -276q0 -87 -37.5 -138t-77.5 -51q-49 0 -108.5 50t-145.5 151q-90 105 -159 207.5t-70 144.5z" />
<glyph unicode="&#x409;" horiz-adv-x="1390" d="M76 29q0 17 39.5 178.5t105.5 399t123 411.5q52 161 102 289q26 66 42 92t38 26t36.5 -33.5t35.5 -113.5q118 -443 164 -578q104 46 242 99t178 53q22 0 51 -7t62 -24.5t60 -42.5t43.5 -66.5t14.5 -90.5q-1 -68 -132 -241t-280 -312q-29 -28 -64.5 -49.5t-57.5 -24.5 q-27 -3 -69.5 68.5t-72.5 154.5q-96 282 -102 301q-35 114 -83.5 303t-59.5 223q-13 -45 -57 -192.5t-89 -306t-80 -291.5q-17 -67 -24 -96t-13.5 -77t-7.5 -101q0 -26 -26 -41t-60 -13q-59 3 -59 103zM817 571q6 -19 18.5 -64.5t20 -70.5t20.5 -64t29 -75.5t35 -75.5 q57 55 88 85.5t90 94t91 113.5t36 86q5 44 -15 70t-65 26q-47 0 -98.5 -17t-133 -55.5t-116.5 -52.5z" />
<glyph unicode="&#x40a;" horiz-adv-x="1351" d="M35 459q0 22 10.5 35.5t29.5 17.5t37.5 5t43 1t37.5 2q6 402 14 537q20 301 102 301q17 0 28.5 -12t17.5 -36.5t9 -48.5t2 -62t-2 -61t-4 -61q-5 -234 -5.5 -289t6.5 -122.5t8 -100.5q175 26 370 99q-2 72 -12 207.5t-10 224.5q0 31 0.5 44.5t2 38t5.5 36t11 25t19 19 t29 5.5q43 0 57.5 -29t20.5 -125q3 -41 10 -403q56 43 164.5 94t151.5 51q22 0 51 -7t62 -24.5t60 -42.5t43.5 -66.5t14.5 -90.5q-1 -48 -77.5 -169t-189 -244t-198.5 -163q-18 -37 -63 -43q-27 -3 -51.5 33t-32.5 80q-54 252 -64 401q-65 -27 -194.5 -64t-194.5 -63 q2 -90 9.5 -210.5t7.5 -166.5q0 -38 -20 -65t-60 -27q-45 0 -63.5 69t-24.5 244q-2 36 -2.5 73t-1.5 54q-164 -9 -164 99zM885 565q4 -28 10 -107t16 -141t29 -114q63 61 121 121t121.5 144.5t68.5 131.5q5 44 -15 70t-65 26q-47 0 -85.5 -14.5t-105 -57.5t-95.5 -59z" />
<glyph unicode="&#x40b;" horiz-adv-x="890" d="M-307 1116q0 6 2.5 12t9 11.5t12.5 9.5t17 9t18.5 8t21.5 7t21.5 6.5t23 6.5t21.5 6q27 7 73 19.5t74.5 20t70 21t81.5 29.5q10 154 68 154q19 0 31 -9t17.5 -27t7.5 -31t3 -34q56 20 148.5 62t162.5 72.5t95 33.5q24 1 46.5 1.5t39 -13t16.5 -41.5q0 -24 -33.5 -53.5 t-95.5 -62t-119.5 -58.5t-136.5 -60t-115 -51q-6 -15 -2 -86.5t2 -132.5q-1 -33 -1 -81.5t0.5 -107t0.5 -81.5q26 9 57 21.5t45 17.5t37 10.5t48.5 7.5t64.5 2q29 0 72 -13.5t89.5 -39.5t79 -75t32.5 -111q0 -22 1 -74t1.5 -93t0 -96t-5.5 -96t-13 -78t-22.5 -57t-35.5 -20 q-28 0 -51 20t-23 59q0 30 7.5 82t10.5 111t-5 219q-2 34 -13 56t-31.5 31.5t-38.5 12t-46 2.5q-79 0 -128.5 -15t-132.5 -64q1 -29 12 -201t11 -225q0 -37 -19.5 -62t-48.5 -28q-28 -3 -54.5 33.5t-31.5 80.5q-6 63 -9 149.5t-3 141t2 187.5t2 176q1 68 4.5 195t3.5 183 q-255 -91 -364 -82q-44 3 -64.5 17t-21.5 55z" />
<glyph unicode="&#x40c;" horiz-adv-x="929" d="M115 295q5 52 55 102q4 86 4 705q0 26 1.5 57.5t6.5 76.5t17 74t30 29q33 0 48.5 -27t21.5 -120q8 -41 6 -329t-2 -294q131 144 238 344q57 107 93 196t38 124q4 63 28 102t58 39t50.5 -26.5t16.5 -69.5q0 -87 -48.5 -212t-125.5 -255q-30 -52 -65.5 -106t-63.5 -94.5 t-62.5 -86.5t-53.5 -70.5t-45 -57t-29 -36.5q110 -45 315 -122q16 -6 49 -17t57 -19.5t49 -20.5t38 -25.5t12 -28.5q0 -2 -0.5 -13t-1 -15t-2 -13.5t-3.5 -14t-6.5 -11.5t-10 -10.5t-14 -6t-19.5 -2.5q-53 0 -139.5 28t-198.5 74t-146 58q-1 -36 -4 -58t-12.5 -49.5 t-31.5 -40.5t-56 -12q-11 0 -19.5 4.5t-14 13.5t-8.5 18.5t-5 25t-2.5 27.5t-1.5 32t-2 33q-18 16 -30 44t-9 56zM373 1505q0 44 192 203q28 24 72 64t66 58.5t51.5 40.5t52 31t45.5 9q34 0 51.5 -13t16.5 -47q-2 -46 -105 -126q-33 -25 -151 -109q-64 -46 -140 -93 t-100 -48q-17 -1 -28.5 -1t-17 7t-5.5 24z" />
<glyph unicode="&#x40e;" horiz-adv-x="1017" d="M10 1178q0 31 20.5 57t47.5 27q12 1 38.5 -43.5t57.5 -111.5t67 -145t67 -145.5t58.5 -112.5t41.5 -45q59 0 233 304q34 56 101 179.5t102 176t55 51.5q43 -2 64.5 -16t21.5 -47q0 -67 -65 -340q-9 -41 -52.5 -232.5t-62.5 -271.5q-149 -633 -234 -635q-54 0 -57 41 q-2 37 18.5 125.5t58.5 225.5t50 186q62 240 98 425q-1 -2 -22 -34.5t-32 -49.5t-36.5 -55t-44.5 -61.5t-46 -57.5t-49.5 -55t-48 -42.5t-49 -31.5t-44.5 -10q-42 0 -130.5 173.5t-157.5 354.5t-69 216zM281 1401q1 20 124.5 94.5t255 140.5t156.5 68q32 3 51 -20.5 t19 -57.5q0 -16 -4.5 -29t-8 -20.5t-17 -17t-17 -11.5t-23 -10.5t-20.5 -9.5q-98 -48 -260.5 -118.5t-194.5 -70.5q-16 0 -24.5 1.5t-19 6.5t-14.5 18.5t-3 35.5z" />
<glyph unicode="&#x40f;" horiz-adv-x="1030" d="M154 29q0 36 20 53q-9 137 -12 381q-2 108 -2 222.5t1 232t1 163.5q0 60 15.5 117t45.5 57q37 0 57.5 -34.5t20.5 -73.5q0 -49 -1 -151t-1 -196t2 -186q8 -413 16 -516q54 14 120.5 28.5t107.5 25.5q68 17 207 59q-12 69 -23 272q-20 337 -10 615v42t0.5 42.5t2.5 36 t6 34t10.5 24t17.5 17t26 4.5q27 0 48.5 -17.5t21.5 -61.5q0 -117 16 -535q2 -50 7.5 -144t5.5 -127t-2 -143q0 -15 4.5 -35.5t8 -36t3.5 -31.5t-11.5 -29t-35.5 -21q-127 -42 -203 -62q0 -43 -4 -260t-4 -254q0 -46 -14.5 -78t-42.5 -32q-33 0 -57.5 27t-24.5 59 q0 29 7 218t11 271q-235 -63 -293 -63q-31 0 -50 26.5t-19 59.5z" />
<glyph unicode="&#x410;" horiz-adv-x="997" d="M76 29q0 17 39.5 178.5t105.5 399t123 411.5q52 161 102 289q26 66 42 92t38 26t36.5 -33.5t35.5 -113.5q10 -38 51.5 -212.5t67.5 -258.5q29 -92 94 -284t99.5 -301t31.5 -128q-6 -42 -13 -50q-12 -15 -48 -15q-27 0 -48.5 14t-39.5 45.5t-28.5 56t-27.5 72.5 q-8 23 -25.5 62t-23.5 59q-85 -26 -131.5 -38.5t-130.5 -27t-172 -18.5q-1 -8 -7.5 -43.5t-9 -54t-7 -51t-6.5 -63t-3 -62.5q0 -26 -26 -41t-60 -13q-59 3 -59 103zM283 381q36 5 67.5 11.5t61.5 16.5t50.5 17.5t49 22.5t40.5 21.5t43.5 24.5t39.5 23q-16 66 -69.5 264.5 t-73.5 261.5q-17 -59 -101 -313t-108 -350z" />
<glyph unicode="&#x411;" horiz-adv-x="831" d="M61 1192q-2 17 2.5 30t18 24.5t24.5 18t33 17.5q10 154 68 154q19 0 31 -9t17.5 -27t7.5 -31t3 -34q56 20 148.5 62t162.5 72.5t95 33.5q24 1 46.5 1.5t39 -13t16.5 -41.5q0 -24 -33.5 -53.5t-95.5 -62t-119.5 -58.5t-136.5 -60t-115 -51q-6 -15 -2 -86.5t2 -132.5 q-1 -33 -1 -81.5t0.5 -107t0.5 -81.5q26 9 57 21.5t45 17.5t37 10.5t48.5 7.5t64.5 2q29 0 72 -13.5t89.5 -39.5t79 -75t32.5 -111q0 -55 -41.5 -146.5t-102.5 -179t-138.5 -151.5t-141.5 -64q-23 0 -38 18t-15 43q2 37 28.5 67t75.5 36q36 4 93 62.5t103 146.5t46 161 q0 38 -41.5 62t-91.5 24q-79 0 -128.5 -15t-132.5 -64q1 -30 7.5 -151t11 -227t4.5 -147q0 -37 -19.5 -62t-48.5 -28t-56 34t-30 81q-1 10 -6 72t-6 80t-3.5 85t-1.5 125.5t3 160.5t6 229q8 245 8 378q-26 -9 -51.5 12.5t-30.5 53.5z" />
<glyph unicode="&#x412;" horiz-adv-x="890" d="M88 1098q-1 11 28.5 54.5t87 102.5t128 114.5t166 94.5t188.5 39q18 0 44.5 -9.5t57 -29t51 -57.5t19.5 -86q-2 -53 -33 -125t-87.5 -156.5t-98 -142t-106 -138.5t-70.5 -89q15 3 29.5 7t20.5 5.5t19 2.5t35 1q29 0 67 -12.5t78 -37.5t66 -73t23 -110q-1 -40 -37.5 -110 t-91.5 -138.5t-128 -119t-136 -50.5q-23 0 -38.5 18t-15.5 43q2 37 29 67t76 36q56 6 128.5 87t82.5 160q4 39 -22 59.5t-73 20.5q-22 0 -41 -2t-40.5 -9t-34 -11t-37.5 -17.5t-35 -19t-42.5 -25t-43.5 -26.5q2 -37 22.5 -254.5t18.5 -255.5q-5 -67 -72 -74q-29 -3 -56 34 t-30 81q-1 11 -6 72.5t-6 79.5t-3 84.5t-1.5 125t2.5 160.5t6 229q7 206 12 346q-42 -9 -71 7t-29 47zM311 688q69 79 153 185t170.5 237.5t86.5 181.5q0 23 -15.5 43.5t-39.5 20.5q-186 0 -347 -205q-6 -7 -4 -104t0 -150q-4 -148 -4 -209z" />
<glyph unicode="&#x413;" horiz-adv-x="647" d="M86 1126q-4 22 8 40t26 27t44 24q10 153 67 153q19 0 31.5 -9t18 -26.5t7.5 -31t3 -33.5q56 20 148 62t162 72.5t95 33.5q24 1 47 1.5t39.5 -13.5t16.5 -42q0 -24 -33.5 -53.5t-95.5 -61.5t-119.5 -58t-136 -60t-115.5 -51q4 -46 15 -171t20.5 -249.5t15.5 -239.5 q19 -315 19 -424q0 -73 -70 -73q-31 0 -49.5 20.5t-18.5 52.5q0 283 -18 447q-13 104 -23 231t-17 234.5t-9 132.5q-25 -9 -49 12.5t-29 52.5z" />
<glyph unicode="&#x414;" horiz-adv-x="1103" d="M-2 -5q-2 16 7 32t32 22q15 4 55 9t62 5q30 138 109 435.5t153 519.5q52 161 102 289q26 66 42 92t38 26t36.5 -33.5t35.5 -113.5q11 -40 51.5 -213.5t66.5 -257.5q29 -92 80 -246t84 -257.5t43 -147.5q13 -3 38.5 -6t43 -6.5t37 -11.5t29.5 -25.5t10 -43.5 q0 -11 -5 -31.5t-14 -50.5t-10 -34q-5 -17 -22 -80.5t-38.5 -137.5t-45.5 -153q-66 -205 -115 -205q-22 0 -35.5 15.5t-13.5 38.5q0 16 22 111t53 220.5t40 167.5q9 48 12 88q-35 0 -117 -5.5t-100 -6.5q-73 -2 -590 -53q4 -31 4 -103q0 -74 -2 -247t-2 -181q0 -23 -13 -38 t-36 -15q-24 0 -38 45t-29 131q-3 20 -5 29q-43 231 -43 346q0 14 -5 39.5t-7 41.5zM301 92q276 45 539 45q-25 62 -31 80q-96 282 -102 301q-35 114 -84 303t-60 223q-12 -43 -56 -192t-89 -307t-80 -291q-30 -119 -37 -162z" />
<glyph unicode="&#x415;" horiz-adv-x="933" d="M86 1028q-2 17 2.5 30t18 24.5t24.5 18t33 17.5q10 154 67 154q19 0 31.5 -9t18 -26.5t7.5 -31.5t3 -34q56 20 148 62t162 72.5t95 33.5q24 1 47 1.5t39.5 -13t16.5 -41.5q0 -24 -33.5 -53.5t-95.5 -62t-119.5 -58.5t-136.5 -60t-115 -51q24 -306 33 -387q80 38 214 90.5 t159 53.5q21 1 37 -19.5t16 -40.5q0 -26 -47.5 -64.5t-124.5 -79t-129.5 -66t-106.5 -48.5q24 -212 31 -305q26 8 55.5 21t50 23.5t59 31t60.5 31.5q18 9 77 42.5t92 47.5t52 12q44 -3 47 -49q2 -29 -67.5 -88.5t-164 -117.5t-198 -102t-161.5 -44q-31 0 -50.5 26.5 t-19.5 59.5q0 36 20 53q-13 202 -32 381q-13 105 -22 206t-15 187t-8 107q-25 -9 -46 13t-24 52z" />
<glyph unicode="&#x416;" horiz-adv-x="1253" d="M-20 78q0 17 33 54t90.5 91t74.5 72q74 77 138.5 159.5t84.5 131.5q-4 5 -32.5 40t-46 58t-56 82t-82.5 135q-79 135 -111 213t-32 164q0 42 17 69t51 27t58 -39t28 -102q1 -35 22 -84.5t78 -157.5q42 -78 69.5 -125t74.5 -110.5t93 -100.5q1 57 1 144.5t-0.5 208 t-0.5 184.5q0 92 19 119.5t63 27.5q23 0 38 -8t27.5 -42.5t12.5 -96.5q0 -64 -0.5 -184.5t-0.5 -208t1 -144.5q46 37 93 100t75.5 111.5t69.5 124.5q57 108 78 157.5t22 84.5q4 63 28 102t58 39t51 -27t17 -69q0 -85 -32 -163t-112 -214q-44 -76 -82.5 -135t-56 -82t-46 -58 t-32.5 -40q21 -50 90.5 -141t141.5 -166q20 -21 73.5 -68.5t85 -81.5t31.5 -51q0 -20 -2.5 -29.5t-16.5 -16.5t-42 -7q-22 0 -47 11.5t-60.5 39.5t-56 46.5t-66.5 61.5q-58 54 -127 134.5t-94 134.5q-5 -4 -26.5 -19.5t-30.5 -27.5q-1 -19 -1 -66.5t0.5 -122.5t0.5 -115 q0 -110 -62 -110q-38 0 -55.5 31.5t-17.5 97.5v285q-10 12 -49 47q-43 -93 -213 -252q-12 -12 -37 -35.5t-38.5 -36t-35 -31.5t-36.5 -30t-32 -22t-31.5 -16t-27.5 -5q-28 0 -42 7t-16.5 16.5t-2.5 29.5z" />
<glyph unicode="&#x417;" horiz-adv-x="901" d="M103 98q21 28 81 33q162 15 262 51q88 31 166 113.5t88 169.5q15 124 -54 201.5t-181 74.5q-15 0 -39.5 -2.5t-40.5 -3.5t-32.5 -0.5t-26.5 6.5t-13 17q-6 23 2.5 41.5t24 32t56 48.5t75.5 70q112 112 121 180q10 78 -46.5 114.5t-160.5 2.5q-29 -9 -111.5 -78t-99.5 -69 q-28 0 -44.5 16t-14.5 33q2 27 53.5 82t131 105.5t144.5 58.5q48 6 96 -2.5t94.5 -32.5t75.5 -76.5t29 -126.5q0 -175 -211 -311q86 -7 152.5 -38.5t105 -80t58 -106t18.5 -121.5q-1 -75 -29 -142.5t-67.5 -114.5t-91.5 -87t-94 -62.5t-82 -38.5q-137 -53 -262 -59 q-85 -5 -126 39q-31 33 -7 63z" />
<glyph unicode="&#x418;" horiz-adv-x="1128" d="M186.5 288q-2.5 156 1.5 216q5 146 5 425v296q0 99 90 102q19 1 32 -7t19.5 -17.5t9.5 -31t3.5 -34t0.5 -41.5q0 -24 0.5 -124.5t0.5 -194t-1 -156.5q-7 -329 -20 -406q99 161 270 502t205 445q14 44 58 66t89 20q58 -4 58 -66t-25.5 -370t-28.5 -384q-2 -61 4 -194.5 t5 -173.5q-2 -84 -20.5 -124t-57.5 -40q-21 0 -36.5 9t-22.5 19t-12 29.5t-5.5 27.5t-1.5 25q-1 19 -6 65.5t-8.5 110.5t-1.5 144q6 233 28 500q-31 -52 -170.5 -320t-189.5 -356q-20 -35 -48 -87.5t-40 -73t-31.5 -46.5t-38 -35.5t-43.5 -11.5t-40.5 7t-21.5 27.5t-7.5 35 t-0.5 40.5q1 26 -1.5 182z" />
<glyph unicode="&#x419;" horiz-adv-x="1128" d="M186.5 288q-2.5 156 1.5 216q5 146 5 425v296q0 99 90 102q19 1 32 -7t19.5 -17.5t9.5 -31t3.5 -34t0.5 -41.5q0 -24 0.5 -124.5t0.5 -194t-1 -156.5q-7 -329 -20 -406q99 161 270 502t205 445q14 44 58 66t89 20q58 -4 58 -66t-25.5 -370t-28.5 -384q-2 -61 4 -194.5 t5 -173.5q-2 -84 -20.5 -124t-57.5 -40q-21 0 -36.5 9t-22.5 19t-12 29.5t-5.5 27.5t-1.5 25q-1 19 -6 65.5t-8.5 110.5t-1.5 144q6 233 28 500q-31 -52 -170.5 -320t-189.5 -356q-20 -35 -48 -87.5t-40 -73t-31.5 -46.5t-38 -35.5t-43.5 -11.5t-40.5 7t-21.5 27.5t-7.5 35 t-0.5 40.5q1 26 -1.5 182zM369 1511q0 20 124 94.5t255.5 141t156.5 68.5q32 3 51 -20.5t19 -57.5q0 -14 -2 -25t-8.5 -20t-10.5 -15t-16 -13t-16 -9t-19 -9t-18 -8q-96 -47 -259.5 -117.5t-195.5 -70.5q-61 0 -61 61z" />
<glyph unicode="&#x41a;" horiz-adv-x="929" d="M115 295q5 52 55 102q4 86 4 705q0 26 1.5 57.5t6.5 76.5t17 74t30 29q33 0 48.5 -27t21.5 -120q8 -41 6 -329t-2 -294q131 144 238 344q57 107 93 196t38 124q4 63 28 102t58 39t50.5 -26.5t16.5 -69.5q0 -87 -48.5 -212t-125.5 -255q-30 -52 -65.5 -106t-63.5 -94.5 t-62.5 -86.5t-53.5 -70.5t-45 -57t-29 -36.5q110 -45 315 -122q16 -6 49 -17t57 -19.5t49 -20.5t38 -25.5t12 -28.5q0 -2 -0.5 -13t-1 -15t-2 -13.5t-3.5 -14t-6.5 -11.5t-10 -10.5t-14 -6t-19.5 -2.5q-53 0 -139.5 28t-198.5 74t-146 58q-1 -36 -4 -58t-12.5 -49.5 t-31.5 -40.5t-56 -12q-11 0 -19.5 4.5t-14 13.5t-8.5 18.5t-5 25t-2.5 27.5t-1.5 32t-2 33q-18 16 -30 44t-9 56z" />
<glyph unicode="&#x41b;" horiz-adv-x="997" d="M76 29q0 17 39.5 178.5t105.5 399t123 411.5q52 161 102 289q26 66 42 92t38 26t36.5 -33.5t35.5 -113.5q10 -38 51.5 -212.5t67.5 -258.5q29 -92 94 -284t99.5 -301t31.5 -128q-6 -42 -13 -50q-12 -15 -48 -15q-27 0 -48.5 14t-39.5 45.5t-28.5 56t-27.5 72.5 q-96 282 -102 301q-35 114 -83.5 303t-59.5 223q-13 -45 -57 -192.5t-89 -306t-80 -291.5q-17 -67 -24 -96t-13.5 -77t-7.5 -101q0 -26 -26 -41t-60 -13q-59 3 -59 103z" />
<glyph unicode="&#x41c;" horiz-adv-x="1343" d="M168 132.5v68.5q11 134 50.5 478t43.5 427q2 30 7.5 61t16 66t30 58t44.5 24q50 3 71.5 -21.5t51.5 -105.5q24 -69 95.5 -298.5t97.5 -299.5q111 181 213 500q4 11 13.5 41t13.5 41.5t12.5 34t15.5 32t17 22t21.5 17t25.5 4.5q23 0 38.5 -7.5t24 -21.5t12.5 -34 t5.5 -45.5t1.5 -56.5v-19q5 -272 20 -443q9 -114 39.5 -204.5t87.5 -212.5q10 -21 44 -58.5t34 -60.5q0 -78 -90 -78q-50 0 -104.5 73t-93 173.5t-64 202t-25.5 161.5q0 27 -1 44t-3 42.5t-4 57.5q-6 -14 -28.5 -69t-37 -88.5t-39.5 -88.5t-45 -90t-43 -71.5t-43.5 -54.5 t-38.5 -18q-39 0 -76 95t-88.5 278t-91.5 285q-18 -28 -31 -197.5t-21.5 -379.5t-12.5 -255q-5 -46 -30.5 -80.5t-65.5 -35.5q-34 -1 -52 33.5t-18 74z" />
<glyph unicode="&#x41d;" horiz-adv-x="1077" d="M35 532q0 22 10.5 35.5t29.5 18t37.5 5.5t43 1t37.5 2q6 328 14 463q20 301 102 301q17 0 28.5 -12t17.5 -36.5t9 -48.5t2 -62t-2 -61t-4 -61q-5 -150 -6.5 -232.5t-0.5 -106t4 -58.5t5 -70q29 4 86 14.5t128.5 21t162.5 18.5q-2 72 -12 207.5t-10 224.5q0 31 0.5 44.5 t2 38t5.5 36t11 25t19 19t29 5.5q43 0 57.5 -29t20.5 -125q15 -210 19 -422q4 -135 19.5 -250t32 -174t29.5 -104t13 -58q0 -32 -24.5 -64t-63.5 -32q-28 0 -54.5 57t-46 146.5t-31.5 161t-20 135.5q-77 -6 -136.5 -11.5t-88.5 -9.5t-78 -11t-78 -11q2 -85 9.5 -243.5 t7.5 -207.5q0 -38 -20 -65t-60 -27q-45 0 -63.5 69t-24.5 244q-2 36 -2.5 109t-1.5 92q-32 -2 -57 0.5t-51.5 11t-41 30.5t-14.5 56z" />
<glyph unicode="&#x41e;" horiz-adv-x="1095" d="M27 575q-1 144 47 282t120.5 233t156.5 153t157 60q93 5 186 -31.5t166 -100.5t128.5 -141.5t83 -160.5t20.5 -152q-4 -53 -27 -122t-61 -144.5t-94 -148t-121.5 -130t-149 -92.5t-170.5 -35q-106 1 -209.5 81.5t-167.5 204t-65 244.5zM176 616q0 -86 30 -166.5 t74 -134.5t94.5 -87t92.5 -33q66 0 148.5 51t152.5 127t118 172.5t48 179.5q0 74 -40 154t-98.5 140t-125.5 99t-119 39q-72 0 -136 -46.5t-106 -114.5t-73.5 -145.5t-45.5 -139t-14 -95.5z" />
<glyph unicode="&#x41f;" horiz-adv-x="1077" d="M45 1081q-1 35 47 66t131 59q26 152 86 152q49 0 56 -107q145 44 331.5 91t221.5 47h15.5h16.5t14.5 -1t14.5 -3.5t11.5 -7t10.5 -10.5t6 -16t3 -22q1 -42 -35.5 -67t-124.5 -50q9 -35 12 -102q15 -210 19 -422q4 -135 19.5 -250t32 -174t29.5 -104t13 -58 q0 -32 -24.5 -64t-63.5 -32q-28 0 -52 62t-42 171.5t-30 205.5t-24 216v3q-22 228 -22 432q0 59 2 86q-68 -16 -109 -27q-23 -6 -62.5 -18t-96 -29.5t-91.5 -28.5v-2q-5 -150 -6.5 -232.5t-0.5 -106t4 -58.5t5 -70q9 -391 9 -598q0 -38 -20 -65t-60 -27q-45 0 -63.5 69 t-24.5 244q-10 157 -10 361q0 184 12 442q-75 -20 -99 -20q-30 0 -45 13t-16 52z" />
<glyph unicode="&#x420;" horiz-adv-x="862" d="M66 997q0 22 25.5 64.5t55.5 64.5q-21 143 50 152q15 2 25 -1.5t16.5 -14t10 -19.5t8.5 -27t9 -28q10 7 41.5 31t45 33t43 27.5t52 26.5t55 18.5t68 14.5t76.5 4q53 0 94.5 -30t65.5 -79.5t36.5 -107t12.5 -116.5q0 -74 -16 -142.5t-38 -120t-62 -104.5t-71 -86 t-82.5 -74.5t-79 -60.5t-77.5 -53q-25 -17 -37 -25q4 -52 14 -122t17.5 -118.5t7.5 -58.5q0 -32 -26 -62t-60 -30q-15 0 -28 16.5t-23 50.5t-18.5 70.5t-16.5 93t-13 99.5t-13 109t-13 104q-8 62 -22 157t-22.5 160t-12.5 113q-57 11 -77.5 25t-20.5 46zM291 1044 q64 -463 86 -548q11 7 42.5 25t52 30.5t53.5 38t55.5 49.5t48.5 62.5t42 79.5t27 97.5t11 120.5q0 81 -36.5 139t-94.5 58q-36 0 -69 -7.5t-54.5 -15.5t-48.5 -27.5t-39 -30t-39.5 -37t-36.5 -34.5z" />
<glyph unicode="&#x421;" horiz-adv-x="827" d="M98 338q0 401 185 733q44 79 94.5 139t91.5 91.5t82.5 51t65.5 24.5t42 5q14 0 22 -3.5t11 -14.5t3.5 -17.5t0.5 -27.5q0 -16 -55.5 -68.5t-131 -128t-110.5 -135.5q-68 -121 -101.5 -297.5t-33.5 -302.5q0 -197 68 -197q30 0 71 16t73.5 34.5t100 60t111.5 66.5 q57 34 105 34q13 1 20.5 -4.5t7.5 -13.5q-1 -26 -57.5 -82.5t-136 -114t-178.5 -101.5t-173 -44q-49 0 -86 33.5t-55.5 83.5t-27.5 96.5t-9 83.5z" />
<glyph unicode="&#x422;" horiz-adv-x="919" d="M-78 1020q-1 13 6 26t22 25t31.5 22.5t43 22t47 19.5t53 19t52.5 17t53.5 16t48.5 15q118 39 299 82t217 43q2 0 17 0.5t19 0l16 -2t16.5 -5.5t11 -10.5t9.5 -17t3 -24.5q1 -55 -57 -80.5t-236 -67.5q-68 -17 -107 -26q4 -117 20.5 -307t20.5 -259q4 -80 24.5 -252.5 t20.5 -193.5q0 -47 -14 -67t-55 -19q-16 0 -30 8t-24 24.5t-18 34.5t-14 46t-10.5 51t-8 57t-5.5 56.5t-4.5 58t-4.5 53.5q-45 517 -53 659q-27 -8 -91 -27.5t-103.5 -31t-85 -21.5t-68.5 -10q-30 0 -45.5 13t-16.5 53z" />
<glyph unicode="&#x423;" horiz-adv-x="1017" d="M-31 1178q0 31 20.5 57t47.5 27q12 1 38.5 -43.5t57.5 -111.5t67 -145t67 -145.5t58.5 -112.5t41.5 -45q59 0 233 304q34 56 101 179.5t102 176t55 51.5q43 -2 64.5 -16t21.5 -47q0 -67 -65 -340q-9 -41 -52.5 -232.5t-62.5 -271.5q-149 -633 -234 -635q-54 0 -57 41 q-2 37 18.5 125.5t58.5 225.5t50 186q62 240 98 425q-1 -2 -22 -34.5t-32 -49.5t-36.5 -55t-44.5 -61.5t-46 -57.5t-49.5 -55t-48 -42.5t-49 -31.5t-44.5 -10q-42 0 -130.5 173.5t-157.5 354.5t-69 216z" />
<glyph unicode="&#x424;" horiz-adv-x="1214" d="M39 653q-1 104 30.5 198t83 162.5t119 122.5t137 85.5t138.5 44.5v131q2 82 20.5 119t69.5 36q63 0 63 -61v-217q106 -15 204.5 -74.5t166 -140t108 -173t40.5 -173.5q0 -58 -21.5 -128.5t-65 -144t-102.5 -137.5t-141.5 -111.5t-173.5 -62.5v-4q0 -44 -0.5 -64.5 t-3 -51.5t-8.5 -45t-16.5 -30t-27.5 -22t-41 -6q-37 0 -52.5 51.5t-18.5 157.5q-236 63 -371 212t-137 326zM188 694q0 -75 35.5 -148.5t90 -127t116 -91.5t117.5 -53q1 32 1 72.5t-0.5 87t-0.5 66.5q0 75 -0.5 212.5t-0.5 242t1 186.5q-78 -24 -149 -85.5t-115 -130.5 t-69.5 -132t-25.5 -99zM700 694q1 -86 7.5 -235t7.5 -164q96 11 177 78.5t125 161t44 186.5q0 54 -29 115t-73.5 111t-94 92t-94 65.5t-70.5 23.5v-434z" />
<glyph unicode="&#x425;" horiz-adv-x="804" d="M74 1274q0 24 17.5 49.5t41.5 26.5q16 1 39 -32.5t52 -97.5t53.5 -124.5t58.5 -146.5t53 -130q15 30 40 84.5t47.5 102.5t50.5 105.5t53.5 103t50.5 85t48 61t40 21.5q36 0 47.5 -15t9.5 -50q0 -4 -0.5 -9t-2.5 -11.5t-4 -12t-6.5 -15.5t-8 -18t-9.5 -22t-11 -24t-14 -29 t-15 -33q-42 -89 -127.5 -263.5t-114.5 -236.5q92 -230 137 -310q60 -110 102 -110q34 0 55 -17t21 -50q0 -39 -31.5 -61.5t-93.5 -22.5q-43 0 -86 36t-78.5 96t-61.5 118.5t-48 121.5q-35 -73 -89.5 -223t-60.5 -192q-10 -80 -20 -97q-14 -23 -43 -24q-44 0 -66 31.5 t-22 105.5q0 50 80.5 268t144.5 338q-229 518 -229 623z" />
<glyph unicode="&#x426;" horiz-adv-x="1114" d="M154 29q0 36 20 53q-9 137 -12 381q-2 108 -2 222.5t1 232t1 163.5q0 60 15.5 117t45.5 57q37 0 57.5 -34.5t20.5 -73.5q0 -49 -1 -151t-1 -196t2 -186q8 -413 16 -516q54 14 120.5 28.5t107.5 25.5q68 17 207 59q-12 69 -23 272q-20 337 -10 615v42t0.5 42.5t2.5 36 t6 34t10.5 24t17.5 17t26 4.5q27 0 48.5 -17.5t21.5 -61.5q0 -117 16 -535q2 -67 12.5 -204t10.5 -218q16 5 38 13t31.5 10.5t24.5 2t31 -6.5q2 -1 8.5 -3t9 -3t8 -3.5t8 -4t6.5 -4.5t5.5 -5.5t3.5 -6.5t2 -9q5 -12 2.5 -59t-2.5 -48q0 -39 3 -260.5t3 -259.5 q0 -46 -14.5 -78.5t-42.5 -32.5q-33 0 -57.5 27t-24.5 59q0 9 -1 241.5t-1 299.5q-32 -16 -75 -30.5t-78 -23.5t-94 -24t-93 -24q-35 -9 -108.5 -29t-111 -29.5t-82 -18.5t-67.5 -9q-31 0 -50 26.5t-19 59.5z" />
<glyph unicode="&#x427;" horiz-adv-x="899" d="M59 1126q0 91 19.5 120.5t75.5 29.5q11 0 20 -4.5t15 -13t10.5 -19t6.5 -26.5t3 -30t1 -34.5v-36.5t-0.5 -38.5t-0.5 -37.5q0 -97 16.5 -219t49.5 -219.5t71 -97.5q16 0 32.5 4.5t36.5 15.5t34 19t38 27t34.5 27t37.5 31.5t33 28.5q-2 68 -9.5 198t-7.5 220q0 30 0.5 46 t2 42.5t6 40.5t11.5 30t19.5 23t28.5 7q46 0 62 -25.5t16 -116.5q0 -64 7.5 -242.5t8.5 -216.5q5 -173 16.5 -311.5t20 -205.5t8.5 -81q0 -32 -24.5 -64t-63.5 -32q-23 0 -39.5 41.5t-26.5 111t-16 136t-11 142t-9 104.5q-3 -3 -38.5 -34.5t-47.5 -41t-47 -34t-59 -34 t-61 -19t-73 -9.5q-53 0 -95 84.5t-65 213t-35 258.5t-12 242z" />
<glyph unicode="&#x428;" horiz-adv-x="1267" d="M154 4q0 43 14 55q-11 171 -14 428q-2 133 3 340t5 254q0 48 21.5 88.5t52.5 40.5q35 0 50 -28.5t15 -67.5q0 -50 -1.5 -145t-1.5 -180t3 -171q10 -340 23 -509q41 11 148.5 39t139.5 36q-7 42 -10 96.5t-4.5 127.5t-3.5 112q-1 24 -5.5 113t-6 118t-4 99t-3 107 t0.5 87.5t4 92.5q1 10 1.5 27.5t1 25t2 21t3 20t4 16t5.5 13.5t8 10t11.5 8t14.5 4t18 2q50 0 62 -31t12 -139q0 -151 13.5 -468t25.5 -429q246 56 285 66q-11 69 -8 246l1 8v-19h9q-1 89 -7.5 303.5t-3.5 311.5q1 21 0.5 41.5t0 40.5t2 37t5.5 31.5t10 24.5t16.5 15.5 t25.5 5.5q24 0 44.5 -17.5t20.5 -58.5q0 -90 17 -534q2 -57 11 -193t9 -219q31 10 53.5 -22t22.5 -66q0 -12 -14.5 -23.5t-44.5 -23.5t-61.5 -21.5t-81.5 -21.5t-88 -21t-96.5 -21.5t-92.5 -20.5q-53 -12 -211 -49t-238 -53.5t-112 -16.5q-34 0 -58 15t-24 42z" />
<glyph unicode="&#x429;" horiz-adv-x="1386" d="M156 29q0 36 20 53q-9 138 -12 379q-8 484 -8 624q0 50 17.5 88.5t49.5 38.5q35 0 51.5 -30t16.5 -68q0 -218 8 -475q10 -328 25 -528q40 10 139.5 26t134.5 25q-7 42 -10 102t-4.5 138.5t-3.5 117.5q-1 29 -7 133.5t-7.5 142.5t-3.5 112.5t-1 127t4 101.5q6 93 14 114 q13 35 58 35q52 0 64 -31t12 -141q0 -152 12.5 -470.5t24.5 -444.5q231 52 264 61q-5 32 -7.5 70.5t-3.5 98t-2 89.5q-17 411 -10 615v41.5t0.5 41.5t2 36t5.5 33.5t10.5 23.5t17.5 17t26 5q26 0 46.5 -18t20.5 -60q0 -90 17 -534q2 -51 10 -196t8 -230q15 5 38.5 13 t33.5 11t26 2.5t33 -6.5l12 -4t13.5 -5.5t10.5 -6t9 -9t4 -12.5q5 -12 2.5 -58.5t-2.5 -47.5q0 -39 3 -260.5t3 -259.5q0 -46 -14 -77.5t-41 -31.5q-32 0 -56 26.5t-24 57.5q0 9 -2 242.5t-2 300.5q-133 -67 -501.5 -145t-477.5 -78q-29 0 -48 26.5t-19 57.5z" />
<glyph unicode="&#x42a;" horiz-adv-x="903" d="M-57 1192q0 56 45 76q281 114 344 114q38 0 51.5 -10.5t15.5 -40.5q2 -67 -4 -254q-1 -33 -1 -84t0.5 -112t0.5 -84q150 67 254 67q22 0 51 -7t62.5 -24.5t60 -42.5t43.5 -66.5t15 -90.5q-1 -48 -77.5 -169t-189 -244t-198.5 -163q-18 -37 -64 -43q-28 -3 -54.5 33.5 t-29.5 79.5q-1 10 -6 72t-6 80t-3.5 85t-1.5 125.5t3 160.5t6 229q3 101 -0.5 193.5t-1.5 137.5q-7 -1 -115.5 -31t-138.5 -30q-61 0 -61 43zM399 635q1 -38 8.5 -190.5t10.5 -215.5q61 59 116.5 117t114.5 138.5t64 127.5q5 44 -15 70.5t-65 26.5q-76 0 -111.5 -11.5 t-122.5 -62.5z" />
<glyph unicode="&#x42b;" horiz-adv-x="1081" d="M111 680.5q1 118.5 6 267.5q6 174 20 387q8 88 64 88q38 0 51.5 -10.5t15.5 -40.5q2 -89 -4 -295v-280q150 67 254 67q22 0 51 -7t62.5 -24.5t60 -42.5t43.5 -66.5t15 -90.5q-1 -48 -77.5 -169t-189 -244t-198.5 -163q-18 -37 -64 -43q-28 -3 -54.5 33.5t-29.5 79.5 q-2 25 -8.5 93t-9.5 118t-6 137t-2 205.5zM268 635q1 -38 8.5 -190.5t10.5 -215.5q61 59 116.5 117t114.5 138.5t64 127.5q5 44 -15 70.5t-65 26.5q-76 0 -111.5 -11.5t-122.5 -62.5zM805 374.5q0 41.5 1 102t1 84.5q0 132 4 253t10 241.5t8 169.5v41.5t0.5 41.5t2 36 t5.5 33.5t10.5 23.5t17.5 17t26 5q12 0 21 -2t20 -10t18 -27t8 -49q4 -76 4 -183t-2 -260t-2 -245v-491q0 -66 -14 -104t-53 -38q-22 0 -38 20t-25 59t-14.5 79.5t-7 100.5t-1.5 101.5z" />
<glyph unicode="&#x42c;" horiz-adv-x="747" d="M111 680.5q1 118.5 6 267.5q6 174 20 387q8 88 64 88q38 0 51.5 -10.5t15.5 -40.5q2 -89 -4 -295v-280q150 67 254 67q22 0 51 -7t62.5 -24.5t60 -42.5t43.5 -66.5t15 -90.5q-1 -48 -77.5 -169t-189 -244t-198.5 -163q-18 -37 -64 -43q-28 -3 -54.5 33.5t-29.5 79.5 q-2 25 -8.5 93t-9.5 118t-6 137t-2 205.5zM268 635q1 -38 8.5 -190.5t10.5 -215.5q61 59 116.5 117t114.5 138.5t64 127.5q5 44 -15 70.5t-65 26.5q-76 0 -111.5 -11.5t-122.5 -62.5z" />
<glyph unicode="&#x42d;" horiz-adv-x="921" d="M133 573q-8 61 78 91q48 16 190 84t174 71q24 1 45 2.5t35.5 -11t14.5 -40.5q0 -39 -102 -108t-212 -119.5t-141 -50.5q-27 0 -53 26.5t-29 54.5zM143 1034q0 26 42 74t106.5 96t158 83.5t181.5 35.5q49 0 91.5 -26.5t68.5 -65.5t40.5 -80.5t14.5 -75.5q0 -9 1 -67.5 t0 -91.5t-4 -98.5t-13 -118t-25.5 -119.5t-42.5 -133t-62 -130q-44 -79 -107 -143t-122 -100.5t-117.5 -61.5t-95.5 -34t-55 -9q-11 0 -18.5 3.5t-11.5 7t-5.5 15t-1.5 16v22.5q0 13 40.5 38.5t95.5 56.5t124 88.5t115 123.5q55 79 93 208t52 241t14 208q0 64 -38.5 118 t-90.5 54q-60 0 -137 -42.5t-129 -92.5q-19 -19 -60.5 -41t-64.5 -22q-15 -2 -26 13.5t-11 49.5z" />
<glyph unicode="&#x42e;" horiz-adv-x="1363" d="M154 602q-17 271 0 582q2 47 30 81t62 25q8 -1 14.5 -4.5t11.5 -7.5t8.5 -11t5.5 -12t3.5 -15t2.5 -15.5t1 -17t-0.5 -16.5t-1 -17.5t-0.5 -16.5q-4 -127 -4.5 -182t4 -193.5t4.5 -144.5q37 9 91.5 24.5t85.5 23t52 9.5q21 267 130 420t249 156q92 5 167 -31.5t121.5 -97 t78.5 -140.5t44.5 -157t12.5 -152q0 -50 -6.5 -107t-22 -124t-39.5 -129.5t-61 -121.5t-83.5 -102.5t-111 -69.5t-139.5 -26q-75 1 -139.5 50.5t-107 128t-67.5 171.5t-30 185q-2 -1 -19.5 -7t-29.5 -10q-30 -9 -85.5 -29t-74.5 -26q0 -95 -5.5 -245t-8.5 -183 q-5 -40 -24.5 -57t-67.5 -13q-31 2 -40.5 112.5t-5.5 248.5t-5 264zM670 625q0 -116 35 -224.5t89 -173.5t109 -65q64 0 117 51t84 132t48 173t17 182q0 106 -25.5 201.5t-78 159t-119.5 63.5q-52 0 -95 -22.5t-71 -58t-49 -84t-32.5 -94.5t-18 -97t-8.5 -83t-2 -60z" />
<glyph unicode="&#x42f;" horiz-adv-x="1044" d="M55 80q1 19 41.5 52.5t117 84.5t91.5 62q39 28 119 79t134.5 91t84.5 77q-119 0 -219 29t-164.5 77t-99.5 108t-35 124q0 211 213 326q212 113 418 113q15 27 39 38t49 2q16 -6 23.5 -9t11.5 -9t4 -9.5t-1 -16.5t-1 -23q42 -27 34 -88q-3 -55 -57 -74q-4 -87 -8.5 -192 t-7.5 -181t-4 -88q36 -9 53 -26.5t20 -48.5q5 -58 -67 -91q0 -17 1.5 -98.5t1.5 -158t-3 -124.5q-4 -71 -18.5 -91t-51.5 -23q-35 -4 -49.5 28t-22.5 111q-4 38 -4 97t2 118.5t2 67.5q-28 -37 -68.5 -73.5t-73 -60t-86 -60t-81.5 -56.5q-239 -176 -268 -176q-34 1 -53 28 t-17 64zM276 864q0 -29 13.5 -54t34.5 -42t53.5 -31.5t63.5 -23t71 -16t69.5 -11.5t66.5 -8.5t54 -7.5q-1 84 10 268.5t11 196.5q-46 0 -153.5 -30t-176.5 -69q-57 -33 -87 -72.5t-30 -99.5z" />
<glyph unicode="&#x430;" horiz-adv-x="897" d="M66 156q0 67 52 191t124.5 243.5t159 208.5t147.5 90q26 0 44 -12.5t17 -40.5q-1 -24 -29.5 -57t-83.5 -87.5t-91 -101.5q-67 -83 -132 -219.5t-65 -173.5q0 -23 6.5 -32.5t26.5 -8.5q33 2 107 67.5t133.5 136.5t60.5 91q1 24 18.5 41.5t34.5 23.5t29 6q16 0 40 -18 t29 -51q22 -111 51 -213q10 -32 26 -79.5t24 -73.5t8 -36q0 -39 -25.5 -68.5t-52.5 -29.5q-90 0 -152 344q-66 -103 -177 -202t-191 -99q-57 0 -98 49.5t-41 110.5z" />
<glyph unicode="&#x431;" horiz-adv-x="770" d="M72 184q-20 125 6.5 238t83.5 189t134 121t157 46q59 0 59 -49q-1 -27 -34 -50t-86 -51t-81 -53q-59 -52 -84 -123t-24 -188q0 -42 35 -87.5t73 -45.5q70 0 119.5 37.5t95.5 114.5q68 116 68 297q0 22 -8 49t-26 60.5t-35 63.5t-47 71.5t-50 68.5t-56 71.5t-52.5 65 t-52 62.5t-42.5 51q-9 11 -28.5 35t-26.5 33.5t-15 26t-10 32.5q-6 47 20.5 76.5t90.5 64.5q73 44 247.5 111t198.5 69q25 3 42.5 -16.5t23.5 -54.5q1 -17 -59 -46.5t-151 -66.5t-124 -55q-25 -12 -48 -24.5t-48.5 -28t-40.5 -23.5q20 -23 53 -65t84 -107t78 -100 q51 -66 74 -96t59.5 -85.5t52 -94.5t28.5 -93.5t13 -110.5q0 -102 -24.5 -178.5t-83.5 -163.5q-72 -105 -146 -143t-190 -41q-22 -2 -54 7t-67.5 28.5t-64 59t-37.5 91.5z" />
<glyph unicode="&#x432;" horiz-adv-x="905" d="M106 754q0 77 70 77q29 0 47 -38q154 92 236 92q85 0 134.5 -23.5t49.5 -54.5q0 -63 -57.5 -164t-110.5 -151q4 0 52.5 0.5t70.5 -0.5t62.5 -4t69 -11.5t50.5 -21.5q92 -61 92 -160q0 -73 -47 -134.5t-113 -98.5t-140 -63.5t-124.5 -37t-70.5 -10.5q-18 0 -24.5 12.5 t-6.5 38.5q0 11 54 45.5t118 71.5t118 82t54 75q0 24 -1 35.5t-3.5 26t-9.5 20t-17.5 12.5t-30 9t-43.5 4t-61 2q-24 3 -70 1.5t-57 -1.5q-22 0 -42.5 15t-20.5 40q0 18 62.5 133.5t62.5 143.5q0 26 -11.5 32.5t-41.5 6.5q-21 0 -40.5 -9t-52.5 -29.5t-59 -33.5 q8 -41 29 -225q31 -271 32 -340q2 -81 -11 -124.5t-50 -43.5q-36 0 -54 32.5t-24 135.5q-18 231 -37 373q-5 39 -15 100t-14 96t-4 66z" />
<glyph unicode="&#x433;" horiz-adv-x="860" d="M37 489q0 16 23.5 58t64.5 94t89 100.5t104.5 81.5t103.5 33q53 0 80.5 -21t27.5 -81q0 -54 -14 -306t-14 -319q54 39 130 105t123 103.5t66 37.5h5q15 0 21.5 -1.5t12.5 -11t6 -30.5q0 -57 -88 -133q-4 -4 -60.5 -57t-96 -87.5t-92 -69t-80.5 -34.5q-31 0 -61 19.5 t-30 52.5q0 18 -1.5 77t-1.5 118.5t3 113.5q3 61 15 168.5t12 136.5q0 28 -8 40.5t-33 12.5q-14 0 -120 -119.5t-124 -119.5q-63 0 -63 38z" />
<glyph unicode="&#x434;" horiz-adv-x="935" d="M98 160q-5 72 37.5 165t112.5 178.5t149.5 159.5t154.5 118.5t120 45.5q14 0 30.5 -3t38.5 -10.5t36.5 -25.5t15.5 -43q0 -14 -5 -23.5t-11.5 -14.5t-20.5 -7.5t-22.5 -3t-28 -0.5h-27.5q-43 -1 -148.5 -98.5t-195 -224t-84.5 -193.5q0 -5 1.5 -18t2 -17t3 -12.5t6 -11 t10 -5.5t16.5 -3q36 0 132.5 88t164.5 176q22 29 33.5 59t13.5 46t12 26t33 10q28 0 45 -7.5t22.5 -21.5t6.5 -26t-0.5 -29.5t-1.5 -23.5q0 -5 19.5 -179t29.5 -276q23 -235 35 -426q13 -172 6 -226q-9 -85 -56 -85q-59 0 -90 13.5t-61 55.5q-22 32 -71.5 98.5t-89 125 t-85.5 137.5q-7 12 -21.5 35.5t-23.5 39t-19.5 34t-15.5 32.5t-6 23q-1 26 8.5 34.5t36.5 10.5q17 -1 46.5 -27t71.5 -78t75 -95.5t86 -116t75 -101.5q-26 172 -45 393q-7 84 -21 214t-16 173q-72 -95 -179 -177.5t-185 -82.5q-70 0 -109.5 47t-46.5 154z" />
<glyph unicode="&#x435;" horiz-adv-x="835" d="M61 457q1 19 31 67t81.5 106.5t111.5 113t130.5 91.5t129.5 37q18 0 29 -15t8 -34q-2 -15 -44.5 -50t-107 -82.5t-92.5 -72.5q-24 -22 -52 -64.5t-28 -57.5q0 -19 10 -19q30 1 100.5 28.5t129.5 54.5t65 26q12 -2 25 -16.5t12 -30.5q-2 -33 -16 -69.5t-27.5 -59 t-40.5 -64.5q-16 -25 -43.5 -64t-39.5 -58t-23.5 -47t-12.5 -54q-1 -22 17.5 -37.5t42.5 -15.5q38 0 105.5 47t125 94t70.5 47q26 0 42.5 -13.5t14.5 -33.5q-2 -14 -44.5 -61.5t-101.5 -101t-130 -95t-119 -41.5q-94 0 -144.5 50t-44.5 147q6 89 88 227q-24 -11 -42.5 -11 t-40.5 5.5t-41 5.5q-64 0 -100.5 37t-33.5 84z" />
<glyph unicode="&#x436;" horiz-adv-x="1107" d="M27 705q0 22 17 38.5t34 16.5q21 0 40.5 -5t33.5 -11t35.5 -21t32.5 -24t39 -33t42 -35q24 -19 160 -144q-6 30 -18.5 89t-20.5 100.5t-8 60.5q0 38 19 55t59 17q16 0 33.5 -10.5t21.5 -26.5q7 -19 13 -45.5t11.5 -62.5t8 -57.5t7 -63.5t5.5 -47q23 22 77.5 75t87 83.5 t74 67.5t69.5 55t44 18q49 0 49 -66q0 -25 -115 -147.5t-196 -194.5q299 -211 348 -227q29 -9 47.5 -27.5t18.5 -38.5q0 -36 -19.5 -50.5t-87.5 -14.5q-15 0 -45 14t-72 41t-80 52t-89.5 60.5t-79.5 53.5q16 -99 16 -121q3 -145 -70 -145q-39 0 -59.5 28t-26.5 117 q-1 6 0.5 52.5t-0.5 68.5q-11 -11 -45 -43.5t-53.5 -51.5t-52 -49t-54.5 -48.5t-46.5 -37.5t-41.5 -27.5t-28 -8.5q-42 1 -59.5 22t-14.5 51q1 12 24.5 39.5t67 68.5t77 71.5t86.5 76.5t65 56q-14 11 -68 53t-101 79.5t-99 81t-82.5 76t-30.5 46.5z" />
<glyph unicode="&#x437;" horiz-adv-x="870" d="M52.5 678.5q-0.5 4.5 0 15t0.5 13.5q0 33 62.5 69.5t134 58t108.5 21.5q160 0 160 -111q0 -70 -44 -146t-99 -128q85 0 182.5 -13t147.5 -44q92 -61 92 -160q0 -73 -54.5 -134t-130.5 -97.5t-161 -62.5t-142 -36t-78 -10q-22 0 -42.5 14t-20.5 37q0 19 69.5 55 t153.5 69.5t153.5 75t69.5 71.5q0 34 -16 55.5t-51.5 32.5t-78 15t-110.5 5q-24 3 -70 1.5t-57 -1.5q-22 0 -42.5 15t-20.5 40q0 18 95 139.5t95 149.5q0 26 -11.5 32.5t-41.5 6.5q-23 0 -108 -42t-109 -42q-10 0 -17.5 3t-11 7t-5 12.5t-2 13z" />
<glyph unicode="&#x438;" horiz-adv-x="927" d="M137 497v56q0 37 1.5 63t7 52.5t15.5 42.5t27 26.5t41 10.5q38 0 49 -38t11 -128q0 -146 11.5 -258.5t39.5 -112.5q34 0 90.5 53.5t108.5 126.5q24 33 42.5 88t28 97.5t29.5 75t49 32.5q22 0 38 -7.5t25.5 -19.5t16 -35t9.5 -44t7 -58q2 -25 2.5 -88.5t4.5 -121.5 t14 -101q9 -39 40.5 -81.5t28.5 -66.5q-10 -67 -75 -67q-92 0 -129 141q-1 5 -4.5 16.5t-4.5 15t-3.5 13t-3 14t-2.5 13t-2.5 14.5t-2 15t-2 17.5t-1 19.5t-1.5 24q-22 -29 -46 -58t-65 -70t-80 -71t-87 -51.5t-91 -21.5q-20 0 -37.5 9.5t-30 30t-23 42t-17.5 57t-12.5 62 t-8.5 70t-4.5 68.5t-2.5 70.5t-1 62.5z" />
<glyph unicode="&#x439;" horiz-adv-x="974" d="M137 497v56q0 37 1.5 63t7 52.5t15.5 42.5t27 26.5t41 10.5q38 0 49 -38t11 -128q0 -146 11.5 -258.5t39.5 -112.5q34 0 90.5 53.5t108.5 126.5q24 33 37 93t17 109t22 86.5t53 37.5q22 0 38 -7.5t25.5 -19.5t16 -35t9.5 -44t7 -58q19 -249 41 -344q9 -39 40.5 -81.5 t28.5 -66.5q-10 -67 -75 -67q-92 0 -129 141q-1 5 -4.5 16.5t-4.5 15t-3.5 13t-3 14t-2.5 13t-2.5 14.5t-2 15t-2 17.5t-1 19.5t-1.5 24q-22 -29 -46 -58t-65 -70t-80 -71t-87 -51.5t-91 -21.5q-20 0 -37.5 9.5t-30 30t-23 42t-17.5 57t-12.5 62t-8.5 70t-4.5 68.5 t-2.5 70.5t-1 62.5zM227 979q1 20 125 94.5t255.5 140.5t156.5 68q32 3 51 -20.5t19 -57.5q0 -16 -4.5 -29t-8.5 -21t-17 -17t-17.5 -11.5t-22.5 -10.5t-21 -9q-97 -47 -259.5 -117.5t-194.5 -70.5q-17 0 -25 1t-19 6.5t-15 18.5t-3 35z" />
<glyph unicode="&#x43a;" horiz-adv-x="868" d="M98 670q0 50 21 77t47 27q29 0 51.5 -25t22.5 -57q0 -47 13 -162t15 -186q22 22 120 130t176 187.5t95 79.5q33 0 45 -9.5t13 -39.5q3 -35 -25.5 -83.5t-61.5 -85.5t-100 -107t-100 -107q30 -26 127 -84.5t171.5 -108.5t76.5 -71q2 -34 -11 -48.5t-57 -14.5 q-43 0 -181 76.5t-216 140.5q-4 -5 -24.5 -29t-32.5 -41q6 -89 -8 -118t-52 -29q-36 0 -51 10.5t-16 38.5q-1 16 -4.5 64.5t-8.5 103.5q-7 82 -18.5 190t-19 180.5t-7.5 100.5z" />
<glyph unicode="&#x43b;" horiz-adv-x="843" d="M63 78q0 17 8.5 43.5t27.5 66t33 67t43 81t40 74.5q25 46 74 162t86.5 181.5t68.5 65.5q36 0 72 -75.5t77.5 -199.5t63.5 -171q17 -36 55 -100t61.5 -110.5t23.5 -72.5q0 -43 -21 -65.5t-53 -20.5q-40 3 -78.5 60t-81.5 153q-20 43 -127 334q-50 -111 -184 -399 q-4 -8 -14 -30.5t-15.5 -34t-16.5 -30t-20 -28.5t-22 -17.5t-27 -7.5q-26 0 -42.5 7.5t-22.5 21t-7.5 22.5t-1.5 23z" />
<glyph unicode="&#x43c;" horiz-adv-x="1202" d="M61 74q0 39 57 221.5t103 294.5q5 12 16 42.5t20 53t22 47.5t28.5 39t32.5 14q28 0 75 -127q7 -18 11 -28q19 -52 64 -198t63 -183q6 16 57 162.5t78 218.5q43 111 60 134q16 20 32 21q30 0 62.5 -54t56.5 -121.5t53.5 -150t46.5 -116.5q13 -25 33.5 -63t34 -63.5 t27.5 -53.5t21 -47.5t7 -30.5q0 -29 -18.5 -51.5t-50.5 -22.5q-31 0 -60.5 30.5t-46 61.5t-49.5 100q-8 17 -12 25q-12 24 -55.5 140t-49.5 131q-16 -57 -49.5 -150t-87.5 -197t-90 -104q-30 0 -66.5 50.5t-68 126t-55.5 146t-39 128.5q-10 -32 -27 -105t-33 -139.5 t-36 -133.5t-43 -107t-46 -40q-31 0 -54.5 31t-23.5 68z" />
<glyph unicode="&#x43d;" horiz-adv-x="917" d="M68 406q0 59 77 73q-4 41 -11.5 106t-11 105.5t-1.5 63.5q1 21 24 37t41 16q29 1 52 -29.5t36.5 -79.5t20 -102t6.5 -104v-3q150 3 291 3q-4 46 -4 57q0 13 -0.5 46.5t-0.5 51t1.5 46.5t6 46t12 34.5t20.5 25.5t30 8q54 0 78 -141q6 -37 21 -177q73 -14 73 -57 q-3 -41 -55 -65q8 -34 40 -135.5t32 -133.5q0 -43 -21 -65.5t-53 -20.5q-21 1 -37.5 15t-31 45t-23 57t-23.5 76q-4 18 -17 66.5t-19 72.5q-13 -3 -154.5 -1.5t-157.5 1.5q3 -31 8.5 -79t9 -82.5t3.5 -59.5q0 -46 -28.5 -78.5t-70.5 -32.5q-20 0 -35 10.5t-23 32t-13 43.5 t-6.5 58t-1.5 61.5t1 66.5t1 62q-86 7 -86 60z" />
<glyph unicode="&#x43e;" horiz-adv-x="729" d="M92 315q0 48 6.5 102t27 122.5t52.5 121t89.5 89t131.5 36.5q116 0 197.5 -81.5t81.5 -180.5q0 -96 -15 -182t-47.5 -164t-93 -124t-143.5 -46q-130 0 -208.5 83.5t-78.5 223.5zM223 315q0 -57 47.5 -112.5t96.5 -55.5q159 0 159 349q0 58 -39 106.5t-108 48.5 q-58 0 -107 -99.5t-49 -236.5z" />
<glyph unicode="&#x43f;" horiz-adv-x="940" d="M94 791q1 22 24.5 38.5t43.5 16.5q39 1 68 -104.5t39.5 -212.5t11.5 -189q6 12 35 66.5t51.5 93.5t52.5 86.5t57.5 73.5t48.5 26q24 0 48.5 -18.5t50 -56.5t45 -72.5t49.5 -91.5t47 -87q8 -15 29 -51t30.5 -54t22.5 -45t18.5 -47.5t5.5 -37.5q0 -44 -20.5 -67t-54.5 -21 q-14 1 -25.5 6t-23.5 18.5t-19.5 23t-20 35t-18 36.5t-20.5 46q-4 9 -7 15.5t-6 13.5q-8 16 -26.5 57t-30.5 67t-32.5 64.5t-41.5 72.5q-125 -205 -194 -355q-14 -28 -24 -44.5t-25.5 -37.5t-34 -31t-39.5 -10q-22 0 -37.5 11t-24 33.5t-13.5 46.5t-6 61t-1 64.5t1 70.5 t1 66q0 83 -19 236.5t-16 187.5z" />
<glyph unicode="&#x440;" horiz-adv-x="808" d="M85 608q-1 14 0 20t2.5 17.5t4.5 17t8.5 13.5t12.5 12t17 7.5t22 4.5q29 2 48 -19.5t24.5 -45t8.5 -53.5q36 69 156 155t197 86q43 0 74.5 -15t48 -37t26.5 -54t12.5 -57.5t2.5 -57.5q0 -88 -31.5 -183.5t-78.5 -172.5t-98.5 -141t-94.5 -99t-64 -35q-12 0 -33 35.5 t-22 59.5q-1 13 27.5 46.5t70.5 81t83.5 103.5t71 127t29.5 137q0 32 -23 71.5t-46 39.5q-48 0 -133 -78.5t-117 -179.5q-35 -105 0 -492q7 -76 18 -183.5t17 -169.5t6 -81q0 -50 -15.5 -86.5t-40.5 -36.5q-82 0 -96 172q-4 53 -18.5 198t-18.5 191q-13 135 -30 348.5 t-23 274.5q0 4 -1.5 19t-2 20.5t-1.5 19.5z" />
<glyph unicode="&#x441;" horiz-adv-x="804" d="M74 193q0 84 37 174.5t94 162t120.5 130t120 90.5t89.5 32q26 0 42 -11t15 -38q-2 -28 -22 -50.5t-67 -57.5t-69 -54q-66 -56 -130 -158t-64 -167q0 -32 29 -58.5t67 -25.5q33 1 91.5 38t111.5 81.5t109.5 82.5t84.5 39q12 0 20.5 -2.5t15.5 -12.5t7 -28q0 -17 -47.5 -72 t-116.5 -116.5t-159.5 -110.5t-163.5 -51q-23 -2 -56.5 6.5t-70.5 27t-62.5 58t-25.5 91.5z" />
<glyph unicode="&#x442;" horiz-adv-x="1224" d="M111 758q0 78 69 78q24 0 42 -25t32.5 -87t20.5 -100t19 -130q3 -23 5 -35q7 14 20 47t24.5 59t26 53.5t31 43t33.5 14.5q29 -1 55.5 -27t48 -70.5t38.5 -89.5t37 -99t34 -83q7 20 27.5 80t36 100t37.5 87.5t46 72.5t48 25q36 0 64 -56t57 -150t49 -134q13 -25 33.5 -63 t34 -63.5t27.5 -53.5t21 -47.5t7 -30.5q0 -29 -19 -51.5t-51 -22.5q-11 0 -22.5 4.5t-22.5 14.5t-20.5 20t-20.5 28t-19 31t-19.5 36.5t-18.5 37t-19 40t-18 38.5q-9 19 -31 74.5t-31 72.5q-13 -14 -48 -113.5t-76 -185.5t-76 -86q-37 0 -74 112t-66.5 224t-48.5 111 q-22 -1 -40.5 -79.5t-31.5 -172.5t-40 -172.5t-64 -79.5q-36 0 -54 32.5t-24 135.5q-18 231 -37 373q-5 36 -14.5 99t-13.5 97.5t-4 65.5z" />
<glyph unicode="&#x443;" horiz-adv-x="847" d="M63 664q0 110 64 110q28 0 46.5 -28.5t21.5 -81.5q5 -119 43 -273.5t73 -154.5q26 0 127 151t137 240q5 14 9 41.5t7.5 45t18 32t41.5 14.5q40 0 59.5 -27t19 -63t-1.5 -73q-1 -10 -1 -15q-3 -107 -2.5 -146t5 -138.5t5.5 -154.5q3 -117 26.5 -269t45.5 -260.5t22 -125.5 q0 -33 -13 -62.5t-42 -29.5q-48 0 -102.5 214t-75.5 464q-8 91 -12 286q-24 -38 -57.5 -84.5t-82 -106t-97.5 -99t-83 -39.5q-50 0 -98 111t-75.5 258t-27.5 264z" />
<glyph unicode="&#x444;" horiz-adv-x="1314" d="M70 160q0 90 47.5 202.5t114.5 203t144.5 153t133.5 63.5q21 0 44 -4.5t48 -24.5t23 -53q-1 -14 -7 -23.5t-12.5 -14.5t-20.5 -7.5t-23 -3t-28.5 -0.5h-27.5q-41 -1 -109.5 -87.5t-121 -200t-52.5 -183.5v-15.5v-15t0.5 -11.5t3 -11t6 -7t9.5 -5.5t14 -1.5 q34 0 163 115.5t206 201.5q0 92 15 357t15 356q0 84 17.5 116.5t48.5 32.5q28 0 44 -11.5t20 -32t3.5 -38.5t-3.5 -39.5t-3 -27.5q0 -114 -22 -565q37 71 150 156t190 85q43 0 76 -19t51 -47.5t30 -66t15.5 -68t3.5 -61.5q0 -87 -35.5 -175t-88 -153.5t-110 -118t-104 -79.5 t-68.5 -27q-44 0 -65 11.5t-21 47.5q0 13 35 46.5t85 81t100 103t85 126.5t35 137q0 32 -23 71.5t-46 39.5q-30 0 -132.5 -98.5t-162.5 -176.5q-2 -156 24 -409q30 -297 50 -422q5 -30 12.5 -66t11.5 -61t4 -49q0 -44 -21.5 -77.5t-56.5 -33.5q-40 0 -77 202t-52 437 q-16 267 -14 365q-86 -104 -220 -212t-210 -108q-70 0 -105.5 47t-35.5 154z" />
<glyph unicode="&#x445;" horiz-adv-x="907" d="M14 647q0 21 15 40.5t30 19.5q27 0 75 -38t88.5 -81.5t100 -110.5t83.5 -92q29 47 95 180t117 218t80 85q22 0 32.5 -15t10.5 -58q0 -100 -223 -512q43 -48 110 -79.5t113 -33.5q25 -1 44.5 -24.5t19.5 -47.5q0 -43 -17.5 -59t-82.5 -16q-56 0 -135.5 35.5t-120.5 76.5 q-40 -62 -118.5 -133t-121.5 -70q-39 1 -55 25t-13 59q2 28 90.5 115t106.5 115l-27 27t-39.5 40t-44.5 45.5t-50.5 53t-47.5 53t-45.5 55t-35 49t-26 45t-8.5 33.5z" />
<glyph unicode="&#x446;" horiz-adv-x="1234" d="M145 553q0 46 3.5 78.5t13 61t29 43t49.5 14.5q27 0 40.5 -21t17 -53.5t3.5 -93.5q0 -369 49 -369q34 0 89 53t108 127q30 41 59.5 123t52.5 136.5t48 54.5q28 0 45 -10.5t24.5 -36.5t9.5 -50.5t2 -72.5q0 -357 64 -357q26 0 102.5 43t92.5 43q37 0 60 -25t23 -61 q0 -16 -5 -41.5t-9.5 -43t-13 -46t-8.5 -29.5q-90 -315 -107 -370q-34 -107 -52 -129q-14 -19 -34 -19q-22 0 -35.5 15.5t-13.5 38.5q0 29 15 122.5t34 180.5q34 175 49 215q-16 -10 -40.5 -27.5t-39 -28t-32 -18.5t-29.5 -8q-51 0 -83 41t-48 102q-13 49 -17.5 75t-7.5 85 q-29 -39 -62.5 -76.5t-85 -86.5t-110 -79t-110.5 -30q-25 0 -46 15t-35 45t-24.5 62.5t-16.5 80.5t-10 84.5t-5.5 89.5t-2 81t-0.5 72z" />
<glyph unicode="&#x447;" horiz-adv-x="878" d="M90 530.5v70.5v20q0 46 3 77t12 60t28 43t49 14q37 0 48.5 -49t11.5 -145q0 -138 9.5 -216.5t37.5 -78.5q34 0 89.5 53t108.5 127q8 11 20 27q33 46 40 59l16 29q0 16 -3.5 53t-4 64.5t2.5 57t18 46t42 16.5q39 0 63 -62.5t24 -144.5q0 -83 10 -250q3 -47 24 -177.5 t23 -153.5q1 -30 -15 -48t-42 -18q-84 0 -107 86q-7 28 -13 77.5t-12.5 116t-9.5 91.5q-177 -236 -340 -236q-24 0 -44 12t-33.5 37.5t-23.5 50.5t-16 67.5t-9.5 72t-5 79t-1.5 73z" />
<glyph unicode="&#x448;" horiz-adv-x="1331" d="M147 497v56q0 50 2.5 85t10.5 74.5t26.5 60t46.5 20.5q62 0 62 -211q0 -144 12.5 -258.5t40.5 -114.5q34 0 97.5 64t121.5 143q-1 23 -1 47t0.5 51t0.5 39q0 99 10 125q16 37 68 37q40 0 55 -28t15 -105q0 -144 12.5 -258.5t40.5 -114.5q24 0 57 46.5t82 135.5 q22 41 52 121.5t52 129t38 48.5q52 0 68.5 -36t25.5 -126q2 -26 2.5 -91t4 -125t13.5 -103q9 -39 41 -81.5t29 -66.5q-10 -65 -74 -65q-91 0 -127 141q-13 46 -17 73.5t-7 96.5q-132 -280 -306 -280q-85 0 -122 184q-3 -3 -28 -30.5t-39 -41t-44 -38.5t-55 -38.5 t-60.5 -24.5t-70.5 -11q-20 0 -37 9.5t-29.5 30t-23 42t-17.5 56.5l-12.5 62.5t-8.5 69.5t-4.5 68.5t-2.5 69.5t-1 62z" />
<glyph unicode="&#x449;" horiz-adv-x="1495" d="M109 535v14q0 46 3.5 80.5t12.5 68t28 51t48 17.5q18 0 29 -12t15.5 -41.5t5.5 -52.5t1 -71v-11q0 -398 49 -398q51 0 231 246q-4 102 -4 123v49t2 38t6.5 33t13 20.5t22 16t32.5 3.5q40 0 54 -27t14 -104q0 -398 43 -398q7 0 15.5 6.5t19 20t19.5 27.5t22 36.5t22 39.5 t23.5 45t23.5 44q20 37 46.5 117t50.5 126t55 46q22 0 37 -8t24 -19t15.5 -34.5t9 -42.5t6.5 -56q1 -13 3.5 -68t6 -100t9 -96t16 -80.5t24.5 -29.5q26 0 101.5 55t91.5 55q36 0 59 -24.5t23 -59.5q0 -16 -5 -41t-10 -44t-13 -45t-9 -30q-90 -315 -107 -370 q-34 -103 -48 -124q-15 -22 -36 -22t-34 15.5t-13 36.5q0 29 15 122.5t34 180.5q0 1 7 38t12 64t13.5 62t15.5 53q-17 -11 -44.5 -35.5t-48.5 -35.5t-49 -11q-88 0 -125 139q-4 14 -7 30t-4.5 26.5t-3 34t-2 31.5t-2 41.5t-1.5 43.5q-5 -8 -26 -45t-34.5 -58.5t-38 -58 t-46.5 -59.5t-49 -47t-57 -35.5t-60 -11.5q-46 0 -82.5 76.5t-36.5 162.5q-9 -10 -46 -57.5t-68.5 -82.5t-83.5 -67t-103 -32q-24 0 -44 14t-33.5 42.5t-23.5 58.5t-15.5 77t-9.5 80.5t-5 86.5t-1.5 79t-0.5 72z" />
<glyph unicode="&#x44a;" horiz-adv-x="1024" d="M-31 635q0 25 74 73t162 85.5t127 37.5q42 0 77.5 -28.5t39.5 -50.5q5 -29 29.5 -161t29.5 -173q4 -36 13 -94.5t14 -105t6 -91.5v-41q110 58 216.5 137t106.5 123q0 42 -27.5 58.5t-99.5 15.5q-40 -1 -82 -28t-61 -27q-18 0 -29 1.5t-23 15t-12 38.5q0 35 72 77t135 42 q150 0 212.5 -47.5t62.5 -145.5q0 -62 -77 -143t-174 -143.5t-180.5 -106t-101.5 -43.5q-36 0 -54 32.5t-24 135.5q-5 57 -24 184.5t-25 173.5q-30 225 -30 228q0 10 -4 12t-15 2h-4q-14 0 -137.5 -55.5t-141.5 -55.5q-26 0 -38.5 20.5t-12.5 47.5z" />
<glyph unicode="&#x44b;" horiz-adv-x="1083" d="M84 766q0 20 1 29.5t5.5 20t16 14.5t30.5 4q35 0 65.5 -11t33.5 -28q49 -287 59 -377q4 -36 13 -94.5t14 -105t6 -91.5v-37q112 59 215.5 135.5t103.5 120.5q0 41 -27 57t-98 15q-40 -1 -82 -28.5t-61 -27.5q-18 0 -29.5 2t-24 16t-12.5 40q0 23 34.5 51.5t84 49 t90.5 20.5q151 0 214 -48t63 -147q0 -43 -36.5 -95t-92.5 -99t-122 -92.5t-126 -78.5t-103.5 -53t-54.5 -20q-37 0 -55.5 33t-24.5 137q-5 57 -24 184.5t-25 173.5q-5 37 -18 117t-23 142.5t-10 70.5zM807 758q0 80 72 80q16 0 37 -13t24 -30q39 -261 47 -332q3 -23 10 -81 t10.5 -92.5t7.5 -82.5t5 -84q3 -170 -64 -170q-24 0 -38.5 10.5t-25.5 49t-15 110.5q-18 231 -37 373q-5 39 -15 100t-14 96t-4 66z" />
<glyph unicode="&#x44c;" horiz-adv-x="858" d="M111 766q0 19 1 28t5.5 19.5t15 14t29.5 3.5q35 0 64 -10t32 -26q49 -287 59 -377q4 -36 13 -94.5t14 -105t6 -91.5v-41q111 58 217.5 137t106.5 123q0 42 -27.5 58.5t-99.5 15.5q-40 -1 -82.5 -28t-61.5 -27q-13 0 -21 1t-19.5 5.5t-17 17t-5.5 31.5q0 35 72 77t135 42 q150 0 212 -47.5t62 -145.5q0 -51 -51 -114t-124.5 -118t-150.5 -102t-134.5 -74.5t-71.5 -27.5q-36 0 -54 32.5t-24 135.5q-5 57 -24 184.5t-25 173.5q-5 37 -18 117t-23 142.5t-10 70.5z" />
<glyph unicode="&#x44d;" horiz-adv-x="780" d="M86 569q-1 17 37 57t95.5 83t137.5 75.5t152 32.5q19 0 44 -4.5t58.5 -17t60 -31.5t45.5 -53t19 -76q0 -135 -24.5 -227t-69 -155t-131.5 -147q-66 -63 -155.5 -115t-125.5 -52q-56 0 -61 49q-1 16 39 46.5t102.5 74t96.5 77.5q96 96 138 190t42 210q0 36 -35 63t-76 25 q-41 -1 -108.5 -37t-133 -72.5t-100.5 -38.5q-43 0 -47 43zM113 330q0 53 80 69q46 8 160.5 45t142.5 35q20 -1 26 -1.5t14 -6t9.5 -16t1.5 -31.5q0 -35 -83 -78.5t-173.5 -71.5t-126.5 -28q-24 0 -37.5 26.5t-13.5 57.5z" />
<glyph unicode="&#x44e;" horiz-adv-x="1077" d="M39 375q0 59 76 74q-4 45 -12.5 107.5t-13.5 105.5t-3 65q1 20 4 31.5t17.5 23t39.5 11.5q36 0 66.5 -86t42.5 -172l12 -86q111 4 142 0q1 53 21.5 111t58 111t101.5 87.5t142 34.5q47 0 94.5 -18.5t89 -54.5t67.5 -97.5t26 -139.5q0 -95 -7 -164t-26 -130.5t-51.5 -98.5 t-85.5 -58.5t-127 -21.5q-48 0 -92 20t-76.5 51t-59.5 72.5t-44.5 82t-28.5 81.5h-133q28 -200 28 -268q0 -28 -18.5 -39.5t-61.5 -11.5q-20 0 -36 22.5t-27 64.5t-17.5 76.5t-14 87l-9.5 66.5q-84 7 -84 60zM553 397q0 -46 23 -105.5t59 -103t67 -43.5q36 0 64.5 11 t46.5 26t30.5 42t18.5 48.5t8.5 56.5t3 54.5t-0.5 54.5t-1 45q0 63 -42.5 123t-114.5 60q-64 0 -113 -68t-49 -201z" />
<glyph unicode="&#x44f;" horiz-adv-x="899" d="M66 61q-1 22 39 42t96 34q33 7 77 38t67.5 52.5t78.5 75.5q-71 -20 -135 -20q-73 0 -119.5 51.5t-52.5 136.5q-4 54 24 107t75.5 92.5t104.5 74t114 56.5t102 34t69 13q14 0 30.5 -3t38.5 -10.5t36.5 -25.5t15.5 -43q0 -14 -5.5 -23.5t-12 -14.5t-20.5 -7.5t-23 -3 t-28.5 -0.5h-27.5q-15 0 -70.5 -21.5t-120 -54.5t-113.5 -80t-46 -90q1 -17 7.5 -28t14 -17t23 -8.5t25.5 -3t31 -0.5h10q39 2 88.5 17.5t83.5 39.5q23 113 39 145q20 37 51 37q20 0 35.5 -5t25 -15t15.5 -20t8.5 -25t3.5 -23.5t1.5 -23.5t0.5 -17q3 -73 25.5 -233 t56.5 -246q16 -40 -5 -71t-52 -31q-32 0 -53.5 24.5t-41.5 77.5q-10 29 -31 80.5t-32 84t-12 54.5q-73 -97 -192.5 -190.5t-197.5 -93.5q-65 0 -92 19.5t-30 61.5z" />
<glyph unicode="&#x451;" horiz-adv-x="835" d="M61 457q1 19 31 67t81.5 106.5t111.5 113t130.5 91.5t129.5 37q18 0 29 -15t8 -34q-2 -15 -44.5 -50t-107 -82.5t-92.5 -72.5q-24 -22 -52 -64.5t-28 -57.5q0 -19 10 -19q30 1 100.5 28.5t129.5 54.5t65 26q12 -2 25 -16.5t12 -30.5q-2 -33 -16 -69.5t-27.5 -59 t-40.5 -64.5q-16 -25 -43.5 -64t-39.5 -58t-23.5 -47t-12.5 -54q-1 -22 17.5 -37.5t42.5 -15.5q38 0 105.5 47t125 94t70.5 47q26 0 42.5 -13.5t14.5 -33.5q-2 -14 -44.5 -61.5t-101.5 -101t-130 -95t-119 -41.5q-94 0 -144.5 50t-44.5 147q6 89 88 227q-24 -11 -42.5 -11 t-40.5 5.5t-41 5.5q-64 0 -100.5 37t-33.5 84zM139 1038q0 48 55 199.5t93 151.5q18 0 43 -22.5t24 -57.5q-1 -27 -15.5 -69t-31 -75t-36.5 -71t-23 -45q-11 -27 -30.5 -47.5t-37.5 -20.5q-19 0 -30 16t-11 41zM342 1024q0 48 54.5 199t92.5 151q18 0 43.5 -22.5t24.5 -57.5 q-1 -27 -15.5 -69t-31 -75t-36.5 -71t-23 -45q-37 -88 -68 -88q-18 0 -29.5 25.5t-11.5 52.5z" />
<glyph unicode="&#x452;" horiz-adv-x="854" d="M-227 920q-1 23 46.5 49.5t121 49.5t157.5 40q-16 191 -16 280q0 27 28 53.5t46 26.5q27 0 44.5 -27t22.5 -71q1 -13 6 -99.5t13 -146.5q161 33 252 37q39 1 63 -15t27 -40q3 -26 -29 -50t-70 -30q-183 -40 -243 -43q16 -84 18 -111q25 -277 25 -288q57 75 94.5 96.5 t109.5 23.5q50 5 124 -81.5t100 -182.5q75 -279 94 -479q23 -235 35 -426q12 -170 7 -221q-8 -90 -56 -90q-59 0 -90.5 13.5t-61.5 55.5q-22 32 -71.5 98.5t-89 125t-85.5 137.5q-7 12 -21.5 35.5t-23.5 39t-19.5 34t-15.5 32.5t-6 23q-1 26 8.5 34.5t36.5 10.5 q17 -1 46 -26.5t72 -78.5t75.5 -95.5t86.5 -116t75 -101.5q-26 172 -45 393q-1 16 -6 81t-7 85t-7.5 72t-10 81.5t-12.5 72.5t-17 83q-20 84 -58 147t-77 64q-25 1 -45.5 -26.5t-35.5 -81.5t-25 -109.5t-21 -134.5q-7 -52 -34.5 -79.5t-55.5 -27.5q-15 0 -25 10t-15.5 32.5 t-8 39.5t-5 51.5t-3.5 47.5q-37 366 -64 571q-10 89 -18 154q-49 -8 -112 -22t-105.5 -23.5t-57.5 -10.5q-62 -6 -65 54z" />
<glyph unicode="&#x453;" horiz-adv-x="724" d="M119 762q2 24 20 42.5t41 18.5q90 0 180 20.5t146.5 45.5t105 46.5t64.5 22.5q15 1 24.5 -1.5t13.5 -10t5.5 -14.5t2.5 -22t3 -25q6 -32 -72 -79t-175 -84.5t-165 -51.5q57 -169 39 -564q-2 -42 -22.5 -74t-50.5 -32q-37 0 -59.5 29.5t-22.5 89.5q0 285 -7 352 q-5 61 -38.5 167.5t-32.5 123.5zM225 1075q0 43 193 203q28 24 72 64t66 58.5t51.5 40.5t52 31t45.5 9q34 0 51 -13t16 -47q-2 -46 -105 -126q-33 -25 -151 -109q-197 -140 -240 -142q-17 -1 -28.5 -0.5t-17 7.5t-5.5 24z" />
<glyph unicode="&#x454;" horiz-adv-x="804" d="M37 233q0 106 52 216t126.5 189t155.5 130t139 51q26 0 42 -11t15 -38q-2 -28 -19.5 -45.5t-63.5 -43t-70 -42.5q-96 -68 -160 -163.5t-61 -205.5q1 -66 41 -104.5t85 -36.5q41 1 134 56.5t183.5 111t125.5 57.5q12 0 20.5 -2.5t15.5 -12.5t7 -28q0 -17 -55 -70.5 t-132.5 -112.5t-175 -105t-170.5 -46q-101 0 -168 66t-67 190zM221 332q0 29 22.5 49.5t55.5 26.5q52 9 162.5 61.5t136.5 50.5q20 -1 26 -1.5t14 -6t9.5 -16t1.5 -31.5q0 -35 -81.5 -85t-172 -84t-125.5 -34q-24 0 -36.5 20.5t-12.5 49.5z" />
<glyph unicode="&#x455;" horiz-adv-x="790" d="M78 244q0 14 16 36.5t37 22.5q11 0 34.5 -18.5t60 -52.5t57.5 -50q13 -10 36.5 -30.5t41.5 -36.5t26 -21q-137 502 -137 582v22v27.5t1.5 29t3.5 32.5t7 30.5t11.5 31t16.5 25t22.5 21.5t30 12.5t38.5 5.5q35 0 109.5 -72t136.5 -163.5t65 -140.5q6 -62 -33 -62 q-29 0 -71 37t-76.5 81.5t-67.5 81.5t-47 38q-20 0 -20 -25q-1 -9 2.5 -30t7.5 -41.5t12 -55t11 -51.5q16 -71 33 -132.5t42.5 -141t38.5 -125.5q16 -59 19 -121q0 -47 -11.5 -77.5t-33.5 -31.5q-35 -4 -137.5 67.5t-192.5 162.5t-90 133z" />
<glyph unicode="&#x456;" horiz-adv-x="600" d="M119 1120q-1 14 0 39q2 33 62.5 98.5t90.5 65.5q29 0 43.5 -16.5t12.5 -44.5q-3 -35 -73.5 -108t-94.5 -73q-20 0 -30 12.5t-11 26.5zM190 815q4 24 16 43t32 19q26 0 45.5 -38t30.5 -101.5t17 -126t9 -130.5q2 -57 14.5 -183t10.5 -177q-5 -109 -52 -109 q-24 0 -41.5 14.5t-27.5 43.5t-16.5 60.5t-9 77t-3 81t-1 85.5t-1.5 77q-2 56 -10 144t-12 146t-1 74z" />
<glyph unicode="&#x457;" horiz-adv-x="600" d="M66 1139q2 33 62.5 98.5t90.5 65.5q29 0 43 -16.5t12 -45.5q-3 -35 -73.5 -107.5t-94.5 -72.5q-29 0 -35.5 20t-4.5 58zM190 815q4 24 16 43t32 19q26 0 45.5 -38t30.5 -101.5t17 -126t9 -130.5q2 -57 14.5 -183t10.5 -177q-5 -109 -52 -109q-24 0 -41.5 14.5t-27.5 43.5 t-16.5 60.5t-9 77t-3 81t-1 85.5t-1.5 77q-2 56 -10 144t-12 146t-1 74zM258 1071q-1 14 0 39q2 33 63 98.5t91 65.5q29 0 43 -16.5t12 -45.5q-3 -35 -73.5 -107.5t-94.5 -72.5q-20 0 -30 12.5t-11 26.5z" />
<glyph unicode="&#x458;" horiz-adv-x="829" d="M-16 -176q0 23 21 37t48 16q19 1 77.5 -87.5t139.5 -225.5t115 -187q-20 347 -20 754q0 56 -1.5 142.5t-2 146t0 132.5t4.5 121.5t11.5 92t22 65t34.5 21.5q15 0 26 -3.5t17.5 -12t10.5 -16t5 -22t1.5 -22.5t0 -24.5t-0.5 -22.5q0 -17 -3.5 -230t-3.5 -278 q1 -230 14.5 -529t10.5 -450q0 -5 -0.5 -21t-1 -22.5t-1 -21t-2.5 -21.5t-4.5 -18t-7 -16.5t-10 -11.5t-13 -8.5t-17.5 -2.5q-36 0 -153 169t-217.5 347.5t-100.5 208.5zM283 1147q0 33 58.5 98.5t88.5 65.5q29 0 44 -17t13 -45q-1 -35 -69 -107.5t-92 -72.5q-15 0 -24.5 6 t-13 19.5t-4.5 23.5t-1 29z" />
<glyph unicode="&#x459;" horiz-adv-x="1226" d="M63 78q0 17 8.5 43.5t27.5 66t33 67t43 81t40 74.5q25 46 74 162t86.5 181.5t68.5 65.5q27 0 76.5 -98.5t94 -217.5t86.5 -218.5t55 -100.5q41 -4 117 47t136 125t58 125q-2 42 -30.5 58.5t-100.5 15.5q-32 -1 -76 -34.5t-82.5 -67t-56.5 -33.5t-29 1.5t-23.5 15 t-13.5 38.5q-2 23 48.5 74.5t118 95t106.5 43.5q286 0 286 -207q0 -51 -39 -118t-98 -128.5t-123.5 -114.5t-120.5 -84t-83 -30q-17 1 -32.5 4.5t-29 12.5t-23.5 15.5t-21.5 23t-17.5 24.5t-17.5 30.5t-15 30.5t-15.5 35.5t-15 34.5q-20 43 -127 334q-50 -111 -184 -399 q-4 -8 -14 -30.5t-15.5 -34t-16.5 -30t-20 -28.5t-22 -17.5t-27 -7.5q-26 0 -42.5 7.5t-22.5 21t-7.5 22.5t-1.5 23z" />
<glyph unicode="&#x45a;" horiz-adv-x="917" d="M68 406q0 59 77 73q-4 41 -11.5 106t-11 105.5t-1.5 63.5q1 21 24 37t41 16q29 1 52 -29.5t36.5 -79.5t20 -102t6.5 -104v-3q150 3 305 3q-6 43 -18 113.5t-20.5 121t-8.5 57.5q0 20 1 28.5t5.5 19t15 14.5t29.5 4q35 0 64.5 -10.5t32.5 -26.5q49 -287 59 -377 q4 -36 13 -94.5t14 -105t6 -91.5v-41q66 34 136.5 79.5t128.5 98t58 83.5q0 42 -27.5 58t-99.5 15q-40 -1 -82 -28t-61 -27q-18 0 -29 1.5t-23 15t-12 38.5q0 35 72 77t135 42q150 0 212.5 -47t62.5 -145q0 -62 -78 -144.5t-176 -146.5t-182.5 -109t-102.5 -45 q-34 0 -50 35.5t-22 140.5q-3 34 -8.5 70.5t-15 90t-14.5 87.5q-13 -3 -154.5 -1.5t-157.5 1.5q3 -31 8.5 -79t9 -82.5t3.5 -59.5q0 -46 -28.5 -78.5t-70.5 -32.5q-20 0 -35 10.5t-23 32t-13 43.5t-6.5 58t-1.5 61.5t1 66.5t1 62q-86 7 -86 60z" />
<glyph unicode="&#x45b;" horiz-adv-x="854" d="M-227 920q-1 23 46.5 49.5t121 49.5t157.5 40q-16 191 -16 280q0 27 28 53.5t46 26.5q27 0 44.5 -27t22.5 -71q1 -13 6 -99.5t13 -146.5q161 33 252 37q39 1 63 -15t27 -40q3 -26 -29 -50t-70 -30q-183 -40 -243 -43q16 -84 18 -111q25 -277 25 -288q57 75 94.5 96.5 t109.5 23.5q50 5 124 -81.5t100 -182.5q82 -304 82 -420q0 -49 -62 -49q-49 0 -119 301q-7 27 -10 41q-20 84 -58 147t-77 64q-25 1 -45.5 -26.5t-35.5 -81.5t-25 -109.5t-21 -134.5q-7 -52 -34.5 -79.5t-55.5 -27.5q-15 0 -25 10t-15.5 32.5t-8 39.5t-5 51.5t-3.5 47.5 q-37 366 -64 571q-10 89 -18 154q-49 -8 -112 -22t-105.5 -23.5t-57.5 -10.5q-62 -6 -65 54z" />
<glyph unicode="&#x45c;" horiz-adv-x="868" d="M98 670q0 50 21 77t47 27q29 0 51.5 -25t22.5 -57q0 -47 13 -162t15 -186q22 22 120 130t176 187.5t95 79.5q33 0 45 -9.5t13 -39.5q3 -35 -25.5 -83.5t-61.5 -85.5t-100 -107t-100 -107q30 -26 127 -84.5t171.5 -108.5t76.5 -71q2 -34 -11 -48.5t-57 -14.5 q-43 0 -181 76.5t-216 140.5q-4 -5 -24.5 -29t-32.5 -41q6 -89 -8 -118t-52 -29q-36 0 -51 10.5t-16 38.5q-1 16 -4.5 64.5t-8.5 103.5q-7 82 -18.5 190t-19 180.5t-7.5 100.5zM258 905q0 43 193 203q29 25 72 64t65 58.5t51.5 41t52 30.5t45.5 9q34 0 51.5 -13t16.5 -47 q-2 -46 -105 -126q-33 -25 -151 -109q-197 -140 -240 -142q-17 -1 -28.5 -0.5t-17 7.5t-5.5 24z" />
<glyph unicode="&#x45e;" horiz-adv-x="847" d="M63 664q0 110 64 110q28 0 46.5 -28.5t21.5 -81.5q5 -119 43 -273.5t73 -154.5q26 0 127 151t137 240q5 14 9 41.5t7.5 45t18 32t41.5 14.5q40 0 59.5 -27t19 -63t-1.5 -73q-1 -10 -1 -15q-3 -107 -2.5 -146t5 -138.5t5.5 -154.5q3 -117 26.5 -269t45.5 -260.5t22 -125.5 q0 -33 -13 -62.5t-42 -29.5q-48 0 -102.5 214t-75.5 464q-8 91 -12 286q-24 -38 -57.5 -84.5t-82 -106t-97.5 -99t-83 -39.5q-50 0 -98 111t-75.5 258t-27.5 264zM227 979q1 20 125 94.5t255.5 140.5t156.5 68q32 3 51 -20.5t19 -57.5q0 -16 -4.5 -29t-8.5 -21t-17 -17 t-17.5 -11.5t-22.5 -10.5t-21 -9q-97 -47 -259.5 -117.5t-194.5 -70.5q-17 0 -25 1t-19 6.5t-15 18.5t-3 35z" />
<glyph unicode="&#x45f;" horiz-adv-x="927" d="M137 497v56q0 37 1.5 63t7 52.5t15.5 42.5t27 26.5t41 10.5q38 0 49 -38t11 -128q0 -146 11.5 -258.5t39.5 -112.5q34 0 90.5 53.5t108.5 126.5q24 33 42.5 88t28 97.5t29.5 75t49 32.5q22 0 38 -7.5t25.5 -19.5t16 -35t9.5 -44t7 -58q2 -25 2.5 -88.5t4.5 -121.5 t14 -101q9 -39 40.5 -81.5t28.5 -66.5q-10 -67 -75 -67q-92 0 -129 141q-1 5 -4.5 16.5t-4.5 15t-3.5 13t-3 14t-2.5 13t-2.5 14.5t-2 15t-2 17.5t-1 19.5t-1.5 24q-22 -29 -46 -58t-65 -70t-80 -71t-87 -51.5t-91 -21.5q-20 0 -37.5 9.5t-30 30t-23 42t-17.5 57t-12.5 62 t-8.5 70t-4.5 68.5t-2.5 70.5t-1 62.5zM369 -422q2 13 57.5 173t67.5 212q3 17 7 45.5t7 44t10 33t20.5 25.5t34.5 8q27 0 43.5 -6.5t23 -23.5t8 -30t1.5 -41q0 -14 -3 -31.5t-11 -41.5t-14 -41.5t-20.5 -51t-21.5 -48.5t-25 -56t-24 -53q-29 -67 -63 -120.5t-55 -53.5 q-50 0 -43 57z" />
<glyph unicode="&#x490;" horiz-adv-x="647" d="M86 1126q-4 22 8 40t26 27t44 24q10 153 67 153q19 0 31.5 -9t18 -26.5t7.5 -31t3 -33.5q135 48 264.5 112.5t132.5 104.5q4 58 -4 224.5t-8 176.5q0 23 19.5 38.5t45.5 15.5q34 0 54.5 -26t23.5 -97q1 -17 3 -84t3 -103t2 -89t0 -85.5t-4 -48.5q-3 -19 -24 -41t-58 -46 t-76.5 -46.5t-94 -49t-95 -45.5t-95.5 -44t-81 -37q4 -46 15 -171t20.5 -249.5t15.5 -239.5q19 -315 19 -424q0 -73 -70 -73q-31 0 -49.5 20.5t-18.5 52.5q0 283 -18 447q-13 104 -23 231t-17 234.5t-9 132.5q-25 -9 -49 12.5t-29 52.5z" />
<glyph unicode="&#x491;" horiz-adv-x="724" d="M119 762q1 23 19.5 41.5t41.5 19.5q110 4 246 39.5t139 83.5q8 156 8 279q0 29 20.5 43t49.5 14q19 0 33.5 -19t23 -51.5t14 -70t7.5 -81t3 -76.5t1 -63.5v-35.5q1 -42 -54.5 -78.5t-150.5 -73.5q-144 -51 -207 -63q57 -169 39 -564q-2 -42 -22.5 -74t-50.5 -32 q-37 0 -59.5 29.5t-22.5 89.5q0 285 -7 352q-5 61 -38.5 167.5t-32.5 123.5z" />
<glyph unicode="&#x2000;" horiz-adv-x="1002" />
<glyph unicode="&#x2001;" horiz-adv-x="2005" />
<glyph unicode="&#x2002;" horiz-adv-x="1002" />
<glyph unicode="&#x2003;" horiz-adv-x="2005" />
<glyph unicode="&#x2004;" horiz-adv-x="668" />
<glyph unicode="&#x2005;" horiz-adv-x="501" />
<glyph unicode="&#x2006;" horiz-adv-x="334" />
<glyph unicode="&#x2007;" horiz-adv-x="334" />
<glyph unicode="&#x2008;" horiz-adv-x="250" />
<glyph unicode="&#x2009;" horiz-adv-x="401" />
<glyph unicode="&#x200a;" horiz-adv-x="111" />
<glyph unicode="&#x2010;" d="M327.5 441q5.5 19 28.5 26l34 8q33 8 41.5 9.5t45 8.5t58.5 9.5l66 7.5t84 6.5t95.5 3.5t116.5 2q46 0 100.5 -7t102 -26.5t45.5 -46.5q-2 -42 -96 -47q-23 0 -69 0.5t-83.5 0.5t-67.5 -1q-49 -1 -203.5 -15.5t-174.5 -14.5q-8 0 -31 -1t-34 -0.5t-26 3.5t-22.5 11.5 t-9.5 22.5q-6 21 -0.5 40z" />
<glyph unicode="&#x2011;" d="M327.5 441q5.5 19 28.5 26l34 8q33 8 41.5 9.5t45 8.5t58.5 9.5l66 7.5t84 6.5t95.5 3.5t116.5 2q46 0 100.5 -7t102 -26.5t45.5 -46.5q-2 -42 -96 -47q-23 0 -69 0.5t-83.5 0.5t-67.5 -1q-49 -1 -203.5 -15.5t-174.5 -14.5q-8 0 -31 -1t-34 -0.5t-26 3.5t-22.5 11.5 t-9.5 22.5q-6 21 -0.5 40z" />
<glyph unicode="&#x2012;" d="M327.5 441q5.5 19 28.5 26l34 8q33 8 41.5 9.5t45 8.5t58.5 9.5l66 7.5t84 6.5t95.5 3.5t116.5 2q46 0 100.5 -7t102 -26.5t45.5 -46.5q-2 -42 -96 -47q-23 0 -69 0.5t-83.5 0.5t-67.5 -1q-49 -1 -203.5 -15.5t-174.5 -14.5q-8 0 -31 -1t-34 -0.5t-26 3.5t-22.5 11.5 t-9.5 22.5q-6 21 -0.5 40z" />
<glyph unicode="&#x2013;" d="M159 543q5 21 31 28q73 19 164 37t268.5 38t346.5 20q37 0 81.5 -4.5t90.5 -14.5t75.5 -28t28.5 -41q-2 -48 -106 -54q-31 0 -119.5 2.5t-130.5 1.5q-43 -1 -276 -34t-318 -35q-6 0 -24 -1t-26.5 -1h-23.5t-23 3t-17.5 7.5t-14.5 13t-6 19.5q-6 22 -1 43z" />
<glyph unicode="&#x2014;" horiz-adv-x="1626" d="M159 543q5 21 31 28q129 33 963 33q37 0 81.5 -4.5t90.5 -14.5t76 -28t29 -41q-2 -47 -107 -53q-31 0 -119.5 2.5t-130.5 1.5q-34 -1 -361.5 -3.5t-416.5 -4.5q-6 0 -24 -1t-26.5 -1h-23.5t-23 3t-17.5 7.5t-14.5 13t-6 19.5q-6 22 -1 43z" />
<glyph unicode="&#x2018;" horiz-adv-x="600" d="M137 1499q0 27 0.5 39.5t5 31.5t13.5 27.5t26 15.5t43 7q22 0 37 -8t23.5 -20t14.5 -32.5t8 -38t6 -45t8 -46.5q15 -66 84 -273t71 -223q3 -31 -6.5 -42t-42.5 -11q-46 0 -143 217q-103 226 -126 297q-22 66 -22 104z" />
<glyph unicode="&#x2019;" horiz-adv-x="677" d="M199 944q2 16 71 223t84 273q4 19 8 46.5t6 45t8 38t14.5 32.5t23.5 20t37 8q26 0 43 -7t26 -15.5t13.5 -27.5t5 -31.5t0.5 -39.5q0 -36 -21.5 -100.5t-44 -117.5t-65.5 -146q-11 -25 -17 -37q-97 -217 -143 -217q-33 0 -42.5 11t-6.5 42z" />
<glyph unicode="&#x201a;" horiz-adv-x="761" d="M135 -377q2 16 71.5 223t84.5 273q4 21 8.5 55t8 53.5t12 40.5t25 31t42.5 10t43 -7t26 -15.5t13.5 -27.5t5 -31.5t0.5 -39.5q0 -37 -21.5 -102t-46.5 -122.5t-66 -148.5q-9 -19 -13 -28q-97 -217 -144 -217q-33 0 -42.5 11t-6.5 42z" />
<glyph unicode="&#x201c;" horiz-adv-x="847" d="M88 1513q0 27 0.5 39.5t5 31.5t13.5 27.5t26 15.5t43 7t42.5 -10t25 -31t12 -40.5t8 -53.5t8.5 -55q15 -66 84.5 -273t71.5 -223q3 -31 -6.5 -42t-42.5 -11q-46 0 -143 217q-103 226 -126 297q-22 66 -22 104zM424 1530q0 27 0.5 39.5t5 31.5t13.5 27.5t26 15.5t43 7 t42.5 -10t24.5 -31.5t12 -41t8.5 -53.5t8.5 -55q15 -66 84.5 -272.5t71.5 -222.5q3 -32 -6.5 -43t-42.5 -11q-47 0 -144 217q-53 116 -74 164t-47 123.5t-26 114.5z" />
<glyph unicode="&#x201d;" horiz-adv-x="864" d="M63 954q2 16 71.5 223t84.5 273q4 21 8.5 55t8 53.5t12 40.5t25 31t42.5 10t43 -6.5t26 -15t13.5 -27.5t5 -31.5t0.5 -39.5q0 -39 -26 -114.5t-47 -123.5t-74 -164q-22 -49 -35.5 -78t-35.5 -71t-40 -63t-32 -21q-57 0 -50 69zM399 938q2 16 71.5 223t84.5 273 q4 21 8.5 55t8 53.5t12 40.5t25 31t42.5 10t43 -7t26 -15.5t13.5 -27.5t5 -31.5t0.5 -39.5q0 -37 -21.5 -102t-46.5 -122.5t-66 -148.5q-9 -19 -13 -28q-97 -217 -143 -217q-33 0 -43 11t-7 42z" />
<glyph unicode="&#x201e;" horiz-adv-x="1091" d="M182 -377q2 16 71.5 223t84.5 273q4 21 8.5 55t8 53.5t12 40.5t25 31t42.5 10t43 -7t26 -15.5t13.5 -27.5t5 -31.5t0.5 -39.5q0 -37 -21.5 -102t-46.5 -122.5t-66 -148.5q-9 -19 -13 -28q-97 -217 -144 -217q-33 0 -42.5 11t-6.5 42zM518 -393q2 16 71.5 222.5 t84.5 272.5q4 21 8.5 55t8.5 53.5t12 41t24.5 31.5t42.5 10t43 -7t26 -15.5t13.5 -27.5t5 -31.5t0.5 -39.5q0 -37 -21.5 -102t-46.5 -122.5t-66 -148.5q-9 -19 -13 -28q-97 -217 -144 -217q-33 0 -42.5 11t-6.5 42z" />
<glyph unicode="&#x2022;" horiz-adv-x="1103" d="M389 590.5q-7 71.5 37 126.5t115.5 62t126.5 -38q55 -44 62 -114t-38 -125q-44 -55 -115 -63t-126 36t-62 115.5z" />
<glyph unicode="&#x2026;" horiz-adv-x="1562" d="M311 82q3 28 79.5 87.5t117.5 59.5q34 0 54 -19t20 -46q0 -44 -61 -94.5t-128 -49.5q-49 1 -67 16t-15 46zM688 74q3 28 79.5 87.5t117.5 59.5q34 0 53.5 -18.5t19.5 -46.5q0 -44 -60.5 -94.5t-127.5 -49.5q-49 1 -67 16t-15 46zM1049 82q3 28 79 87.5t117 59.5 q34 0 54 -19t20 -46q0 -44 -61 -94.5t-128 -49.5q-49 1 -66.5 16t-14.5 46z" />
<glyph unicode="&#x202f;" horiz-adv-x="401" />
<glyph unicode="&#x2039;" horiz-adv-x="780" d="M139 469q-2 8 2 20.5t17 32.5t24.5 36t34.5 44t35 42t38.5 44.5t33.5 38.5q116 147 154 187q64 66 97 65q32 -1 46 -17t16 -49q0 -19 -19 -49t-61.5 -80.5t-54.5 -66.5q-118 -156 -187 -234q15 -16 51.5 -53.5t68.5 -72t61 -70.5q8 -9 36.5 -41t39 -46.5t22.5 -43 t12 -56.5q3 -46 -16.5 -73t-52.5 -27q-22 0 -43.5 17t-26.5 49q-6 29 -30 61.5t-58 68t-47 52.5q-29 38 -78.5 90t-81.5 86t-33 45z" />
<glyph unicode="&#x203a;" horiz-adv-x="784" d="M180 915q-1 29 26.5 43.5t65.5 14.5q24 -1 58.5 -25t61.5 -50t70 -70t62 -62q3 -2 21.5 -19.5t24 -23l22.5 -22.5t24 -26t20.5 -25.5t20 -29t14 -28.5t10.5 -31t3 -31q0 -38 -10.5 -72t-36 -69t-46 -59t-62.5 -68t-64 -69q-74 -83 -124.5 -122.5t-94.5 -39.5 q-35 0 -47 10.5t-9 40.5q1 19 15 38.5t33 37.5t62.5 60t84.5 85q101 113 129 159q23 38 23 62q-2 40 -134 162q-103 89 -153 139q-8 8 -24.5 23t-23.5 22.5t-14 20t-8 24.5z" />
<glyph unicode="&#x205f;" horiz-adv-x="501" />
<glyph unicode="&#x20ac;" horiz-adv-x="1058" d="M41 420l27 45h100q-2 12 -2 51q0 5 1 21t1 22h-127l27 47h104q14 102 44.5 176t86 128.5t141 81t203.5 26.5q229 0 320 -82l10 -109h-37q-13 69 -84 104.5t-182 35.5q-90 0 -155 -24t-106.5 -72.5t-64 -112.5t-33.5 -152h557l-26 -47h-535q0 -6 -1 -22t-1 -23 q0 -37 2 -49h482l-27 -45h-453q17 -180 108.5 -274.5t252.5 -94.5q66 0 119.5 13.5t94.5 46.5t52 84h37l-10 -105q-94 -90 -320 -90q-432 0 -473 420h-133z" />
<glyph unicode="&#x2122;" horiz-adv-x="1470" d="M8 1364q2 43 55 74t148 37q58 4 135 13.5t84 10.5q58 5 78 -76q2 -12 -2 -22t-15.5 -17.5t-22.5 -13t-33 -11t-37 -8.5t-44 -9q-5 -1 -8.5 -1.5t-8.5 -1.5t-9 -2q42 -129 28 -444q-2 -37 -21 -65.5t-46 -28.5q-33 0 -53.5 25.5t-20.5 78.5q0 101 -29 418q-8 -1 -39.5 -8 t-42 -7.5t-41.5 1.5q-26 3 -40.5 23t-14.5 34zM436 887q0 32 45.5 178.5t83.5 237.5q1 2 9 24.5t12 31.5t12.5 29t15 30t16 22.5t19 18t19.5 5.5t18.5 -7.5t19.5 -29.5t17 -38t22 -56q14 -39 46.5 -143t46.5 -139q76 217 100 282q14 37 21 53.5t18.5 38.5t21.5 30.5t21 8.5 q32 0 65 -65t68 -163.5t51 -129.5q12 -24 42 -80t43.5 -85.5t13.5 -43.5q0 -27 -18 -47.5t-48 -20.5q-20 0 -38 12.5t-38 44t-30.5 52.5t-34.5 70q-6 13 -19.5 47.5t-30.5 79t-26 65.5q-19 -60 -47 -131.5t-68 -141t-67 -69.5q-42 0 -96 110t-87 226q-5 -20 -15 -62 t-18 -73.5t-19.5 -73.5t-22 -72t-22.5 -57.5t-24.5 -42t-25.5 -14.5q-29 0 -50.5 27.5t-21.5 60.5z" />
<glyph unicode="&#x25fc;" horiz-adv-x="870" d="M0 0v870h870v-870h-870z" />
</font>
</defs>
</svg>
