<?xml version="1.0" standalone="no"?>
<!DOCTYPE svg PUBLIC "-//W3C//DTD SVG 1.1//EN" "http://www.w3.org/Graphics/SVG/1.1/DTD/svg11.dtd" >
<svg xmlns="http://www.w3.org/2000/svg" xmlns:xlink="http://www.w3.org/1999/xlink" version="1.1">
<metadata>
Created by FontForge 20141024 at Mon Dec  8 22:43:55 2014
 By System Administrator
Cyrillic characters are (c) Gavin Helf, 1993-1995.  All Rights Reserved.
</metadata>
<defs>
<font id="ER-Architect1251" horiz-adv-x="499" >
  <font-face 
    font-family="ER Architect 1251"
    font-weight="400"
    font-stretch="normal"
    units-per-em="1000"
    panose-1="0 0 0 0 0 0 0 0 0 0"
    ascent="800"
    descent="-200"
    x-height="434"
    cap-height="643"
    bbox="-44 -231 834 862"
    underline-thickness="20"
    underline-position="-144"
    unicode-range="U+0020-2219"
  />
<missing-glyph horiz-adv-x="862" 
d="M53 0v862h756v-862h-756zM756 53v756h-650v-756h650z" />
    <glyph glyph-name=".notdef" horiz-adv-x="862" 
d="M53 0v862h756v-862h-756zM756 53v756h-650v-756h650z" />
    <glyph glyph-name="NULL" horiz-adv-x="0" 
 />
    <glyph glyph-name="nonmarkingreturn" horiz-adv-x="249" 
 />
    <glyph glyph-name="space" unicode=" " horiz-adv-x="249" 
 />
    <glyph glyph-name="exclam" unicode="!" horiz-adv-x="183" 
d="M80 640q0 11 11 11t11 -11v-432q0 -11 -11 -11t-11 11v432zM60 38q0 20 10 32.5t24 12.5t23.5 -14.5t9.5 -33.5q0 -18 -10.5 -30.5t-25.5 -12.5q-13 0 -22 14t-9 32z" />
    <glyph glyph-name="quotedbl" unicode="&#x22;" horiz-adv-x="259" 
d="M197 637q0 11 11 11t11 -11v-199q0 -11 -11 -11t-11 11v199zM47 637q0 11 11 11t11 -11v-199q0 -11 -11 -11t-11 11v199z" />
    <glyph glyph-name="numbersign" unicode="#" horiz-adv-x="613" 
d="M122 495h141l56 150q3 7 10 7q5 0 9 -4t2 -10l-54 -143h132l57 150q3 7 9 7q5 0 9 -4t2 -10l-54 -143h130q11 0 11 -11t-11 -11h-138l-79 -211h136q11 0 11 -11t-11 -11h-145l-91 -245q-3 -7 -10 -7q-5 0 -8.5 4.5t-1.5 10.5l88 237h-132l-91 -245q-3 -7 -10 -7
q-5 0 -9 4.5t-2 10.5l89 237h-125q-11 0 -11 11t11 11h133l80 211h-133q-11 0 -11 11t11 11zM410 473h-132l-79 -211h132z" />
    <glyph glyph-name="dollar" unicode="$" horiz-adv-x="475" 
d="M235 681q0 11 12 11q11 0 11 -11v-747q0 -11 -11 -11q-12 0 -12 11v747zM377 530q5 -3 5 -9q0 -4 -2 -7q-6 -8 -14 -2q-38 24 -73 34.5t-68 10.5q-77 0 -127 -61q-44 -53 -44 -118q0 -36 16 -57.5t48 -21.5q19 0 44.5 10.5t55.5 32.5q38 23 68 33t55 10q44 0 66 -30.5
t22 -79.5q0 -85 -53 -158q-59 -82 -144 -82q-44 0 -89.5 22t-95.5 74q-5 6 -1 12t11 6q4 0 7 -3q44 -47 88 -69t81 -22q75 0 127 76q47 68 47 146q0 41 -17 66.5t-51 25.5q-22 0 -48 -10.5t-60 -35.5q-36 -22 -65.5 -31.5t-54.5 -9.5q-39 0 -59.5 26t-20.5 67q0 73 52 134
q58 69 146 69q34 0 71 -11.5t77 -36.5z" />
    <glyph glyph-name="percent" unicode="%" horiz-adv-x="608" 
d="M358 655q3 7 9 7q5 0 9 -4.5t3 -10.5l-205 -651q-1 -7 -9 -7q-5 0 -9 4.5t-3 10.5zM232 494q-17 -37 -48.5 -62t-68.5 -25q-20 0 -40 9q-27 14 -40.5 40t-13.5 58q0 18 5 38t13 36q19 36 46 57q32 25 67 25q18 0 35 -7q30 -13 45 -40.5t15 -60.5q0 -17 -4 -34.5
t-11 -33.5zM520 73q-17 -37 -48.5 -62t-68.5 -25q-20 0 -40 9q-27 14 -40.5 40t-13.5 58q0 18 5 38t13 36q19 36 46 57q32 25 67 25q19 0 36 -7q30 -13 44.5 -40.5t14.5 -60.5q0 -17 -4 -34.5t-11 -33.5zM211 503q13 27 13 59q0 62 -46 81q-7 3 -16 4t-10 1q-27 0 -52 -19.5
t-41 -49.5t-16 -66q0 -57 41 -76q14 -7 31 -7q28 0 55 21t41 52zM500 82q13 26 13 59q0 28 -11.5 49.5t-35.5 31.5q-7 3 -16 4t-10 1q-27 0 -52 -19.5t-41 -49.5t-16 -66q0 -57 41 -76q14 -7 31 -7q29 0 55.5 20.5t41.5 52.5z" />
    <glyph glyph-name="ampersand" unicode="&#x26;" horiz-adv-x="584" 
d="M518 79q3 4 8 4q6 0 10 -6t-1 -12l-47 -53l-18 1q-1 0 -57 84.5t-115 177.5q-67 105 -89 146l2 -2q-25 30 -37.5 61t-12.5 56q0 55 43 90.5t95 35.5q39 0 64 -22.5t25 -68.5q0 -74 -86 -120q-80 -41 -160 -81q-87 -60 -87 -165q0 -100 28 -148q25 -43 72 -43
q74 0 178 102q95 93 133 182q3 6 9 6t10 -4t2 -11q-36 -88 -141 -187q-116 -110 -199 -110q-53 0 -82 47q-32 53 -32 166q0 117 86 183q18 14 160 83q87 42 87 100q0 35 -20.5 52.5t-50.5 17.5q-42 0 -78 -29.5t-36 -74.5q0 -24 11 -49t35 -54l2 -2q21 -40 87 -143
q73 -114 164 -251z" />
    <glyph glyph-name="quotesingle" unicode="'" horiz-adv-x="106" 
d="M44 640q0 11 11 11t11 -11v-205q0 -11 -11 -11t-11 11v205z" />
    <glyph glyph-name="parenleft" unicode="(" horiz-adv-x="307" 
d="M244 650q3 4 8 4q11 0 11 -12q0 -4 -3 -7q-85 -99 -121.5 -192.5t-36.5 -220.5q0 -135 35 -231.5t123 -196.5q6 -6 2 -12.5t-11 -6.5q-4 0 -7 4q-89 100 -126.5 202.5t-37.5 240.5q0 132 37.5 229t126.5 199z" />
    <glyph glyph-name="parenright" unicode=")" horiz-adv-x="279" 
d="M42 635q-6 6 -2 12.5t11 6.5q4 0 7 -4q87 -100 125.5 -198.5t38.5 -229.5q0 -140 -36.5 -240.5t-127.5 -202.5q-3 -4 -8 -4q-11 0 -11 12q0 4 3 7q86 99 121.5 196t35.5 232q0 128 -35.5 220.5t-121.5 192.5z" />
    <glyph glyph-name="asterisk" unicode="*" horiz-adv-x="360" 
d="M252 653q3 4 7 4q8 0 10.5 -7.5t-0.5 -11.5l-172 -208q-3 -4 -7 -4q-8 0 -10.5 7.5t0.5 11.5zM263 441q4 -6 0.5 -11.5t-9.5 -5.5q-4 0 -7 4l-169 217q-4 5 -1 11t9 6q5 0 8 -5zM52 510q-13 0 -13 13q0 9 9 9l249 44q13 0 13 -13q0 -9 -9 -9z" />
    <glyph glyph-name="plus" unicode="+" 
d="M452 227q11 0 11 -11t-11 -11h-408q-10 0 -10 11t10 11h408zM241 413q0 11 11 11t11 -11v-413q0 -11 -11 -11t-11 11v413z" />
    <glyph glyph-name="comma" unicode="," horiz-adv-x="185" 
d="M48 35q0 51 42 51q25 0 38 -17t13 -50q1 -4 1 -14q0 -19 -7 -38t-22 -34q-20 -19 -33.5 -25t-32.5 -6q-10 0 -16 5t-6 12q0 12 18 17q35 13 40 16q20 15 20 47q-12 -6 -23 -6q-16 0 -24 12t-8 30z" />
    <glyph glyph-name="hyphen" unicode="-" horiz-adv-x="294" 
d="M36 232q-12 0 -12 12q0 10 10 10l220 19q12 0 12 -12q0 -10 -10 -10z" />
    <glyph glyph-name="hyphen" unicode="&#xad;" horiz-adv-x="294" 
d="M36 232q-12 0 -12 12q0 10 10 10l220 19q12 0 12 -12q0 -10 -10 -10z" />
    <glyph glyph-name="period" unicode="." horiz-adv-x="166" 
d="M46 41q0 17 11.5 28.5t26.5 11.5q14 0 25 -13.5t11 -29.5q0 -17 -11.5 -28.5t-27.5 -11.5q-15 0 -25 13t-10 30z" />
    <glyph glyph-name="slash" unicode="/" horiz-adv-x="307" 
d="M242 646q3 8 9 8q14 0 11 -15l-202 -632q-1 -7 -9 -7q-14 0 -11 15z" />
    <glyph glyph-name="zero" unicode="0" horiz-adv-x="599" 
d="M346 637q99 0 156.5 -69.5t57.5 -193.5q0 -125 -96 -248q-107 -137 -248 -137q-88 0 -139 92q-44 80 -44 188q0 125 86 240q96 128 227 128zM346 615q-117 0 -208 -120q-83 -110 -83 -226q0 -101 41 -175q46 -83 120 -83q129 0 230 129q91 117 91 234q0 118 -50.5 179.5
t-140.5 61.5z" />
    <glyph glyph-name="one" unicode="1" horiz-adv-x="264" 
d="M57 513q-6 -6 -12 -2.5t-6 10.5q0 4 3 7l125 125l19 -8v-645q0 -11 -11 -11q-12 0 -12 11v620z" />
    <glyph glyph-name="two" unicode="2" horiz-adv-x="536" 
d="M61 432q0 -11 -11 -11t-11 11q0 108 75 173q67 58 160 58q76 0 127 -41q56 -45 56 -123q0 -84 -98 -181q-1 -1 -186 -157q-103 -87 -109 -141h368v91q0 11 11 11t11 -11v-102l-11 -11h-390l-11 11q0 68 101 160q94 80 189 160q103 96 103 170q0 67 -47.5 104t-115.5 37
q-83 0 -143 -51q-68 -58 -68 -157z" />
    <glyph glyph-name="three" unicode="3" horiz-adv-x="570" 
d="M535 260q0 -115 -98 -195q-93 -76 -215 -76q-113 0 -154 65q-26 41 -26 121q0 10 6 10l13 2q1 -6 3 -12q0 -81 19 -111q33 -53 139 -53q112 0 199 71q91 75 91 178q0 91 -50 134q-43 37 -112 37q-55 0 -106 -21t-62 -46q-3 -7 -13 1t-5 12l263 226v29h-319v-108
q0 -11 -11 -11t-11 11v119q0 11 11 11h341q11 0 11 -11v-45l-4 -8l-172 -148q39 12 83 12q77 0 123 -41q56 -50 56 -153z" />
    <glyph glyph-name="four" unicode="4" horiz-adv-x="570" 
d="M380 3q0 -11 -11 -11q-12 0 -12 11v611l-311 -385l476 78q12 0 12 -13q0 -9 -9 -9l-504 -83l-10 19l349 432l20 -8v-642z" />
    <glyph glyph-name="five" unicode="5" horiz-adv-x="541" 
d="M445 648q12 0 12 -12q0 -10 -10 -10l-383 -35l2 -224q30 37 74 60q63 33 148 33q87 0 145 -43q68 -51 68 -146q0 -122 -96 -202q-90 -75 -206 -75q-61 0 -106 37q-49 40 -49 103q0 15 12 15q10 0 10 -10q7 -58 44 -90t89 -32q109 0 191 68q89 74 89 186q0 86 -58 129
q-51 38 -133 38q-113 0 -179 -56q-21 -18 -43 -56l-22 4l-2 271l10 11z" />
    <glyph glyph-name="six" unicode="6" horiz-adv-x="613" 
d="M530 560q3 -4 1 -10.5t-10 -6.5q-6 0 -9 5q-32 45 -68 65.5t-77 20.5q-108 0 -205.5 -124.5t-97.5 -246.5q0 -95 64.5 -169.5t156.5 -74.5q106 0 183.5 68t77.5 168q0 62 -46 89q-37 22 -107 22q-90 0 -181 -73q-68 -54 -122 -136q-3 -5 -9 -5q-5 0 -9.5 6t-0.5 12
q78 115 168 171q76 47 154 47q72 0 117 -26q58 -34 58 -107q0 -110 -84 -184t-199 -74q-103 0 -173 80.5t-70 185.5q0 130 99 258q103 134 222 134q45 0 87 -22.5t80 -72.5z" />
    <glyph glyph-name="seven" unicode="7" horiz-adv-x="460" 
d="M66 517q0 -11 -11 -11t-11 11v80l10 11q102 13 156 19q163 20 195 26l13 -12q0 -41 -71 -170q-131 -239 -134 -245q-72 -146 -72 -219q0 -19 -10 -19q-12 0 -12 12q9 80 74 220q24 52 122 238q69 130 78 170l-327 -41v-70z" />
    <glyph glyph-name="eight" unicode="8" horiz-adv-x="599" 
d="M85 35q-25 28 -38 59.5t-13 59.5q0 60 49 117q45 53 129 97q-33 0 -60.5 17t-37.5 53q-6 23 -6 44q0 48 29 86t81 66q60 34 127 34q37 0 63.5 -12.5t40 -41t13.5 -55.5q0 -42 -29 -80q-23 -31 -66 -59q18 2 35.5 4t32.5 2q40 0 71 -10.5t46 -35.5q20 -40 20 -80
q0 -56 -39 -112q-30 -43 -88 -91q-54 -44 -124 -70t-133 -26q-34 0 -59.5 8t-43.5 26zM137 443q5 -29 32.5 -41t62.5 -12h12q7 0 17 2l34 12q56 25 94 60q51 46 51 95q0 23 -12 47q-8 20 -31 30t-54 10q-60 0 -111.5 -29t-75.5 -60t-24 -73q0 -16 5 -41zM296 381l-22 -7
q-101 -44 -159 -102t-58 -119q0 -28 10.5 -52.5t34.5 -50.5q21 -27 82 -27q59 0 128.5 25t117.5 66q54 45 83 86q36 51 36 101q0 35 -17 69q-6 18 -30 25.5t-61 7.5q-36 0 -74 -6t-71 -16z" />
    <glyph glyph-name="nine" unicode="9" horiz-adv-x="580" 
d="M48 137q-5 14 11 14q8 0 9 -7q27 -68 75 -103q44 -32 101 -32q106 0 188 99q89 107 89 268q0 113 -41 175q-54 82 -181 82q-75 0 -140 -59t-65 -135q0 -59 50.5 -104t115.5 -45q86 0 159 57q82 64 82 157q0 10 10 10q13 0 13 -12q0 -103 -89 -172q-80 -62 -175 -62
q-74 0 -131 51t-57 120q0 87 71 152t156 65q136 0 197 -92q47 -71 47 -188q0 -166 -96 -281q-90 -108 -204 -108q-62 0 -113 37t-82 113z" />
    <glyph glyph-name="colon" unicode=":" horiz-adv-x="189" 
d="M71 41q0 17 11.5 28.5t26.5 11.5q14 0 25 -13.5t11 -29.5q0 -17 -11.5 -28.5t-27.5 -11.5q-15 0 -25 13t-10 30zM71 375q0 17 12 29t26 12q15 0 25.5 -13.5t10.5 -30.5t-11.5 -28.5t-27.5 -11.5q-15 0 -25 13t-10 30z" />
    <glyph glyph-name="semicolon" unicode=";" horiz-adv-x="185" 
d="M63 376q0 18 11 29t27 11q14 0 25 -13.5t11 -29.5q0 -17 -12 -29t-27 -12t-25 13t-10 31zM65 42q0 22 12.5 34.5t30.5 12.5q25 0 37 -16q9 -11 14 -49q0 -29 -4 -44q-7 -25 -25.5 -43.5t-32.5 -25t-33 -6.5q-10 0 -16 5t-6 13q0 13 18 17q35 13 40 16q20 14 20 46
q-6 -3 -12 -3.5t-9 -1.5q-16 0 -26 13t-8 32z" />
    <glyph glyph-name="semicolon" unicode="&#x37e;" horiz-adv-x="185" 
d="M63 376q0 18 11 29t27 11q14 0 25 -13.5t11 -29.5q0 -17 -12 -29t-27 -12t-25 13t-10 31zM65 42q0 22 12.5 34.5t30.5 12.5q25 0 37 -16q9 -11 14 -49q0 -29 -4 -44q-7 -25 -25.5 -43.5t-32.5 -25t-33 -6.5q-10 0 -16 5t-6 13q0 13 18 17q35 13 40 16q20 14 20 46
q-6 -3 -12 -3.5t-9 -1.5q-16 0 -26 13t-8 32z" />
    <glyph glyph-name="less" unicode="&#x3c;" horiz-adv-x="479" 
d="M407 417q7 4 12 0t5 -11q0 -6 -6 -9l-348 -185l348 -200q5 -3 5 -8t-5.5 -9t-10.5 -1l-365 210v19z" />
    <glyph glyph-name="equal" unicode="=" 
d="M53 127q-11 0 -11 11q0 12 11 12h396q11 0 11 -12q0 -11 -11 -11h-396zM47 321q-11 0 -11 11t11 11h396q11 0 11 -11t-11 -11h-396z" />
    <glyph glyph-name="greater" unicode="&#x3e;" 
d="M83 397q-6 3 -6 9t5.5 10.5t11.5 0.5l366 -194v-20l-369 -202q-6 -4 -11.5 0.5t-5.5 10.5t6 9l350 192z" />
    <glyph glyph-name="question" unicode="?" horiz-adv-x="427" 
d="M68 512q-3 -5 -8 -5q-8 0 -11 6t-1 11q41 75 93 111q46 32 96 32q60 0 105.5 -42t45.5 -88q0 -43 -75 -108q-70 -55 -139 -109q-76 -61 -76 -92q0 -33 17.5 -47t46.5 -14t53.5 13.5t24.5 30.5l-2 8q0 5 4.5 9t9.5 4q8 0 8 -8q6 -34 -26 -57.5t-74 -23.5q-36 0 -58 19
q-26 23 -26 66t75 108q69 55 139 110q76 61 76 91q0 36 -36 70q-40 38 -91 38q-43 0 -84 -29q-48 -34 -87 -104zM124 49q0 17 11 29t27 12q15 0 25.5 -13.5t10.5 -30.5t-11.5 -28.5t-27.5 -11.5q-15 0 -25 13t-10 30z" />
    <glyph glyph-name="at" unicode="@" horiz-adv-x="752" 
d="M471 312q0 9 9 9q13 0 13 -13q-2 -26 -4 -56.5t-2 -38.5q0 -25 2 -47.5t8 -39.5q31 -23 61 -23q57 0 88 101q24 78 24 176q0 109 -42 173q-52 79 -160 79q-157 0 -282 -124t-125 -275q0 -85 53.5 -150t137.5 -65q38 0 74 12.5t78 42.5q4 3 10.5 1t6.5 -11q0 -5 -5 -9
q-42 -30 -83 -44.5t-79 -14.5q-92 0 -153.5 73t-61.5 165q0 162 130.5 291.5t298.5 129.5q118 0 177 -88q48 -72 48 -186q0 -105 -25 -185q-35 -113 -107 -113q-18 0 -37.5 6.5t-42.5 21.5l-4 5q-6 20 -9 50t-3 55q0 46 3 76q0 6 3 16zM452 247q-63 -68 -105 -93
q-37 -22 -74 -22q-29 0 -56 13q-38 23 -38 70t38 114q31 55 77 103.5t86 76.5q54 38 95 38q13 0 26 -4.5t24 -13.5q21 -22 21 -65q0 -49 -27 -110t-67 -107zM435 262q38 41 64 103t26 106q0 30 -14 41q-13 14 -34 14q-33 0 -83 -34q-44 -30 -85 -72.5t-74.5 -105.5
t-33.5 -106q0 -35 25 -43q9 -5 23 -8t24 -3q39 0 83 33q33 25 79 75z" />
    <glyph glyph-name="A" unicode="A" horiz-adv-x="603" 
d="M213 345h211l-98 271zM188 343l129 308l20 -1l112 -307l3 -11l120 -328q5 -15 -11 -15q-7 0 -10 7l-119 327h-228l-137 -328q-2 -6 -8 -6t-10 5t-2 11z" />
    <glyph glyph-name="B" unicode="B" horiz-adv-x="570" 
d="M105 648v-28q40 17 97 34q81 24 135 24q42 0 69.5 -14t36.5 -47q2 -18 2 -27q0 -53 -33.5 -93t-92.5 -69q23 3 45 3q63 0 102 -23q46 -27 60 -88q2 -16 2 -24q0 -88 -111 -167q-77 -55 -208 -104q-97 -36 -112 -36l-14 11v648q0 10 8 10q7 0 14 -10zM105 596v-216
q139 30 217 73q102 56 102 134q0 12 -3 26q0 23 -19 32.5t-52 9.5q-59 0 -157 -29q-33 -9 -88 -30zM105 355v-339q70 21 136 49q110 46 177 96q89 66 89 131q0 13 -3 25q-7 49 -43.5 69.5t-94.5 20.5q-59 0 -143 -20q-89 -25 -118 -32z" />
    <glyph glyph-name="C" unicode="C" horiz-adv-x="524" 
d="M482 558q5 -15 -11 -15q-8 0 -9 7q-16 48 -59 72q-33 19 -72 19q-9 0 -13 -1q-111 -14 -186 -102q-84 -99 -84 -258q0 -113 37 -184q44 -85 132 -85q67 0 134 48t112 127q3 6 8 6t9.5 -5.5t0.5 -11.5q-46 -84 -117 -135t-147 -51q-101 0 -151 95q-40 76 -40 196
q0 170 91 279q86 103 207 103q1 1 6 1q44 0 82 -21q50 -28 70 -84z" />
    <glyph glyph-name="D" unicode="D" horiz-adv-x="565" 
d="M105 628v-9q40 21 80 35q64 22 118 22q72 0 124 -38q64 -46 94 -146q10 -37 10 -76q0 -120 -112 -231q-79 -78 -208 -145q-98 -51 -113 -51l-15 10v629q0 11 11 11t11 -11zM105 594v-579q74 32 137 69q112 66 179 138q89 96 89 195q0 27 -2 38.5t-9 31.5q-26 91 -83 132
q-47 34 -115 34q-58 0 -122 -24q-30 -11 -74 -35z" />
    <glyph glyph-name="E" unicode="E" horiz-adv-x="523" 
d="M408 368l-306 -24v-329l376 40q12 0 12 -12q0 -10 -10 -10l-388 -41l-12 11v585l-32 -4q-12 0 -12 13q0 10 10 10l34 3v22q0 10 11 10t11 -10v-19l340 38q12 0 12 -12q0 -10 -10 -10l-342 -38v-224l304 24q12 0 12 -13q0 -10 -10 -10z" />
    <glyph glyph-name="F" unicode="F" horiz-adv-x="483" 
d="M452 629l-347 -33v-227l299 22q11 0 11 -13q0 -10 -10 -10l-300 -21v-333q0 -11 -11 -11t-11 11v580l-35 -4q-12 0 -12 12q0 10 10 10l37 4v27q0 10 11 10t11 -10v-25l346 33q11 0 11 -12q0 -10 -10 -10z" />
    <glyph glyph-name="G" unicode="G" horiz-adv-x="690" 
d="M613 561q3 -4 1 -10.5t-10 -6.5q-6 0 -9 5q-33 47 -82 70.5t-107 23.5q-132 0 -235 -103q-113 -113 -113 -288q0 -112 70 -180q64 -62 156 -62q11 0 25.5 0.5t36.5 7.5q121 34 191 101q55 53 75 121q12 40 12 91l-258 -56q-14 0 -14 15q0 7 8 7l272 59l13 -10
q2 -12 2 -28q0 -52 -18 -101q-26 -72 -83 -123q-73 -66 -194 -99q-32 -9 -66 -9q-101 0 -172 69q-78 76 -78 199q0 182 118 301q109 110 250 110q63 0 117 -25.5t92 -78.5z" />
    <glyph glyph-name="H" unicode="H" horiz-adv-x="504" 
d="M70 629v-266h369v266q0 11 11 11t11 -11v-629q0 -11 -11 -11t-11 11v341h-369v-344q0 -11 -11 -11t-11 11v632q0 11 11 11t11 -11z" />
    <glyph glyph-name="I" unicode="I" horiz-adv-x="192" 
d="M86 21l-37 -10q-7 -1 -7 -10q0 -15 12 -12l100 28q8 3 8 10q0 5 -4 9t-9 3l-41 -11zM108 28l-22 -7v606l-39 -10q-13 -3 -13 11q0 8 8 11l99 28q14 3 14 -13q0 -7 -8 -9l-39 -12v-605z" />
    <glyph glyph-name="J" unicode="J" horiz-adv-x="465" 
d="M39 184q0 10 10 10q12 0 12 -12q-1 -10 -1.5 -20.5t-0.5 -15.5q0 -73 37 -106q32 -29 90 -29q80 0 142.5 51t62.5 126v455q0 10 11 10t11 -10v-455q0 -86 -71 -144q-67 -55 -156 -55q-64 0 -103 35q-47 42 -47 120q0 19 3 40z" />
    <glyph glyph-name="K" unicode="K" horiz-adv-x="536" 
d="M403 648q4 3 11 1.5t7 -10.5q0 -4 -4 -7l-285 -261l366 -363q7 -7 0 -15.5t-15 -0.5l-374 371v17zM86 643q0 10 11 10t11 -10v-643q0 -11 -11 -11t-11 11v643z" />
    <glyph glyph-name="L" unicode="L" horiz-adv-x="431" 
d="M86 643q0 10 11 10t11 -10v-630l264 40q5 0 9 -4.5t4 -9.5q0 -9 -9 -9l-277 -41l-13 11v643z" />
    <glyph glyph-name="M" unicode="M" horiz-adv-x="709" 
d="M105 -3q0 -11 -11 -11t-11 11v640l21 4q10 -26 20 -51q24 -60 56 -130q40 -89 85 -175q19 -37 33.5 -79t27.5 -102q12 69 46 134q27 52 66 99q60 74 107 151q31 52 58 111l18 42l22 -4v-637q0 -11 -11 -11q-12 0 -12 11v583q-24 -54 -59 -112q-46 -76 -107 -149
q-49 -58 -77 -125q-36 -84 -36 -175l-22 -2q-12 82 -31.5 146t-42.5 108q-43 82 -84 174q-27 60 -56 131v-582z" />
    <glyph glyph-name="N" unicode="N" horiz-adv-x="527" 
d="M102 0q0 -11 -11 -11t-11 11v634l21 7q61 -111 97 -171.5t79 -110.5q70 -83 109 -140q53 -77 79 -145v560q0 11 12 11q11 0 11 -11v-634l-23 -3q-14 61 -42.5 118t-71.5 116q-34 47 -91 113q-48 58 -91 132q-34 59 -67 119v-595z" />
    <glyph glyph-name="O" unicode="O" horiz-adv-x="560" 
d="M355 662q91 -21 131 -95t40 -215q0 -128 -90 -245.5t-188 -117.5q-15 0 -29 3q-90 23 -136 106q-41 73 -41 176q0 130 91.5 260t195.5 130q17 0 26 -2zM349 640q-12 3 -25 3q-86 0 -173 -125t-87 -244q0 -99 37 -165q42 -74 123 -95q12 -3 25 -3q83 0 169 112t86 229
q0 140 -35 204t-120 84z" />
    <glyph glyph-name="P" unicode="P" horiz-adv-x="584" 
d="M144 637v-67q71 43 132 69q87 37 146 37q34 0 57.5 -10.5t37.5 -37.5q7 -17 7 -37q0 -89 -144 -175q-124 -74 -236 -89v-324q0 -11 -11 -11t-11 11v525l-27 -16q-4 -3 -11 -0.5t-7 10.5q0 5 5 8l40 26v81q0 11 11 11t11 -11zM144 541v-192q99 12 223 87q137 83 137 153
q0 16 -7 30q-12 37 -64 37q-63 0 -186 -60q-54 -26 -103 -55z" />
    <glyph glyph-name="Q" unicode="Q" horiz-adv-x="603" 
d="M526 363q0 -62 -23.5 -126t-64.5 -119l127 -130q5 -6 1 -12t-11 -6q-4 0 -7 3l-124 127q-41 -50 -87.5 -78t-91.5 -28q-12 0 -26 3q-90 24 -136 109q-41 75 -41 179q0 128 89 248.5t192 120.5q14 0 29 -3q93 -20 133.5 -85t40.5 -203zM224 19q12 -3 24 -3q37 0 79 27.5
t80 73.5l-91 94q-3 4 -1.5 11t10.5 7q4 0 7 -3l89 -90q37 50 60 110.5t23 116.5q0 135 -34.5 189.5t-123.5 76.5q-14 3 -26 3q-88 0 -172 -114t-84 -233q0 -98 38 -168q42 -77 122 -98z" />
    <glyph glyph-name="R" unicode="R" horiz-adv-x="550" 
d="M100 640v-44q56 27 109 44q69 22 123 22q40 0 70 -14t46 -45q7 -18 7 -38q0 -82 -119 -148q-108 -60 -213 -60l375 -349q7 -7 0 -15.5t-15 -0.5l-383 356v-342q0 -11 -11 -11t-11 11v554l-28 -14q-3 -2 -9.5 1t-6.5 11q0 5 5 8l39 20v54q0 11 11 11t11 -11zM100 569v-188
q15 -4 36 -4q89 0 192 60q108 63 108 127q0 14 -8 30q-9 24 -30 34.5t-55 10.5q-49 0 -126 -25q-54 -18 -117 -45z" />
    <glyph glyph-name="S" unicode="S" horiz-adv-x="642" 
d="M511 586q7 -8 -1.5 -15.5t-15.5 0.5q-28 29 -57.5 41t-60.5 12q-12 0 -28.5 -2t-30.5 -4q-100 -18 -159 -75q-52 -51 -52 -110q0 -40 27.5 -65.5t77.5 -25.5q25 0 49.5 5.5t56.5 18.5q65 27 121 27q66 0 103 -39t37 -99q0 -62 -38 -120q-43 -65 -119 -106
q-36 -20 -76 -30.5t-77 -10.5q-79 0 -133.5 39.5t-54.5 98.5q0 11 11 11t11 -11q0 -47 48.5 -81.5t120.5 -34.5q36 0 68.5 8.5t70.5 29.5q71 42 111 102q36 54 36 109q0 49 -32 80t-89 31q-51 0 -113 -25.5t-115 -25.5q-58 0 -90 32t-32 82q0 69 56 127q64 66 171 80
q7 1 25 3.5t35 2.5q37 0 71.5 -13.5t66.5 -46.5z" />
    <glyph glyph-name="T" unicode="T" 
d="M23 570l188 36q0 5 9 5q6 0 9 -3l228 45q13 0 13 -13q0 -9 -9 -9l-228 -44v-587q0 -11 -11 -11t-11 11v583l-184 -35q-13 0 -13 13q0 9 9 9z" />
    <glyph glyph-name="U" unicode="U" horiz-adv-x="547" 
d="M84 637q0 11 11 11t11 -11l-1 -457q0 -84 22 -119q32 -50 122 -50q67 0 138 71q77 77 77 163v394q0 11 12 11q11 0 11 -11v-394q0 -99 -82 -180q-77 -76 -156 -76q-99 0 -138 61q-28 44 -28 130z" />
    <glyph glyph-name="V" unicode="V" 
d="M9 634q-5 15 11 15q7 0 10 -7q14 -40 40.5 -138.5t55.5 -219.5q33 -138 46 -209q21 103 69 212q34 77 98 190l94 164q3 6 9 6t10.5 -5.5t0.5 -11.5q-53 -92 -105 -183q-67 -119 -104 -212q-50 -126 -61 -235h-22q-6 61 -39 206q-28 125 -62 252.5t-51 175.5z" />
    <glyph glyph-name="W" unicode="W" horiz-adv-x="699" 
d="M44 635q0 11 11 11t11 -11q0 -29 21.5 -131t43.5 -205q30 -143 40 -212q16 76 56 205q59 193 62 203q30 104 30 140h22q0 -41 27 -149q12 -50 57 -212q40 -147 53 -206q15 74 54 215q30 109 60.5 220t30.5 138q0 11 11 11t11 -11q0 -38 -36 -167.5t-72 -255.5
q-40 -148 -47 -215l-22 -1q-7 52 -37 166q-2 9 -56 204q-34 125 -46 185q-12 -54 -54 -181q-48 -148 -64 -204q-31 -112 -31 -172h-22q0 77 -29 222q-8 39 -55 248q-30 133 -30 165z" />
    <glyph glyph-name="X" unicode="X" horiz-adv-x="445" 
d="M212 347q-46 86 -90 171t-54 115q-2 7 2 11t10 4q8 0 9 -7q8 -27 49 -106q7 -14 87 -166q73 117 108 177q47 81 47 97q0 10 12 10q11 0 11 -10q0 -18 -23 -63q-12 -24 -61 -105q-36 -61 -80 -130q42 -77 72 -136q34 -66 59 -122t30 -82q0 -13 -13 -13q-9 0 -9 9
q-6 27 -28.5 78t-54.5 113q-17 33 -70 131q-77 -125 -83 -135q-44 -73 -65 -115q-26 -52 -26 -72q0 -12 -10 -12q-12 0 -12 12q3 24 30.5 79.5t67.5 124.5q26 45 85 142z" />
    <glyph glyph-name="Y" unicode="Y" horiz-adv-x="445" 
d="M68 633q-2 7 2 11t10 4q8 0 9 -7q8 -27 49 -106q7 -14 87 -166q73 117 108 177q47 81 47 97q0 10 12 10q11 0 11 -10q0 -16 -25 -62q-20 -37 -62 -103.5t-83 -130.5v-347q0 -11 -11 -11t-11 11v347q-45 86 -89 172t-54 114z" />
    <glyph glyph-name="Z" unicode="Z" 
d="M105 570q0 -10 -10 -10q-12 0 -12 12l3 61l11 10l355 11l9 -17l-394 -625l355 13l7 52q0 9 10 9q13 0 13 -13l-9 -61l-11 -9l-385 -14l-9 17l393 626q-46 0 -189 -6q-47 -2 -134 -6z" />
    <glyph glyph-name="bracketleft" unicode="[" horiz-adv-x="297" 
d="M250 648q13 0 13 -13q0 -9 -9 -9l-188 -40v-780l187 36q13 0 13 -13q0 -9 -9 -9l-200 -39l-13 11v804l10 11z" />
    <glyph glyph-name="backslash" unicode="\" horiz-adv-x="307" 
d="M45 636q-2 7 2 11t10 4q8 0 9 -7l196 -626q5 -15 -11 -15q-8 0 -9 7z" />
    <glyph glyph-name="bracketright" unicode="]" horiz-adv-x="312" 
d="M52 587q-13 0 -13 13q0 9 9 9l205 42l13 -11v-803l-8 -12l-205 -47q-14 0 -14 15q0 8 8 8l197 45v780z" />
    <glyph glyph-name="asciicircum" unicode="^" horiz-adv-x="470" 
d="M103 431q-3 -4 -7 -4q-6 0 -10.5 5.5t-0.5 11.5l152 205h18l161 -205q3 -4 1 -10.5t-11 -6.5q-4 0 -7 4l-152 194z" />
    <glyph glyph-name="underscore" unicode="_" horiz-adv-x="484" 
d="M14 -102q-11 0 -11 11t11 11h460q11 0 11 -11t-11 -11h-460z" />
    <glyph glyph-name="grave" unicode="`" horiz-adv-x="226" 
d="M45 632q-7 6 0.5 14t14.5 2l130 -127q7 -6 0 -14.5t-15 -2.5z" />
    <glyph glyph-name="a" unicode="a" horiz-adv-x="448" 
d="M39 45q0 67 79 118q93 60 249 60v73q0 61 -20 94q-23 38 -71 38q-33 0 -73.5 -29t-87.5 -84q-3 -4 -8 -4q-11 0 -11 12q0 4 3 7q52 59 89 86q46 34 88 34q59 0 89 -48q25 -40 25 -106v-296q0 -11 -11 -11q-12 0 -12 11v85q-64 -48 -128 -73q-57 -22 -106 -22
q-40 0 -65 15t-29 40zM367 113v88q-150 0 -238 -56q-74 -47 -68 -98q-4 -13 16.5 -24t55.5 -11q50 0 104 21q64 25 130 80z" />
    <glyph glyph-name="b" unicode="b" horiz-adv-x="411" 
d="M367 383q2 -10 3 -23t1 -24q0 -103 -82 -193q-58 -63 -152 -115q-71 -39 -83 -39l-14 10v620q0 11 11 11t11 -11v-321q56 73 116 112t108 39q66 0 81 -66zM344 379q-5 48 -58 48q-47 0 -102 -38q-63 -43 -122 -128v-245q133 58 209.5 142.5t76.5 175.5q0 8 -0.5 18
t-3.5 27z" />
    <glyph glyph-name="c" unicode="c" horiz-adv-x="441" 
d="M370 377q4 -6 -0.5 -11.5t-10.5 -5.5t-9 6q-21 40 -45 58.5t-51 18.5q-66 0 -128 -94.5t-62 -179.5q0 -82 32 -122q28 -35 76 -35q51 0 105.5 36.5t80.5 86.5q3 6 10 6q5 0 9 -4.5t2 -10.5q-26 -53 -87.5 -94t-121.5 -41q-57 0 -90 39q-38 45 -38 139q0 90 65 189
q70 106 145 106q33 0 62 -20t56 -67z" />
    <glyph glyph-name="d" unicode="d" horiz-adv-x="475" 
d="M416 634v-328v-30v-276q0 -11 -11 -11q-12 0 -12 11v200q-38 -80 -115.5 -144t-145.5 -64q-31 0 -55 15q-22 18 -31.5 41t-9.5 55q0 96 90.5 197.5t182.5 101.5q39 0 70 -22l14 -17v271q0 11 12 11q11 0 11 -11zM90 26q18 -15 44 -15q67 0 154 86t105 168v57
q-8 27 -29 41q-23 20 -54 20q-77 0 -166.5 -100.5t-89.5 -184.5q0 -49 36 -72z" />
    <glyph glyph-name="e" unicode="e" horiz-adv-x="455" 
d="M65 248q-13 -44 -13 -83q0 -68 37 -115q10 -16 33.5 -25t51.5 -9q65 0 126 39q69 45 93 120q3 8 10 8q14 0 11 -15q-27 -82 -100 -130q-66 -44 -138 -44q-35 0 -61.5 10t-45.5 35.5t-29.5 60.5t-10.5 72q0 92 52.5 174.5t120.5 100.5q20 4 29 4.5t14 0.5q51 0 93.5 -26
t63.5 -72l-8 -16zM73 274l303 81q-20 35 -54.5 54.5t-77.5 19.5q-20 0 -36 -4q-38 -8 -75.5 -50.5t-59.5 -100.5z" />
    <glyph glyph-name="f" unicode="f" horiz-adv-x="374" 
d="M330 436l-153 -43v-393q0 -11 -11 -11t-11 11v385l-108 -29q-13 -3 -13 11q0 8 8 11l113 32v159q0 47 25.5 71.5t63.5 24.5q31 0 56 -16.5t34 -48.5q5 -15 -11 -15q-6 0 -9 8q-7 22 -27.5 35.5t-42.5 13.5q-28 0 -47.5 -18.5t-19.5 -54.5v-152l147 41q14 3 14 -12
q0 -7 -8 -10z" />
    <glyph glyph-name="g" unicode="g" horiz-adv-x="436" 
d="M362 436q11 -11 11 -17q7 0 7 -10v-444q0 -70 -45 -106q-40 -32 -101 -32q-46 0 -85 19.5t-50 51.5q0 14 14 14q6 0 6 -7q7 -25 38.5 -40t72.5 -15q52 0 87 26q41 31 41 89l-1 334q-7 -23 -19 -51q-15 -35 -43 -93q-40 -69 -87 -112q-52 -47 -96 -47q-14 0 -28 6
q-19 11 -28 38.5t-9 63.5q0 54 18.5 112.5t49.5 95.5q58 64 125 99q56 29 98 29q16 0 24 -4zM132 297q-29 -32 -46 -89.5t-17 -111.5q0 -66 24 -74q8 -5 18 -5q34 0 82 43t82.5 105.5t59.5 136.5q22 66 22 100q0 15 -6 15q-2 2 -11 2q-34 0 -85 -25q-69 -34 -123 -97z" />
    <glyph glyph-name="h" unicode="h" horiz-adv-x="436" 
d="M105 637v-315q42 59 94 99q57 43 101 43q36 0 56.5 -31t20.5 -101v-332q0 -11 -11 -11t-11 11v332q0 57 -16 83.5t-44 26.5q-40 0 -93.5 -46.5t-96.5 -112.5v-283q0 -11 -11 -11t-11 11v637q0 11 11 11t11 -11z" />
    <glyph glyph-name="i" unicode="i" horiz-adv-x="183" 
d="M84 597q0 11 11 11t11 -11v-35q0 -11 -11 -11t-11 11v35zM86 443q0 11 11 11t11 -11v-443q0 -11 -11 -11t-11 11v443z" />
    <glyph glyph-name="j" unicode="j" horiz-adv-x="326" 
d="M239 601q0 11 11 11t11 -11v-39q0 -11 -11 -11t-11 11v39zM236 446q0 11 12 11q11 0 11 -11v-402v-69q0 -62 -35 -97q-31 -31 -76 -31q-41 0 -72 27t-31 73q0 11 11 11t11 -11q0 -35 24.5 -56.5t57.5 -21.5q36 0 61.5 26.5t25.5 79.5v69v402z" />
    <glyph glyph-name="k" unicode="k" horiz-adv-x="391" 
d="M66 634v-368l217 191q4 3 11.5 1.5t7.5 -10.5q0 -5 -4 -8l-218 -191l254 -238q7 -6 0 -14.5t-15 -2.5l-253 238v-229q0 -11 -11 -11q-12 0 -12 11l1 631q0 11 11 11t11 -11z" />
    <glyph glyph-name="l" unicode="l" horiz-adv-x="174" 
d="M86 640q0 11 11 11t11 -11v-640q0 -11 -11 -11t-11 11v640z" />
    <glyph glyph-name="m" unicode="m" horiz-adv-x="660" 
d="M584 363q1 6 1 12v9q0 36 -26 36q-38 0 -114 -70q-70 -64 -107 -121v-229q0 -11 -11 -11t-11 11v220l-1 13l1 130q1 6 1 12v9q0 36 -26 36q-39 0 -118 -73q-73 -67 -107 -123v-224q0 -11 -11 -11t-11 11v446q0 11 11 11t11 -11v-186q53 68 104 115q71 65 113 65
q23 0 37 -18t18 -59l-1 -99q53 68 104 114q68 62 110 62q23 0 37.5 -17.5t18.5 -59.5v-363q0 -11 -11 -11q-12 0 -12 11v363z" />
    <glyph glyph-name="n" unicode="n" horiz-adv-x="389" 
d="M72 443v-180q46 69 105 121q65 58 108 58q25 0 39.5 -19t18.5 -63v-363q0 -11 -11 -11t-11 11v363q1 7 1 19q0 42 -31 42q-41 0 -110.5 -63.5t-109.5 -136.5l1 -224q0 -11 -11 -11t-11 11v226v4v216q0 11 11 11t11 -11z" />
    <glyph glyph-name="o" unicode="o" horiz-adv-x="460" 
d="M96 21q-33 22 -48.5 53t-15.5 67q0 98 90.5 195.5t180.5 97.5q40 0 69 -23q25 -20 36.5 -49.5t11.5 -67.5q0 -103 -71 -199q-75 -102 -167 -102q-43 0 -86 28zM109 40q16 -11 35 -16.5t39 -5.5q83 0 158 82t75 172q0 35 -13.5 65t-43.5 55q-19 15 -40 22.5t-43 7.5
q-82 0 -151 -88.5t-69 -181.5q0 -36 12.5 -64.5t40.5 -47.5z" />
    <glyph glyph-name="p" unicode="p" horiz-adv-x="399" 
d="M63 449v-117q32 59 82 102q57 49 109 49q25 0 45.5 -11t38.5 -37q23 -39 23 -101q0 -113 -64 -219q-68 -113 -150 -113q-22 0 -43.5 8.5t-41.5 27.5l1 -254q0 -11 -11 -11t-11 11v665q0 11 11 11t11 -11zM63 275v-205q18 -25 39 -37t42 -12q70 0 135 108q62 104 62 207
q0 54 -22 88q-20 38 -59 38q-54 0 -117.5 -62t-76.5 -120z" />
    <glyph glyph-name="q" unicode="q" horiz-adv-x="574" 
d="M416 454q16 -2 16 -11v-629l78 80q7 7 15.5 0t0.5 -15l-97 -100l-19 8l-1 586q-32 -127 -96 -236q-81 -138 -161 -138q-43 0 -83 41q-16 19 -25 51.5t-9 66.5q0 115 70 203q83 104 220 104q25 0 44 -2t47 -9zM86 54q15 -21 30.5 -30.5t32.5 -9.5q52 0 117 96
q49 72 97 188q39 93 47 129v5q-44 11 -89 11q-125 0 -200 -98q-64 -84 -64 -189q0 -67 29 -102z" />
    <glyph glyph-name="r" unicode="r" horiz-adv-x="364" 
d="M105 449v-154l78 86q81 86 123 86q12 0 25 -8q10 -12 12.5 -43.5t2.5 -36.5v-9.5v-7t-11 -5.5t-11 11q-2 26 -3 51t-4 25q-3 6 -9 6q-22 0 -89 -65q-56 -54 -114 -124v-261q0 -11 -11 -11t-11 11v449q0 11 11 11t11 -11z" />
    <glyph glyph-name="s" unicode="s" horiz-adv-x="479" 
d="M356 454q9 0 9 -9q0 -13 -12 -13q-23 4 -41.5 5t-41.5 1q-104 0 -164 -46q-51 -39 -51 -90q0 -25 14.5 -40.5t42.5 -15.5q29 0 69 22q75 41 135 41q51 0 78.5 -29.5t27.5 -74.5q0 -41 -23 -81t-65.5 -69t-85 -45t-82.5 -16q-39 0 -69 17.5t-46 55.5q-5 16 11 16q6 0 9 -6
q12 -31 37 -46t59 -15q33 0 73 15t78 42q41 33 62.5 69.5t21.5 69.5q0 32 -21 51.5t-62 19.5q-28 0 -57.5 -8t-73 -28.5t-80.5 -20.5q-35 0 -54.5 20.5t-19.5 51.5q0 60 57 108q68 57 176 57q41 0 89 -9z" />
    <glyph glyph-name="t" unicode="t" horiz-adv-x="443" 
d="M373 440l-193 -50v-375q76 29 116.5 55t101.5 85q6 5 12 1t6 -11q0 -4 -3 -7q-63 -60 -110 -89q-42 -26 -130 -60l-15 10v385l-111 -30q-13 0 -13 15q0 8 8 8l116 30v125q0 11 11 11t11 -11v-119l187 50q14 0 14 -15q0 -8 -8 -8z" />
    <glyph glyph-name="u" unicode="u" horiz-adv-x="397" 
d="M324 -6v109q-30 -47 -84 -81t-101 -34q-41 0 -63 24q-26 28 -26 85v346q0 11 11 11t11 -11v-346q0 -42 17.5 -61t47.5 -19q56 0 121.5 53.5t65.5 100.5v272q0 11 11 11t11 -11v-449q0 -11 -11 -11t-11 11z" />
    <glyph glyph-name="v" unicode="v" horiz-adv-x="422" 
d="M42 447q0 12 13 12q9 0 9 -8q4 -36 9 -72q13 -93 25 -162q16 -92 35 -171q22 79 104 209q6 9 125 184q3 5 9 5q7 0 10.5 -5.5t-1.5 -12.5q-95 -136 -142 -215q-91 -152 -91 -217l-21 -3q-20 62 -41 178q-16 85 -31 190z" />
    <glyph glyph-name="w" unicode="w" horiz-adv-x="570" 
d="M44 452q0 11 11 11t11 -11q0 -35 22 -170.5t45 -233.5q11 39 46 146q59 178 59 258l22 1q0 -49 18 -120q14 -54 42 -138q23 -69 47 -137q11 46 48 124q62 130 64 134q31 76 31 130q0 17 10 17q12 0 12 -11q-8 -69 -46 -162q-34 -78 -69 -160t-35 -122l-21 -3
q-14 44 -42 129q-52 156 -68 231q-11 -58 -34 -128t-45 -137.5t-28 -101.5l-22 -1q-23 87 -50.5 249t-27.5 206z" />
    <glyph glyph-name="x" unicode="x" horiz-adv-x="431" 
d="M377 454q-4 -12 -29 -48q-30 -42 -113 -149q84 -97 113 -157q25 -52 25 -100q0 -11 -11 -11t-11 11q0 54 -39 118q-27 44 -90 119q-24 -32 -73 -97q-41 -55 -61 -85q-28 -42 -34 -59q-1 -7 -9 -7q-14 0 -11 15q11 30 64 104q39 55 109 146q-65 77 -83 102q-40 55 -53 98
q0 14 15 14q7 0 7 -8q11 -44 65 -112q13 -16 63 -75q66 85 73 94q61 80 61 93q0 8 8 8q14 0 14 -14z" />
    <glyph glyph-name="y" unicode="y" horiz-adv-x="485" 
d="M443 449q-15 -36 -29 -72q-44 -109 -68 -166q-43 -102 -80 -185l-3 -8q-9 -20 -32 -68q-18 -38 -24 -49q-11 -21 -37.5 -35.5t-55.5 -14.5q-35 0 -57 22q-26 27 -26 78q0 11 12 11q11 0 11 -11q0 -41 18 -61q15 -17 43 -17q22 0 42 11t31 28q20 35 55 115l-177 421
q-5 15 11 15q6 0 9 -6l170 -403q27 63 75 178q63 153 65 157q13 33 27 67q3 7 10 7q3 0 8 -3.5t2 -10.5z" />
    <glyph glyph-name="z" unicode="z" horiz-adv-x="427" 
d="M104 410q0 -11 -11 -11t-11 11v27l11 11q75 1 115 2q121 4 156 16l13 -16l-60 -90q-100 -149 -126 -187q-71 -103 -112 -156q40 6 108.5 9t158.5 3v12q0 10 11 10t11 -10v-23l-11 -11h-16.5h-21.5q-79 0 -156.5 -4t-108.5 -14l-12 18q11 9 75 100q44 63 126 184
q57 84 100 148q-35 -6 -100.5 -9.5t-138.5 -3.5v-16z" />
    <glyph glyph-name="braceleft" unicode="{" horiz-adv-x="393" 
d="M332 648q11 0 11 -11t-11 -11q-100 0 -127 -41q-23 -35 -23 -164v-55.5t1 -58.5q0 -37 -13 -60t-35 -34q24 -11 37.5 -32t13.5 -59q0 -21 -0.5 -42t-0.5 -42q0 -146 40 -195q34 -42 107 -42q11 0 11 -12q0 -11 -11 -11q-82 0 -123 49q-47 57 -47 214v40.5t1 40.5
q0 47 -29 66q-20 13 -58 13q-12 0 -20 -0.5t-13 -0.5v23q20 -1 32 -1q37 0 57 14q29 20 29 71v90q0 150 24 193q32 58 147 58z" />
    <glyph glyph-name="bar" unicode="|" horiz-adv-x="130" 
d="M57 643q0 10 11 10t11 -10v-643q0 -11 -11 -11t-11 11v643z" />
    <glyph glyph-name="braceright" unicode="}" horiz-adv-x="384" 
d="M37 626q-11 0 -11 11t11 11q114 0 147 -58q25 -44 25 -194v-89q0 -51 28 -71q20 -14 57 -14h17t15 1v-23q-19 1 -32 1q-38 0 -58 -13q-30 -19 -30 -66v-43t1 -44q0 -155 -46 -209q-41 -48 -124 -48q-11 0 -11 11q0 12 11 12q73 0 108 43q40 49 40 200q0 17 -0.5 34
t-0.5 34v10q0 37 14 58.5t37 31.5q-23 12 -34 32q-14 25 -14 63v56t1 53q0 133 -22 168q-27 42 -129 42z" />
    <glyph glyph-name="asciitilde" unicode="~" 
d="M66 166q0 -11 -11 -11t-11 11q0 69 40 109q35 35 84 35q39 0 67 -23t28 -63q0 -21 20.5 -35.5t48.5 -14.5q41 0 68 28q32 34 32 100q0 11 11 11t11 -11q0 -74 -41 -115q-35 -35 -85 -35q-36 0 -61.5 19.5t-25.5 52.5q0 28 -22.5 45.5t-54.5 17.5q-41 0 -67 -27
q-31 -32 -31 -94z" />
    <glyph glyph-name="nonbreakingspace" unicode="&#xa0;" horiz-adv-x="249" 
 />
    <glyph glyph-name="currency" unicode="&#xa4;" horiz-adv-x="450" 
d="M141 188l-48 -45l-7 -8l-8 -1q-6 0 -11 4l-5 9v10l8 10l47 45q-13 18 -21 39t-8 44q-1 10 2 29q4 16 9 26q5 14 17 29l-46 46q-7 6 -7 15q-2 7 4 11q5 6 12 6l6 -3q6 -4 8 -6l46 -45q38 29 85 29q48 0 83 -29l44 45q12 9 16 9q8 0 13 -6.5t5 -10.5l-4 -10l-6 -5l-44 -46
q11 -16 20 -41q4 -10 6.5 -19.5t2.5 -23.5l-4 -26q-6 -31 -25 -57l44 -45q10 -9 10 -16l-6 -12q-2 -3 -13 -5l-15 9l-43 45q-40 -28 -84 -28q-14 0 -21 1t-24 6.5t-38 20.5zM327 295q0 42 -32 73q-13 13 -33 23q-12 5 -19 6.5t-19 1.5q-42 0 -74 -31q-19 -20 -26 -49l-2 -11
q-2 -11 -1 -13q0 -42 31 -72t72 -30q39 0 71 31q20 19 30 54z" />
    <glyph glyph-name="section" unicode="&#xa7;" horiz-adv-x="450" 
d="M314 545l17 -84q3 -9 -1 -12.5t-7 -3.5q-8 2 -10 4l-6 12l-12 60h-136q-31 0 -49 -21q-13 -16 -13 -36l2 -20q1 -9 21 -29q27 -25 121 -74l49 -24q68 -35 98 -61q26 -23 32 -51l1 -12q0 -18 -14 -32q-20 -20 -61 -20q18 -21 22 -38l3 -21q0 -11 -5 -29.5t-25.5 -33
t-51.5 -14.5h-160l-18 84v11q6 4 9 5q6 0 8.5 -3t4 -6.5t2.5 -6.5l13 -61h135q36 0 53 24q10 17 10 34l-2 18q-2 12 -22 30q-22 23 -105 67l-56 28q-78 41 -105.5 67t-33.5 49l-1 11q0 16 14 33q18 20 62 20q-16 17 -22 39l-2 24l3 22q6 21 27 36t48 15h163zM120 387l-12 -2
q-34 0 -52 -12q-11 -11 -11 -29q5 -18 32 -40q12 -9 37 -23q32 -18 59 -33l54 -28q68 -35 96 -58q3 3 12 3q37 0 50.5 12t10.5 28q-2 8 -7 15l-14 17q-21 24 -90 57l-56 29l-68 36z" />
    <glyph glyph-name="copyright" unicode="&#xa9;" horiz-adv-x="560" 
d="M355 662q89 -21 130 -95.5t41 -214.5q0 -127 -90 -245t-188 -118l-29 3q-90 22 -136 106q-41 73 -41 176q0 129 91.5 259.5t195.5 130.5q19 0 26 -2zM349 640l-25 3q-85 0 -172.5 -125t-87.5 -244q0 -100 37 -165q41 -72 123 -95l25 -3q82 0 168.5 112t86.5 229
q0 141 -34.5 204t-120.5 84zM440 477q3 -6 0 -10.5t-11 -6.5q-6 0 -9 6q-21 38 -45.5 57.5t-50.5 19.5q-66 0 -128 -95q-30 -45 -46 -90.5t-16 -88.5q0 -81 32 -122q27 -35 76 -35q51 0 105 36t81 87q3 6 10 6q7 -3 9 -5t2 -10q-25 -52 -87 -93.5t-122 -41.5q-57 0 -90 39
q-38 46 -38 139q0 91 65 189q70 106 145 106q33 0 61 -19.5t57 -67.5z" />
    <glyph glyph-name="guillemotleft" unicode="&#xab;" horiz-adv-x="508" 
d="M414 463q6 5 12 1t6 -11q0 -4 -4 -7l-207 -191l207 -194q4 -3 4 -8q0 -6 -6 -10t-12 1l-216 203v16zM253 463q8 7 15.5 -1.5t-0.5 -15.5l-208 -191l208 -194q7 -6 0 -15t-15 -2l-216 203v16z" />
    <glyph glyph-name="logicalnot" unicode="&#xac;" horiz-adv-x="550" 
d="M28 393q-10 0 -11 11q0 10 11 11h450l-4 35q0 12 12 12q9 0 10 -10l4 -37h27q10 0 11 -11q0 -10 -11 -11h-25l33 -346q0 -9 -12 -11q-9 0 -10 10l-33 347h-452z" />
    <glyph glyph-name="registered" unicode="&#xae;" horiz-adv-x="560" 
d="M476 73q4 -4 2 -12q-3 -6 -10 -7l-7 3l-277 259v-246q0 -12 -11 -12q-9 0 -11 12v407l-17 -8q-4 -3 -10 0q-4 2 -5 11q3 6 5 8l27 15v37q0 9 11 10q10 0 11 -10v-29q35 17 84 32t83 15q13 0 25 -1.5t28 -9.5q23 -9 36 -34l5 -28q0 -61 -85 -112q-80 -46 -155 -46z
M526 352q0 -127 -90 -245t-188 -118l-29 3q-90 22 -136 106q-41 73 -41 176q0 129 91.5 259.5t195.5 130.5q19 0 26 -2q89 -21 130 -95.5t41 -214.5zM504 352q0 141 -34.5 204t-120.5 84l-25 3q-85 0 -172.5 -125t-87.5 -244q0 -100 37 -165q41 -72 123 -95l25 -3
q82 0 168.5 112t86.5 229zM425 510q-6 17 -22.5 25t-39.5 8q-37 0 -93 -19q-29 -10 -41 -15t-46 -20v-142l25 -3q65 0 142 45q81 48 81 97q0 12 -6 24z" />
    <glyph glyph-name="degree" unicode="&#xb0;" horiz-adv-x="200" 
d="M190 518q-6 -32 -35 -64q-43 -43 -78 -43q-38 0 -57 43q-12 23 -12 46l2 18q8 32 42.5 69.5t70.5 37.5q35 0 59 -43q11 -22 11 -42zM160 518l2 15q0 19 -13 36q-13 23 -32 26q-15 0 -44 -26q-24 -21 -33 -51l-1 -13q0 -18 12 -39q16 -23 33 -26q14 0 42 24t34 54z" />
    <glyph glyph-name="plusminus" unicode="&#xb1;" 
d="M445 439q13 3 13 -11q0 -9 -8 -10l-399 -85q-13 -3 -13 11q0 9 8 10zM241 583q0 10 11 11q10 0 11 -11v-413q0 -10 -11 -11q-10 0 -11 11v413zM445 159q13 3 13 -11q0 -9 -8 -10l-399 -85q-13 -3 -13 11q0 9 8 10z" />
    <glyph glyph-name="mu" unicode="&#xb5;" horiz-adv-x="397" 
d="M346 -6q0 -10 -11 -11q-10 0 -11 11v109q-30 -46 -85 -80.5t-100 -34.5q-40 0 -63 24l-5 6v-228q0 -10 -11 -11q-10 0 -11 11v493l1 5v155q0 10 11 11q10 0 11 -11v-346q0 -43 18 -61.5t47 -18.5q56 0 121.5 53.5t65.5 100.5v272q0 10 11 11q10 0 11 -11v-449z" />
    <glyph glyph-name="mu" unicode="&#x3bc;" horiz-adv-x="397" 
d="M346 -6q0 -10 -11 -11q-10 0 -11 11v109q-30 -46 -85 -80.5t-100 -34.5q-40 0 -63 24l-5 6v-228q0 -10 -11 -11q-10 0 -11 11v493l1 5v155q0 10 11 11q10 0 11 -11v-346q0 -43 18 -61.5t47 -18.5q56 0 121.5 53.5t65.5 100.5v272q0 10 11 11q10 0 11 -11v-449z" />
    <glyph glyph-name="paragraph" unicode="&#xb6;" horiz-adv-x="574" 
d="M337 543q0 9 11 10q10 0 11 -10v-763q0 -10 -11 -11q-10 0 -11 11v763zM411 543q0 9 11 10q10 0 11 -10v-763q0 -10 -11 -11q-10 0 -11 11v763zM113 151q-33 22 -48.5 53t-15.5 67q0 98 90.5 195.5t180.5 97.5q40 0 69 -23q25 -20 36.5 -49.5t11.5 -67.5q0 -103 -71 -199
q-75 -102 -167 -102q-43 0 -86 28zM126 170q16 -11 35 -16.5t39 -5.5q83 0 158 82t75 172q0 35 -13.5 65t-43.5 55q-19 15 -40 22.5t-43 7.5q-82 0 -151 -88.5t-69 -181.5q0 -36 12.5 -64.5t40.5 -47.5z" />
    <glyph glyph-name="guillemotright" unicode="&#xbb;" horiz-adv-x="461" 
d="M43 45q-6 -5 -12 -1t-6 11q0 4 4 7l207 191l-207 194q-4 3 -4 8q0 6 6.5 10t11.5 -1l216 -203v-16zM204 45q-8 -7 -15.5 1.5t0.5 15.5l208 191l-208 194q-7 6 0 15t15 2l216 -203v-16z" />
    <glyph glyph-name="endash" unicode="&#x2013;" horiz-adv-x="294" 
d="M36 232q-12 0 -12 12q0 9 10 10l220 19q12 0 12 -12q0 -9 -10 -10z" />
    <glyph glyph-name="emdash" unicode="&#x2014;" horiz-adv-x="550" 
d="M22 232q-12 0 -12 12q0 9 10 10l510 22q12 0 12 -12q0 -9 -10 -10z" />
    <glyph glyph-name="quoteleft" unicode="&#x2018;" horiz-adv-x="192" 
d="M161 507q5 -5 2 -12q-3 -6 -10 -6l-7 3l-141 142q-3 4 -2 11q3 5 9 7q6 -2 8 -4z" />
    <glyph glyph-name="quoteright" unicode="&#x2019;" horiz-adv-x="192" 
d="M191 634l-141 -142q-6 -6 -12 -3t-6 11l3 7l141 141l8 4q10 0 11 -11z" />
    <glyph glyph-name="quotesinglbase" unicode="&#x201a;" horiz-adv-x="192" 
d="M146 74q5 5 12 2q6 -3 6 -10l-3 -7l-141 -141l-8 -4q-9 0 -10 10l3 8z" />
    <glyph glyph-name="quotedblleft" unicode="&#x201c;" horiz-adv-x="350" 
d="M311 527l4 -8q0 -10 -10 -11l-8 4l-142 142q-3 4 -2 11q3 5 9 7q6 -2 8 -4zM159 527q5 -5 2 -12q-3 -6 -10 -6l-7 3l-141 142q-4 4 -2 11q3 5 9 7q6 -2 8 -4z" />
    <glyph glyph-name="quotedblright" unicode="&#x201d;" horiz-adv-x="350" 
d="M347 654l-141 -142q-6 -6 -12 -3t-6 11l3 7l141 141l8 4q10 0 11 -11zM195 654l-142 -142q-4 -4 -12 -2q-6 3 -6 9q2 6 4 8l141 141l8 4q10 0 11 -11z" />
    <glyph glyph-name="quotedblbase" unicode="&#x201e;" horiz-adv-x="350" 
d="M297 74q4 4 11 2q5 -3 7 -9q-2 -6 -4 -8l-141 -141l-8 -4q-9 0 -10 10l3 8zM144 74q5 5 12 2q6 -3 6 -10l-3 -7l-141 -141l-8 -4q-9 0 -10 10l3 8z" />
    <glyph glyph-name="dagger" unicode="&#x2020;" horiz-adv-x="325" 
d="M158 -99v483l-111 -30q-13 0 -13 15q0 7 8 8l116 30v125q0 10 11 11q10 0 11 -11v-119l103 30q14 0 14 -15q0 -7 -8 -8l-109 -30v-488q0 -12 -11 -12q-10 0 -11 11z" />
    <glyph glyph-name="daggerdbl" unicode="&#x2021;" horiz-adv-x="325" 
d="M289 100l-109 -30v-168q0 -12 -11 -12q-10 0 -11 11v163l-111 -30q-13 0 -13 15q0 7 8 8l116 30v297l-111 -30q-13 0 -13 15q0 7 8 8l116 30v125q0 10 11 11q10 0 11 -11v-119l103 30q14 0 14 -15q0 -7 -8 -8l-109 -30v-297l103 30q14 0 14 -15q0 -7 -8 -8z" />
    <glyph glyph-name="bullet" unicode="&#x2022;" horiz-adv-x="700" 
d="M481 285q0 -47 -35.5 -84t-85.5 -37q-48 0 -86 35q-35 37 -35 86t36 85t85 36q47 0 84 -35.5t37 -85.5z" />
    <glyph glyph-name="ellipsis" unicode="&#x2026;" horiz-adv-x="350" 
d="M16 41q0 17 11.5 28.5t26.5 11.5q14 0 25 -13.5t11 -29.5q0 -15 -10.5 -26.5t-28.5 -13.5q-15 0 -25 13t-10 30zM136 41q0 17 11.5 28.5t26.5 11.5q14 0 25 -13.5t11 -29.5q0 -15 -10.5 -26.5t-28.5 -13.5q-15 0 -25 13t-10 30zM256 41q0 17 11.5 28.5t26.5 11.5
q14 0 25 -13.5t11 -29.5q0 -15 -10.5 -26.5t-28.5 -13.5q-15 0 -25 13t-10 30z" />
    <glyph glyph-name="perthousand" unicode="&#x2030;" horiz-adv-x="700" 
d="M315 518q-6 -32 -35 -64q-43 -43 -78 -43q-38 0 -57 43q-12 23 -12 46l2 18q8 32 42.5 69.5t70.5 37.5q35 0 59 -43q11 -22 11 -42zM285 518l2 15q0 19 -13 36q-13 23 -32 26q-15 0 -44 -26q-24 -21 -33 -51l-1 -13q0 -18 12 -39q16 -23 33 -26q14 0 42 24t34 54z
M575 396l-406 -124l-12 -2l-8 4q-2 3 -2 10l6 10l13 6l406 123l11 3l8 -7q2 -2 2 -8l-2 -5l-4 -5l-5 -3zM320 97q-3 -13 -12 -32l-24 -32q-40 -43 -77 -43q-33 0 -59 42q-11 25 -11 47l2 18q8 32 42.5 69t70.5 37q35 0 59 -43q11 -19 11 -43zM290 97l2 15q0 19 -13 36
q-14 23 -32 26q-19 0 -45 -26l-22 -25l-10 -21l-2 -17q0 -18 12 -41q18 -24 34 -25q15 0 41.5 23.5t34.5 54.5zM582 97q-6 -31 -36 -64q-40 -43 -76 -43q-35 0 -59 42q-11 25 -11 47l2 18q8 32 42.5 69t70.5 37t58 -43q12 -20 12 -41zM552 97l2 15q0 19 -13 36
q-13 23 -32 26q-15 0 -43 -25t-34 -52l-1 -13q0 -21 11 -40q18 -24 34 -25q15 0 41.5 23.5t34.5 54.5z" />
    <glyph glyph-name="guilsinglleft" unicode="&#x2039;" horiz-adv-x="479" 
d="M407 417q6 3 12 0q5 -3 5 -11q0 -6 -6 -9l-348 -185l348 -200q4 -2 5 -8q-1 -2 -2 -4.5t-4.5 -5t-9.5 -0.5l-365 210v19z" />
    <glyph glyph-name="guilsinglright" unicode="&#x203a;" 
d="M83 397q-6 3 -6 9t5.5 10t11.5 1l366 -194v-20l-369 -202q-6 -3 -12 0q-3 4 -5 11q0 6 6 9l350 192z" />
    <glyph glyph-name="trademark" unicode="&#x2122;" horiz-adv-x="443" 
d="M437 131q0 -10 -10 -11q-9 0 -10 11v174q3 24 -10 24q-16 0 -47.5 -30t-51.5 -60v-108q0 -10 -10 -11q-11 0 -11 11l-1 111l1 63q3 24 -10 25q-8 0 -20.5 -8t-31.5 -27q-31 -30 -49 -58v-106q0 -10 -10 -11q-9 0 -10 11v213q0 9 10 10q9 0 10 -10v-76q28 33 50 51
q31 25 52 25q11 0 19 -8.5t11 -30.5l-1 -35q23 28 49 50q31 25 51 25q26 0 30 -40v-174zM146 200l-3 -7q-29 -27 -52.5 -42t-64.5 -31l-11 7v182l-49 -13q-8 0 -10 12q0 9 8 9l51 14v55q0 10 10 11q9 0 10 -11v-50l82 23q12 0 12 -13q0 -9 -8 -9l-86 -23v-168q33 11 48 23
q11 7 26 20q8 7 22 20q3 3 9 -0.5t6 -8.5z" />
    <glyph glyph-name="c128" horiz-adv-x="631" 
d="M446 -76q52 71 90 197q42 138 42 261q0 58 -25 84t-69 26q-63 0 -139 -48t-117 -111v-333q0 -11 -11 -11t-11 11v583l-184 -35q-12 -3 -12 12q0 9 8 10l210 40l224 43q13 0 13 -13q0 -9 -9 -9l-228 -44v-215q40 57 116 101.5t142 44.5q52 0 81 -30q33 -35 33 -106
q0 -131 -40 -267t-98 -205q-5 -6 -10 -6q-10 0 -10 11q0 5 4 9z" />
    <glyph glyph-name="afii10052" unicode="&#x403;" horiz-adv-x="483" 
d="M105 14q0 -10 -11 -11q-10 0 -11 11v580l-35 -4q-12 0 -12 12q0 9 10 10l37 4v27q0 9 11 10q10 0 11 -10v-25l346 33q9 0 11 -12q0 -9 -10 -10l-347 -33v-227v-355zM347 790q5 5 12 2q6 -3 6 -10l-3 -7l-125 -124l-8 -4q-9 0 -10 10l3 8z" />
    <glyph glyph-name="afii10061" unicode="&#x40c;" horiz-adv-x="536" 
d="M403 648q1 1 11 1q6 0 7 -10l-4 -7l-285 -261l366 -363q6 -6 0 -15t-15 -1l-374 371v17zM86 643q0 9 11 10q10 0 11 -10v-643q0 -10 -11 -11q-10 0 -11 11v643zM347 790q5 5 12 2q6 -3 6 -10l-3 -7l-125 -124l-8 -4q-9 0 -10 10l3 8z" />
    <glyph glyph-name="afii10060" unicode="&#x40b;" horiz-adv-x="593" 
d="M560 0q0 -11 -11 -11t-11 11v382q0 57 -21.5 83.5t-59.5 26.5q-53 0 -120 -47.5t-109 -111.5v-333q0 -11 -11 -11t-11 11v583l-184 -35q-12 -3 -12 12q0 9 8 10l210 40l224 43q13 0 13 -13q0 -9 -9 -9l-228 -44v-215q41 59 106 101q69 45 127 45q45 0 70 -30
q29 -35 29 -106v-382z" />
    <glyph glyph-name="afii10145" unicode="&#x40f;" horiz-adv-x="547" 
d="M487 -37q0 -10 -11 -11q-12 0 -12 11v182q-22 -45 -59 -80.5t-73 -55t-73 -19.5v-150q0 -10 -11 -11q-10 0 -11 11v149q-44 0 -76 16t-50 45q-14 22 -21 53.5t-7 76.5l1 457q0 10 11 11q10 0 11 -11l-1 -457q0 -84 22 -119q32 -50 122 -50q67 0 138 71q77 77 77 163v40
v354q0 9 12 11q10 0 11 -11v-394v-282z" />
    <glyph glyph-name="afii10099" unicode="&#x452;" horiz-adv-x="436" 
d="M408 332q0 -126 -38.5 -238t-99.5 -184q-5 -6 -10 -6q-10 0 -10 11q0 5 4 9q56 77 90 172q42 117 42 236q0 58 -18.5 84t-51.5 26q-47 0 -107.5 -46.5t-103.5 -112.5v-283q0 -11 -11 -11t-11 11v484l-110 -30q-13 0 -13 15q0 5 8 8l115 30v130q0 11 11 11t11 -11l1 -124
l103 30q14 0 14 -15q0 -5 -8 -8l-110 -30v-168q43 60 101 101q63 45 114 45q41 0 64.5 -32t23.5 -104z" />
    <glyph glyph-name="afii10109" unicode="&#x45c;" horiz-adv-x="456" 
d="M426 9q3 -2 5 -9q0 -12 -14 -12l-9 3l-320 243v16l252 175q6 4 15 1q7 -3 8 -10l-6 -9l-237 -166zM97 0q0 -10 -14 -11q-15 0 -15 11v418q0 8 15 10q13 0 14 -10v-418zM327 650q5 5 12 2q6 -3 6 -10l-3 -7l-125 -124l-8 -4q-9 0 -10 10l3 8z" />
    <glyph glyph-name="afii10108" unicode="&#x45b;" horiz-adv-x="436" 
d="M377 0q0 -11 -11 -11t-11 11v332q0 57 -16 83.5t-44 26.5q-40 0 -93.5 -46.5t-96.5 -112.5v-283q0 -11 -11 -11t-11 11v484l-110 -30q-13 0 -13 15q0 5 8 8l115 30v130q0 11 11 11t11 -11l1 -124l103 30q14 0 14 -15q0 -5 -8 -8l-110 -30v-168q42 59 94 99q57 43 101 43
q36 0 56.5 -31t20.5 -101v-332z" />
    <glyph glyph-name="afii10062" unicode="&#x40e;" horiz-adv-x="485" 
d="M466 648q-16 -40 -31 -79q-23 -57 -75 -182q-42 -101 -88 -204l-4 -9l-61 -129q-13 -24 -42 -39.5t-60 -15.5q-39 0 -64 25q-28 29 -28 85q0 13 13 13q12 0 12 -13q0 -44 19 -65t48 -21q24 0 46.5 12t34.5 31q24 45 60 127l-194 463q-3 7 1 12t11 5t10 -7l187 -443
q43 99 83 196q16 38 70 172l30 74q3 8 11 8q18 0 11 -16zM347 770q6 6 12 2.5t6 -10.5q0 -4 -3 -7l-125 -124q-3 -4 -8 -4q-10 0 -10 10q0 5 3 8z" />
    <glyph glyph-name="afii10110" unicode="&#x45e;" horiz-adv-x="485" 
d="M443 449q-15 -36 -29 -72q-44 -109 -68 -166q-43 -102 -80 -185l-3 -8q-9 -20 -32 -68q-18 -38 -24 -49q-11 -21 -37.5 -35.5t-55.5 -14.5q-35 0 -57 22q-26 27 -26 78q0 11 12 11q11 0 11 -11q0 -41 18 -61q15 -17 43 -17q22 0 42 11t31 28q20 35 55 115l-177 421
q-5 15 11 15q6 0 9 -6l170 -403q27 63 75 178q63 153 65 157q13 33 27 67q3 7 10 7q3 0 8 -3.5t2 -10.5zM327 650q6 6 12 2.5t6 -10.5q0 -4 -3 -7l-125 -124q-3 -4 -8 -4q-10 0 -10 10q0 5 3 8z" />
    <glyph glyph-name="afii10057" unicode="&#x408;" horiz-adv-x="465" 
d="M39 184q0 9 10 10q12 0 12 -12q0 -13 -2 -21v-15q0 -72 37 -106q32 -29 90 -29q79 0 142 51t63 126v455q0 9 11 10q10 0 11 -10v-455q0 -86 -71 -144q-67 -55 -156 -55q-33 0 -57.5 8t-45.5 27q-47 42 -47 120z" />
    <glyph glyph-name="afii10050" unicode="&#x490;" horiz-adv-x="483" 
d="M465 734l-3 -94q0 -11 -11 -11t-11 11l3 94q0 11 11 11t11 -11zM452 629l-347 -33v-227v-355q0 -11 -11 -11t-11 11v580l-35 -4q-12 0 -12 12q0 10 10 10l37 4v27q0 10 11 10t11 -10v-25l346 33q11 0 11 -12q0 -10 -10 -10z" />
    <glyph glyph-name="brokenbar" unicode="&#xa6;" horiz-adv-x="130" 
d="M57 643q0 9 11 10q10 0 11 -10v-233q0 -10 -11 -11q-10 0 -11 11v233zM57 233q0 9 11 10q10 0 11 -10v-233q0 -10 -11 -11q-10 0 -11 11v233z" />
    <glyph glyph-name="afii10023" unicode="&#x401;" horiz-adv-x="523" 
d="M408 368l-306 -24v-329l376 40q12 0 12 -12q0 -10 -10 -10l-388 -41l-12 11v585l-32 -4q-12 0 -12 13q0 10 10 10l34 3v22q0 10 11 10t11 -10v-19l340 38q12 0 12 -12q0 -10 -10 -10l-342 -38v-224l304 24q12 0 12 -13q0 -10 -10 -10zM447 856q5 5 11.5 2t6.5 -9
q0 -5 -4 -8l-141 -141q-3 -4 -8 -4q-10 0 -10 10q0 5 3 8zM294 856q6 6 12 2.5t6 -10.5q0 -4 -3 -7l-141 -141q-3 -4 -8 -4q-10 0 -10 10q0 5 3 8z" />
    <glyph glyph-name="afii10053" unicode="&#x404;" horiz-adv-x="524" 
d="M474 554q5 -15 -11 -15q-8 0 -9 7q-16 48 -59 72q-33 19 -72 19q-9 0 -13 -1q-108 -13 -183 -92q-87 -91 -87 -234q10 -3 33 2q157 35 243 48q7 -3 7 -12t-7 -12l-276 -60q0 -113 37 -184q44 -85 132 -85q67 0 134 48t112 127q3 6 8 6t9.5 -5.5t0.5 -11.5
q-46 -84 -117 -135t-147 -51q-101 0 -151 95q-40 76 -40 196q0 170 91 279q86 103 207 103q1 1 6 1q44 0 82 -21q50 -28 70 -84z" />
    <glyph glyph-name="glyph141" horiz-adv-x="550" 
d="M527 393h-499q-10 0 -11 11q0 10 11 11h499q10 0 11 -11q0 -10 -11 -11z" />
    <glyph glyph-name="afii10056" unicode="&#x407;" horiz-adv-x="192" 
d="M86 21l-37 -10q-7 -1 -7 -10q0 -15 12 -12l100 28q8 3 8 10q0 5 -4 9t-9 3l-41 -11zM108 28l-22 -7v606l-39 -10q-13 -3 -13 11q0 8 8 11l99 28q14 3 14 -13q0 -7 -8 -9l-39 -12v-605zM317 856q5 5 11.5 2t6.5 -9q0 -5 -4 -8l-141 -141q-3 -4 -8 -4q-10 0 -10 10q0 5 3 8
zM164 856q6 6 12 2.5t6 -10.5q0 -4 -3 -7l-141 -141q-3 -4 -8 -4q-10 0 -10 10q0 5 3 8z" />
    <glyph glyph-name="glyph143" horiz-adv-x="192" 
d="M86 21l-37 -10q-7 -1 -7 -10q0 -15 12 -12l100 28q8 3 8 10q0 5 -4 9t-9 3l-41 -11zM108 28l-22 -7v606l-39 -10q-13 -3 -13 11q0 8 8 11l99 28q14 3 14 -13q0 -7 -8 -9l-39 -12v-605z" />
    <glyph glyph-name="afii10103" unicode="&#x456;" horiz-adv-x="183" 
d="M84 597q0 11 11 11t11 -11v-35q0 -11 -11 -11t-11 11v35zM86 443q0 11 11 11t11 -11v-443q0 -11 -11 -11t-11 11v443z" />
    <glyph glyph-name="afii10098" unicode="&#x491;" horiz-adv-x="364" 
d="M366 514l-3 -94q0 -11 -11 -11t-11 11l3 94q0 11 11 11t11 -11zM363 420q0 -11 -12 -13l-42 5l-41 1q-68 0 -125 -24q-3 -1 -8 -6l-8 -8q-7 -7 -10 -31q0 -19 5.5 -51t16.5 -76l14 -48q17 -65 17 -103q0 -30 -21 -51l-10 -7q-15 -11 -37 -8q-14 0 -29 8.5t-31 23.5
q-8 10 -5 16q7 13 17 5q13 -11 25 -19.5t22 -10.5q18 -3 31 9q4 3 8 13l5 19q1 4 1 12q0 30 -16 84l-15 56l-17 68l-5 44l2 29q4 19 19 37l19 15l21 11q25 10 51.5 14t59.5 4q39 0 89 -9q9 0 9 -9z" />
    <glyph glyph-name="afii10071" unicode="&#x451;" horiz-adv-x="455" 
d="M65 248q-13 -44 -13 -83q0 -68 37 -115q10 -16 33.5 -25t51.5 -9q65 0 126 39q69 45 93 120q3 8 10 8q14 0 11 -15q-27 -82 -100 -130q-66 -44 -138 -44q-35 0 -61.5 10t-45.5 35.5t-29.5 60.5t-10.5 72q0 92 52.5 174.5t120.5 100.5q20 4 29 4.5t14 0.5q51 0 93.5 -26
t63.5 -72l-8 -16zM73 274l303 81q-20 35 -54.5 54.5t-77.5 19.5q-20 0 -36 -4q-38 -8 -75.5 -50.5t-59.5 -100.5zM367 656q5 5 11.5 2t6.5 -9q0 -5 -4 -8l-141 -141q-3 -4 -8 -4q-10 0 -10 10q0 5 3 8zM214 656q6 6 12 2.5t6 -10.5q0 -4 -3 -7l-141 -141q-3 -4 -8 -4
q-10 0 -10 10q0 5 3 8z" />
    <glyph glyph-name="afii61352" unicode="&#x2116;" horiz-adv-x="864" 
d="M770 627q21 -15 32.5 -37.5t11.5 -46.5q0 -62 -52 -119t-110 -57q-30 0 -51.5 16.5t-31 38t-9.5 47.5q0 63 46 120.5t103 57.5q32 0 61 -20zM488 0l-23 -3q-14 61 -42.5 118t-71.5 116q-34 47 -91 113q-48 58 -91 132q-34 59 -67 119v-595q0 -11 -11 -11t-11 11v634l21 7
q61 -111 97 -171.5t79 -110.5q70 -83 109 -140q53 -77 79 -145v560q0 11 12 11q11 0 11 -11v-634zM756 608q-15 9 -32 9q-46 0 -93.5 -50.5t-47.5 -102.5q0 -37 29 -60q19 -15 42 -15q46 0 86 55.5t40 109.5q0 38 -24 54zM561 244q-11 0 -11 11t11 11h262q11 0 11 -11
t-11 -11h-262z" />
    <glyph glyph-name="afii10101" unicode="&#x454;" horiz-adv-x="445" 
d="M414 361q2 -5 -2 -9t-10 -4q-7 0 -9 6q-15 32 -57 47q-29 10 -64 10q-88 -8 -150 -60q-69 -58 -77 -150q23 3 83 13q76 14 150 22q8 -3 8 -10t-8 -10l-233 -39q0 -71 31 -116q37 -54 110 -54q56 0 112.5 30.5t94.5 81.5q4 4 10 4t10 -4t0 -9q-39 -55 -100.5 -88.5
t-126.5 -33.5q-87 0 -130 62q-35 51 -35 129q0 109 77 178q70 63 172 72q5 1 16 1q36 0 70 -15q42 -19 58 -54z" />
    <glyph glyph-name="afii10105" unicode="&#x458;" horiz-adv-x="326" 
d="M239 601q0 10 11 11q10 0 11 -11v-39q0 -10 -11 -11q-10 0 -11 11v39zM236 446q0 9 12 11q10 0 11 -11v-402v-69q0 -62 -35 -97q-31 -31 -76 -31q-40 0 -71.5 27.5t-31.5 72.5q0 10 11 11q10 0 11 -11q0 -33 24.5 -55.5t57.5 -22.5q35 0 61 26.5t26 79.5v69v402z" />
    <glyph glyph-name="afii10054" unicode="&#x405;" horiz-adv-x="642" 
d="M511 586q6 -8 -2 -16q-8 -6 -15 1q-26 27 -56.5 40t-61.5 13l-29 -2l-30 -4q-99 -18 -159 -75q-52 -52 -52 -110q0 -39 27 -66q28 -25 78 -25q28 0 52 6t54 18q65 27 121 27q65 0 102.5 -39.5t37.5 -98.5q0 -63 -38 -120q-42 -65 -119 -106q-36 -20 -76 -30
q-18 -5 -37.5 -8t-39.5 -3q-77 0 -132.5 39t-55.5 99q0 10 11 11q10 0 11 -11q0 -46 48.5 -81t120.5 -35q39 0 69 8t70 30q71 42 111 102q36 54 36 109q0 48 -32 80q-16 15 -37.5 23t-51.5 8q-52 0 -114.5 -25.5t-113.5 -25.5q-58 0 -90 32t-32 82q0 36 13 66t43 61
q62 65 171 80l25 3l35 3q37 0 71 -14q34 -12 67 -46z" />
    <glyph glyph-name="afii10102" unicode="&#x455;" horiz-adv-x="479" 
d="M356 454q9 0 9 -9q0 -11 -12 -13l-42 5l-41 1q-103 0 -164 -46q-51 -39 -51 -90q0 -24 14 -41q15 -15 43 -15q29 0 69 22q76 41 135 41q51 0 78.5 -30t27.5 -74q0 -42 -22.5 -81t-66 -68.5t-87 -45.5t-80.5 -16q-41 0 -70 17.5t-45 55.5q-5 16 11 16q6 0 9 -6
q12 -30 36.5 -45.5t59.5 -15.5q32 0 72 15t79 42q38 31 62 69q22 38 22 70q0 31 -21.5 51t-61.5 20q-19 0 -28.5 -1t-35.5 -8t-67 -28q-43 -20 -80 -20q-35 0 -55 20q-19 22 -19 52q0 60 57 108q68 57 176 57q39 0 89 -9z" />
    <glyph glyph-name="afii10104" unicode="&#x457;" horiz-adv-x="183" 
d="M86 443q0 11 11 11t11 -11v-443q0 -11 -11 -11t-11 11v443zM287 656q5 5 11.5 2t6.5 -9q0 -5 -4 -8l-141 -141q-3 -4 -8 -4q-10 0 -10 10q0 5 3 8zM134 656q6 6 12 2.5t6 -10.5q0 -4 -3 -7l-141 -141q-3 -4 -8 -4q-10 0 -10 10q0 5 3 8z" />
    <glyph glyph-name="afii10017" unicode="&#x410;" horiz-adv-x="603" 
d="M185 334l3 9l129 308l20 -1l112 -307l3 -11l120 -328q5 -15 -11 -15q-7 0 -10 7l-119 327h-228l-137 -328q-2 -6 -8 -6q-17 0 -12 16zM213 345h211l-98 271z" />
    <glyph glyph-name="afii10018" unicode="&#x411;" horiz-adv-x="570" 
d="M105 355v-339q70 21 136 49q110 46 177 96q89 66 89 131q0 13 -3 25q-7 49 -43.5 69.5t-94.5 20.5q-59 0 -143 -20q-89 -25 -118 -32zM280 648q-52 -10 -119 -32q-22 -7 -56 -20v-216l214 48q23 3 45 3q63 0 102 -23q46 -27 60 -88q2 -16 2 -24q0 -88 -111 -167
q-77 -55 -208 -104q-97 -36 -112 -36l-14 11v648q0 10 8 10q7 0 14 -10v-28q16 7 45 17q66 23 130 37l162 27q12 0 12 -12q0 -10 -10 -10q-19 -4 -79 -15q-42 -8 -85 -16z" />
    <glyph glyph-name="afii10019" unicode="&#x412;" horiz-adv-x="570" 
d="M105 648v-28q40 17 97 34q81 24 135 24q42 0 69.5 -14t36.5 -47q2 -18 2 -27q0 -53 -33.5 -93t-92.5 -69q23 3 45 3q63 0 102 -23q46 -27 60 -88q2 -16 2 -24q0 -88 -111 -167q-77 -55 -208 -104q-97 -36 -112 -36l-14 11v648q0 10 8 10q7 0 14 -10zM105 596v-216
q139 30 217 73q102 56 102 134q0 12 -3 26q0 23 -19 32.5t-52 9.5q-59 0 -157 -29q-33 -9 -88 -30zM105 355v-339q70 21 136 49q110 46 177 96q89 66 89 131q0 13 -3 25q-7 49 -43.5 69.5t-94.5 20.5q-59 0 -143 -20q-89 -25 -118 -32z" />
    <glyph glyph-name="afii10020" unicode="&#x413;" horiz-adv-x="483" 
d="M105 14q0 -11 -11 -11t-11 11v580l-35 -4q-12 0 -12 12q0 10 10 10l37 4v27q0 10 11 10t11 -10v-25l346 33q11 0 11 -12q0 -10 -10 -10l-347 -33v-227v-355z" />
    <glyph glyph-name="afii10021" unicode="&#x414;" horiz-adv-x="603" 
d="M592 -153q-5 -6 -7 -6q-4 0 -7 6v19q5 68 5 79q0 37 -7 48l-543 -1q-7 0 -7 -27q0 -13 5 -68q2 -22 2 -35q0 -8 -1.5 -12.5t-13.5 -4.5q-6 0 -6 7q-3 30 -6 61q-6 62 -6 85v10t2 5l49 3q2 0 37 84q31 75 65 158q17 42 35 85l129 308l20 -1l112 -307q28 -87 43 -134
q46 -142 63 -188q18 -4 24 -4.5t10.5 0t6.5 -19.5t2 -52q0 -72 -6 -98zM532 21q-5 19 -32 100q-16 50 -50 148l-26 76l-98 271l-113 -271l-134 -326q178 0 230 1t223 1z" />
    <glyph glyph-name="afii10022" unicode="&#x415;" horiz-adv-x="523" 
d="M408 368l-306 -24v-329l376 40q12 0 12 -12q0 -10 -10 -10l-388 -41l-12 11v585l-32 -4q-12 0 -12 13q0 10 10 10l34 3v22q0 10 11 10t11 -10v-19l340 38q12 0 12 -12q0 -10 -10 -10l-342 -38v-224l304 24q12 0 12 -13q0 -10 -10 -10z" />
    <glyph glyph-name="afii10024" unicode="&#x416;" horiz-adv-x="832" 
d="M811 648q-55 -12 -111 -65t-92 -127l-16 -37q-12 -28 -17 -47.5t-5 -34.5q1 -18 1 -27q0 -140 35 -204t120 -84q6 -2 6 -10q0 -14 -12 -12q-90 21 -131 105.5t-41 240.5q-24 -32 -58 -123q-29 -79 -50 -149l-20 -74q0 -11 -11 -11t-11 11v580l-15 -37q-24 -66 -41 -109
q-48 -123 -98 -228q-40 -86 -100 -144q-64 -62 -129 -70q-13 0 -13 11t13 11q55 12 111 65t92 127l16 37q13 28 17.5 47.5t4.5 34.5q-1 18 -1 27q0 140 -35 204t-120 84q-6 2 -6 10q0 14 12 12q90 -21 130.5 -98.5t40.5 -219.5q49 113 68 161q7 18 13 36l40 93q2 3 3 4
q5 5 8 5q6 0 11 -8v-560l2 30q9 47 38 116q41 97 122 235q53 91 105 143q62 63 124 71q14 0 14 -11t-14 -11z" />
    <glyph glyph-name="afii10025" unicode="&#x417;" horiz-adv-x="570" 
d="M526 320q2 -16 2 -24q0 -88 -111 -167q-77 -55 -208 -104q-97 -36 -112 -36l-14 11l22 16q70 21 136 49q110 46 177 96q89 66 89 131q0 13 -3 25q-7 49 -43.5 69.5t-94.5 20.5q-59 0 -143 -20q-89 -25 -118 -32v25q139 30 217 73q102 56 102 134q0 12 -3 26
q0 23 -19 32.5t-52 9.5q-59 0 -157 -29q-33 -9 -88 -30h-22v52q0 10 8 10q7 0 14 -10v-28q40 17 97 34q81 24 135 24q42 0 69.5 -14t36.5 -47q2 -18 2 -27q0 -53 -33.5 -93t-92.5 -69q23 3 45 3q63 0 102 -23q46 -27 60 -88z" />
    <glyph glyph-name="afii10026" unicode="&#x418;" horiz-adv-x="527" 
d="M488 18q0 -11 -11 -11q-12 0 -12 11v560q-18 -47 -48 -97q-26 -44 -64 -94q-28 -37 -76 -94q-41 -48 -79 -111q-49 -86 -97 -171l-21 7v634q0 11 11 11t11 -11v-595q9 15 49 87q55 98 109 164q83 97 128 168q57 91 77 179l23 -3v-634z" />
    <glyph glyph-name="afii10027" unicode="&#x419;" horiz-adv-x="527" 
d="M488 18q0 -11 -11 -11q-12 0 -12 11v560q-18 -47 -48 -97q-26 -44 -64 -94q-28 -37 -76 -94q-41 -48 -79 -111q-49 -86 -97 -171l-21 7v634q0 11 11 11t11 -11v-595q9 15 49 87q55 98 109 164q83 97 128 168q57 91 77 179l23 -3v-634zM347 770q6 6 12 2.5t6 -10.5
q0 -4 -3 -7l-125 -124q-3 -4 -8 -4q-10 0 -10 10q0 5 3 8z" />
    <glyph glyph-name="afii10028" unicode="&#x41a;" horiz-adv-x="536" 
d="M403 648q4 3 11 1.5t7 -10.5q0 -4 -4 -7l-285 -261l366 -363q7 -7 0 -15.5t-15 -0.5l-374 371v17zM86 643q0 10 11 10t11 -10v-643q0 -11 -11 -11t-11 11v643z" />
    <glyph glyph-name="afii10029" unicode="&#x41b;" 
d="M461 14q5 -15 -11 -15q-7 0 -10 7q-14 40 -40.5 138.5t-55.5 219.5q-33 138 -46 209q-21 -103 -69 -212q-34 -77 -98 -190l-94 -164q-3 -6 -9 -6t-10 5.5t-1 11.5q52 91 105 183q67 119 104 212q50 126 61 235h22q6 -61 39 -206q28 -125 62 -252.5t51 -175.5z" />
    <glyph glyph-name="afii10030" unicode="&#x41c;" horiz-adv-x="709" 
d="M105 -3q0 -11 -11 -11t-11 11v640l21 4q10 -26 20 -51q24 -60 56 -130q40 -89 85 -175q19 -37 33.5 -79t27.5 -102q12 69 46 134q27 52 66 99q60 74 107 151q31 52 58 111l18 42l22 -4v-637q0 -11 -11 -11q-12 0 -12 11v583q-24 -54 -59 -112q-46 -76 -107 -149
q-49 -58 -77 -125q-36 -84 -36 -175l-22 -2q-12 82 -31.5 146t-42.5 108q-43 82 -84 174q-27 60 -56 131v-582z" />
    <glyph glyph-name="afii10031" unicode="&#x41d;" horiz-adv-x="504" 
d="M70 629v-266h369v266q0 11 11 11t11 -11v-629q0 -11 -11 -11t-11 11v341h-369v-344q0 -11 -11 -11t-11 11v632q0 11 11 11t11 -11z" />
    <glyph glyph-name="afii10032" unicode="&#x41e;" horiz-adv-x="560" 
d="M355 662q91 -21 131 -95t40 -215q0 -128 -90 -245.5t-188 -117.5q-15 0 -29 3q-90 23 -136 106q-41 73 -41 176q0 130 91.5 260t195.5 130q17 0 26 -2zM349 640q-12 3 -25 3q-86 0 -173 -125t-87 -244q0 -99 37 -165q42 -74 123 -95q12 -3 25 -3q83 0 169 112t86 229
q0 140 -35 204t-120 84z" />
    <glyph glyph-name="afii10033" unicode="&#x41f;" horiz-adv-x="504" 
d="M485 621h-24v-621q0 -11 -12 -11t-12 11v621h-367v-624q0 -11 -11 -11t-11 11v624h-29q-11 0 -11 11t11 11h466q12 0 12 -11t-12 -11z" />
    <glyph glyph-name="afii10034" unicode="&#x420;" horiz-adv-x="584" 
d="M144 637v-67q71 43 132 69q87 37 146 37q34 0 57.5 -10.5t37.5 -37.5q7 -17 7 -37q0 -89 -144 -175q-124 -74 -236 -89v-324q0 -11 -11 -11t-11 11v525l-27 -16q-4 -3 -11 -0.5t-7 10.5q0 5 5 8l40 26v81q0 11 11 11t11 -11zM144 541v-192q99 12 223 87q137 83 137 153
q0 16 -7 30q-12 37 -64 37q-63 0 -186 -60q-54 -26 -103 -55z" />
    <glyph glyph-name="afii10035" unicode="&#x421;" horiz-adv-x="524" 
d="M482 558q5 -15 -11 -15q-8 0 -9 7q-16 48 -59 72q-33 19 -72 19q-9 0 -13 -1q-111 -14 -186 -102q-84 -99 -84 -258q0 -113 37 -184q44 -85 132 -85q67 0 134 48t112 127q3 6 8 6t9.5 -5.5t0.5 -11.5q-46 -84 -117 -135t-147 -51q-101 0 -151 95q-40 76 -40 196
q0 170 91 279q86 103 207 103q1 1 6 1q44 0 82 -21q50 -28 70 -84z" />
    <glyph glyph-name="afii10036" unicode="&#x422;" 
d="M23 570l188 36q0 5 9 5q6 0 9 -3l228 45q13 0 13 -13q0 -9 -9 -9l-228 -44v-587q0 -11 -11 -11t-11 11v583l-184 -35q-13 0 -13 13q0 9 9 9z" />
    <glyph glyph-name="afii10037" unicode="&#x423;" horiz-adv-x="485" 
d="M466 648q-16 -40 -31 -79q-23 -57 -75 -182q-42 -101 -88 -204l-4 -9l-61 -129q-13 -24 -42 -39.5t-60 -15.5q-39 0 -64 25q-28 29 -28 85q0 13 13 13q12 0 12 -13q0 -44 19 -65t48 -21q24 0 46.5 12t34.5 31q24 45 60 127l-194 463q-3 7 1 12t11 5t10 -7l187 -443
q43 99 83 196q16 38 70 172l30 74q3 8 11 8q18 0 11 -16z" />
    <glyph glyph-name="afii10038" unicode="&#x424;" horiz-adv-x="410" 
d="M186 21l-37 -10q-7 -1 -7 -10q0 -15 12 -12l100 28q8 3 8 10q0 5 -4 9t-9 3l-41 -11zM208 28l-22 -7v606l-39 -10q-13 -3 -13 11q0 8 8 11l99 28q14 3 14 -13q0 -7 -8 -9l-39 -12v-605zM66 131q-33 22 -48.5 53t-15.5 67q0 98 90.5 195.5t180.5 97.5q40 0 69 -23
q25 -20 36.5 -49.5t11.5 -67.5q0 -103 -71 -199q-75 -102 -167 -102q-43 0 -86 28zM79 150q16 -11 35 -16.5t39 -5.5q83 0 158 82t75 172q0 35 -13.5 65t-43.5 55q-19 15 -40 22.5t-43 7.5q-82 0 -151 -88.5t-69 -181.5q0 -36 12.5 -64.5t40.5 -47.5z" />
    <glyph glyph-name="afii10039" unicode="&#x425;" horiz-adv-x="445" 
d="M212 347q-46 86 -90 171t-54 115q-2 7 2 11t10 4q8 0 9 -7q8 -27 49 -106q7 -14 87 -166q73 117 108 177q47 81 47 97q0 10 12 10q11 0 11 -10q0 -18 -23 -63q-12 -24 -61 -105q-36 -61 -80 -130q42 -77 72 -136q34 -66 59 -122t30 -82q0 -13 -13 -13q-9 0 -9 9
q-6 27 -28.5 78t-54.5 113q-17 33 -70 131q-77 -125 -83 -135q-44 -73 -65 -115q-26 -52 -26 -72q0 -12 -10 -12q-12 0 -12 12q3 24 30.5 79.5t67.5 124.5q26 45 85 142z" />
    <glyph glyph-name="afii10040" unicode="&#x426;" horiz-adv-x="547" 
d="M217 -167q-6 3 -8 6t-2 5q0 4 2 6.5t3 2.5q17 5 130 27q38 7 111 21q7 0 10 13q0 2 1 6v228q-32 -68 -95 -113.5t-120 -45.5q-99 0 -138 61q-28 44 -28 130l1 457q0 11 11 11t11 -11l-1 -457q0 -84 22 -119q32 -50 122 -50q67 0 138 71q77 77 77 163v394q0 11 12 11
q11 0 11 -11v-394v-344q-4 -17 -18 -23q-32 -4 -140 -24q-38 -7 -112 -21z" />
    <glyph glyph-name="afii10041" unicode="&#x427;" horiz-adv-x="547" 
d="M487 4q-1 -10 -12 -10t-11 10v394q-32 -68 -95 -113.5t-120 -45.5q-99 0 -138 61q-28 44 -28 130l1 207q0 11 11 11t11 -11l-1 -207q0 -84 22 -119q32 -50 122 -50q67 0 138 71q77 77 77 163v144q0 11 12 11q11 0 11 -11v-144v-491z" />
    <glyph glyph-name="afii10042" unicode="&#x428;" horiz-adv-x="699" 
d="M607 -16q0 30 2 76t2 63q-29 -60 -76.5 -99.5t-90.5 -39.5q-57 0 -95 47q-33 41 -40 95q-29 -62 -77 -102t-92 -40q-82 0 -114 62q-23 45 -23 134v457q0 17 14 17t14 -17l-1 -457q0 -82 17 -116q24 -48 93 -48q52 0 107 70q60 76 60 159v392q0 17 14 17t14 -17l-1 -457
q0 -63 17 -102q27 -62 93 -62q52 0 107 70q60 76 60 159v394q0 17 15 17q14 0 14 -17v-394v-261q0 -32 -15 -32q-18 0 -18 32z" />
    <glyph glyph-name="afii10043" unicode="&#x429;" horiz-adv-x="699" 
d="M640 -99q-6 -21 -19 -27q-24 -4 -112 -24q-31 -7 -91 -21q-12 7 -12 16q0 6 3 11q0 1 3 2q14 5 105 27l90 21q3 0 3.5 4.5t0.5 9.5v203q-29 -60 -76.5 -99.5t-90.5 -39.5q-57 0 -95 47q-33 41 -40 95q-29 -62 -77 -102t-92 -40q-82 0 -114 62q-23 45 -23 134v457
q0 17 14 17t14 -17l-1 -457q0 -82 17 -116q24 -48 93 -48q52 0 107 70q60 76 60 159v392q0 17 14 17t14 -17l-1 -457q0 -63 17 -102q27 -62 93 -62q52 0 107 70q60 76 60 159v394q0 17 15 17q14 0 14 -17v-394v-344z" />
    <glyph glyph-name="afii10044" unicode="&#x42a;" horiz-adv-x="610" 
d="M576 320q2 -16 2 -24q0 -88 -111 -167q-77 -55 -208 -104q-97 -36 -112 -36l-14 11v630q-27 0 -46.5 -3t-40.5 -17q-4 -16 -5 -36t-1 -49q0 -40 2 -72.5t4 -57.5q0 -11 -11 -11t-11 11q-3 27 -4 45q-4 54 -4 97q0 42 1.5 57.5t6.5 33.5q17 13 44.5 18.5t54.5 5.5
q30 0 32 -4v-28v-240q69 15 114.5 27t99.5 21q23 3 45 3q63 0 102 -23q46 -27 60 -88zM554 317q-7 49 -43.5 69.5t-94.5 20.5q-59 0 -143 -20q-89 -25 -118 -32v-339q70 21 136 49q110 46 177 96q89 66 89 131q0 13 -3 25z" />
    <glyph glyph-name="afii10045" unicode="&#x42b;" horiz-adv-x="652" 
d="M105 355v-339q70 21 136 49q110 46 177 96q89 66 89 131q0 13 -3 25q-7 49 -43.5 69.5t-94.5 20.5q-59 0 -143 -20q-89 -25 -118 -32zM319 428q23 3 45 3q63 0 102 -23q46 -27 60 -88q2 -16 2 -24q0 -88 -111 -167q-77 -55 -208 -104q-97 -36 -112 -36l-14 11v648
q0 10 8 10q7 0 14 -10v-28v-240q69 15 114.5 27t99.5 21zM576 640q0 11 11 11t11 -11v-640q0 -11 -11 -11t-11 11v640z" />
    <glyph glyph-name="afii10046" unicode="&#x42c;" horiz-adv-x="570" 
d="M105 355v-339q70 21 136 49q110 46 177 96q89 66 89 131q0 13 -3 25q-7 49 -43.5 69.5t-94.5 20.5q-59 0 -143 -20q-89 -25 -118 -32zM319 428q23 3 45 3q63 0 102 -23q46 -27 60 -88q2 -16 2 -24q0 -88 -111 -167q-77 -55 -208 -104q-97 -36 -112 -36l-14 11v648
q0 10 8 10q7 0 14 -10v-28v-240q69 15 114.5 27t99.5 21z" />
    <glyph glyph-name="afii10047" unicode="&#x42d;" horiz-adv-x="524" 
d="M458 386q0 113 -37 184q-44 85 -132 85q-67 0 -134 -48t-112 -127q-3 -6 -8 -6t-9.5 5.5t-0.5 11.5q46 84 117 135t147 51q101 0 151 -95q40 -76 40 -196q0 -170 -91 -279q-86 -103 -207 -103q-1 -1 -6 -1q-44 0 -82 21q-50 28 -70 84q-5 15 11 15q8 0 9 -7
q16 -48 59 -72q33 -19 72 -19q9 0 13 1q108 13 183 92q87 91 87 234q-17 -1 -33 -2q-157 -35 -243 -48q-7 4 -7 12t7 12z" />
    <glyph glyph-name="afii10048" unicode="&#x42e;" horiz-adv-x="750" 
d="M727 352q0 -130 -83 -249t-173 -119q-12 0 -26 3q-83 24 -126 108q-38 74 -38 179q-1 16 -1 25q0 10 1 16h-168v-315q0 -17 -16 -17t-16 17v640q0 16 16 16t16 -16v-283h169q25 120 102.5 216t160.5 96q16 0 24 -2q84 -22 121 -97t37 -218zM707 352q0 141 -32.5 206.5
t-110.5 86.5q-11 3 -22 3q-79 0 -160 -126t-81 -248q0 -100 34 -168q38 -75 113 -97q11 -3 23 -3q76 0 156 113.5t80 232.5z" />
    <glyph glyph-name="afii10049" unicode="&#x42f;" horiz-adv-x="550" 
d="M501 592q10 0 10 -14q0 -6 -3 -10.5t-8 -1.5q-6 2 -14.5 3t-23.5 1v-564q0 -11 -11 -11t-11 11v342l-383 -356q-5 -5 -11.5 -1t-6.5 10q0 4 3 7l375 349q-55 -11 -100 -18t-86 -7q-66 0 -99 20q-40 25 -40 81q40 78 146 123q94 40 202 40v44q0 11 11 11t11 -11v-44
q17 0 25.5 -1t13.5 -3zM440 381v188q-17 3 -35 3q-86 0 -178.5 -43.5t-114.5 -104.5q12 -38 44 -54t85 -16q36 0 84 7t115 20z" />
    <glyph glyph-name="afii10065" unicode="&#x430;" horiz-adv-x="448" 
d="M39 45q0 67 79 118q93 60 249 60v73q0 61 -20 94q-23 38 -71 38q-33 0 -73.5 -29t-87.5 -84q-3 -4 -8 -4q-11 0 -11 12q0 4 3 7q52 59 89 86q46 34 88 34q59 0 89 -48q25 -40 25 -106v-296q0 -11 -11 -11q-12 0 -12 11v85q-64 -48 -128 -73q-57 -22 -106 -22
q-40 0 -65 15t-29 40zM367 113v88q-150 0 -238 -56q-74 -47 -68 -98q-4 -13 16.5 -24t55.5 -11q50 0 104 21q64 25 130 80z" />
    <glyph glyph-name="afii10066" unicode="&#x431;" horiz-adv-x="411" 
d="M62 261v-245q133 58 209.5 142.5t76.5 175.5q0 8 -0.5 18t-3.5 27q-5 48 -58 48q-47 0 -102 -38q-63 -43 -122 -128zM110 595l30 20q16 10 32 16q35 12 72 12q9 0 17.5 1t17.5 2q8 0 19 -3q25 -7 28 -9q13 -6 18 -19q4 -6 4.5 -7.5t-4.5 -4.5q-3 -2 -14 0q-7 1 -17.5 7
t-14.5 7q-21 6 -37 6q-8 0 -21.5 -2t-21.5 -4q-44 -9 -80 -36q-16 -12 -30.5 -31.5t-27.5 -36.5q-4 -4 -11 -46t-7 -48v-121q56 73 116 112t108 39q66 0 81 -66q2 -10 3 -23t1 -24q0 -103 -82 -193q-58 -63 -152 -115q-71 -39 -83 -39l-14 10v253q-5 7 -1 14q1 1 1 20.5
v33.5v18v17v14v12v28t-1 20q0 12 5.5 53t9.5 47q14 14 36 41q7 9 20 25z" />
    <glyph glyph-name="afii10067" unicode="&#x432;" horiz-adv-x="450" 
d="M425 218q1 -5 1 -16q0 -57 -96 -111q-69 -39 -178 -71q-84 -25 -96 -25l-17 11v424q0 10 10 10t18 -10v-11q37 10 83 20q68 14 109 14q40 0 64 -9t32 -32q2 -12 2 -18q0 -32 -22 -57t-62 -44q62 0 96 -14q43 -18 56 -61zM326 407q0 13 -14.5 19.5t-39.5 6.5
q-34 0 -89 -11.5t-116 -29.5v-130q113 18 178 45q83 35 83 83q0 11 -2 17zM397 214q-6 30 -35.5 43t-76.5 13q-51 0 -118 -13q-75 -17 -100 -22v-210q158 38 245 83t87 90q0 11 -2 16z" />
    <glyph glyph-name="afii10068" unicode="&#x433;" horiz-adv-x="479" 
d="M466 156q-50 -71 -79 -97q-62 -56 -134 -56q-15 0 -23 1q-77 9 -123 41.5t-46 74.5q0 40 43 76q49 40 140 63q58 14 89.5 44.5t31.5 61.5q0 53 -68 53q-38 0 -89.5 -22.5t-116.5 -74.5q-4 -3 -10.5 -1t-6.5 11q0 4 5 7q64 56 120.5 80.5t104.5 24.5q46 0 72 -21t26 -54
q0 -37 -36 -71q-41 -39 -121 -61.5t-121 -53.5q-37 -28 -37 -58q0 -33 40.5 -59.5t104.5 -37.5q7 -1 12.5 -1h7.5q66 0 118 48q37 40 74 81q10 9 20 8q1 -4 2 -7z" />
    <glyph glyph-name="afii10069" unicode="&#x434;" horiz-adv-x="475" 
d="M90 26q18 -15 44 -15q67 0 154 86t105 168v57q-8 27 -29 41q-23 20 -54 20q-77 0 -166.5 -100.5t-89.5 -184.5q0 -49 36 -72zM393 200q-38 -80 -115.5 -144t-145.5 -64q-31 0 -55 15q-22 18 -31.5 41t-9.5 55q0 96 90.5 197.5t182.5 101.5q39 0 70 -22l14 -17
q-7 35 -12 55q-17 61 -45 94q-19 23 -68 75q-16 17 -45 47q-3 11 7 11q11 0 16 -11q29 -29 45 -46q50 -52 69.5 -78t32.5 -75.5t17.5 -70t5 -35.5t0.5 -23v-30z" />
    <glyph glyph-name="afii10070" unicode="&#x435;" horiz-adv-x="455" 
d="M65 248q-13 -44 -13 -83q0 -68 37 -115q10 -16 33.5 -25t51.5 -9q65 0 126 39q69 45 93 120q3 8 10 8q14 0 11 -15q-27 -82 -100 -130q-66 -44 -138 -44q-35 0 -61.5 10t-45.5 35.5t-29.5 60.5t-10.5 72q0 92 52.5 174.5t120.5 100.5q20 4 29 4.5t14 0.5q51 0 93.5 -26
t63.5 -72l-8 -16zM73 274l303 81q-20 35 -54.5 54.5t-77.5 19.5q-20 0 -36 -4q-38 -8 -75.5 -50.5t-59.5 -100.5z" />
    <glyph glyph-name="afii10072" unicode="&#x436;" horiz-adv-x="707" 
d="M689 442q-44 -7 -92 -42t-77 -81q-10 -13 -14 -20q-14 -21 -16 -31q-5 -18 -5 -34q0 -8 2 -19t2 -14q0 -88 29.5 -129.5t99.5 -53.5q8 -2 8 -9q0 -5 -4 -9t-11 -4q-151 27 -151 216q-27 -29 -57 -88q-51 -119 -54 -125q-1 -10 -14 -10q-14 0 -14 12l18 381l-5 -6
q-23 -51 -38 -83q-47 -98 -86 -161q-35 -57 -88 -96.5t-109 -44.5q-19 0 -19 11t18 11q46 8 93 42.5t77 81.5l14 22q10 18 14.5 32.5t4.5 22.5q-1 10 -1 15q0 93 -31 144.5t-99 63.5q-7 1 -7 10q0 14 14 12q75 -13 112 -72t37 -148q31 41 52 95q6 17 14 45l38 61q3 2 4 2
q6 3 9 3q6 0 12 -7l-15 -367q22 59 54 121t84 131q45 60 90 94q55 42 107 47q18 0 18 -11t-18 -11z" />
    <glyph glyph-name="afii10073" unicode="&#x437;" horiz-adv-x="485" 
d="M460 169q0 -76 -85 -130q-81 -51 -186 -51q-99 0 -135 44q-23 28 -23 82q0 11 9 11q8 2 14 2q5 -8 5 -13q0 -50 16 -69q28 -33 114 -33q94 0 165 44q76 47 76 113q0 44 -23 69t-62 33l-97 -28q-30 -6 -48 -8.5t-55 -6.5q-16 2 -16 11q0 5 4 10l4 4q54 6 93 13
q71 13 113 35q30 16 51 42.5t21 49.5q0 12 -6 21q-7 14 -25 21t-43 7q-42 0 -106 -17q-35 -9 -98 -31l-42 -15q-9 -3 -15 2t-6 12q0 6 7 9l33 13q50 18 103 30q68 16 118 16q36 0 61.5 -8.5t38.5 -28.5q7 -13 7 -30q0 -29 -17.5 -59t-44.5 -47q37 -14 58.5 -43t21.5 -76z
" />
    <glyph glyph-name="afii10074" unicode="&#x438;" horiz-adv-x="397" 
d="M324 -6v109q-30 -47 -84 -81t-101 -34q-41 0 -63 24q-26 28 -26 85v346q0 11 11 11t11 -11v-346q0 -42 17.5 -61t47.5 -19q56 0 121.5 53.5t65.5 100.5v272q0 11 11 11t11 -11v-449q0 -11 -11 -11t-11 11z" />
    <glyph glyph-name="afii10075" unicode="&#x439;" horiz-adv-x="397" 
d="M324 -6v109q-30 -47 -84 -81t-101 -34q-41 0 -63 24q-26 28 -26 85v346q0 11 11 11t11 -11v-346q0 -42 17.5 -61t47.5 -19q56 0 121.5 53.5t65.5 100.5v272q0 11 11 11t11 -11v-449q0 -11 -11 -11t-11 11zM267 650q6 6 12 2.5t6 -10.5q0 -4 -3 -7l-125 -124q-3 -4 -8 -4
q-10 0 -10 10q0 5 3 8z" />
    <glyph glyph-name="afii10076" unicode="&#x43a;" horiz-adv-x="456" 
d="M426 9q5 -4 5 -9q0 -12 -14 -12q-4 0 -9 3l-320 243v16l252 175q7 5 15 1t8 -10q0 -4 -6 -9l-237 -166zM97 0q0 -11 -14 -11q-15 0 -15 11v418q0 10 15 10q14 0 14 -10v-418z" />
    <glyph glyph-name="afii10077" unicode="&#x43b;" horiz-adv-x="412" 
d="M397 11q2 -6 -3 -11t-13 -5q-9 0 -12 7q-15 32 -54 149q-43 127 -62 202q-19 -61 -61 -131q-29 -48 -81 -118q-38 -51 -76 -101q-3 -6 -11 -6q-7 0 -12.5 5.5t-1.5 12.5l90 118q56 75 88 138q43 82 52 155h27q9 -64 60 -221q47 -146 70 -194z" />
    <glyph glyph-name="afii10078" unicode="&#x43c;" horiz-adv-x="603" 
d="M552 0q0 -11 -15 -11t-15 11v362q-22 -36 -50 -70q-37 -45 -83 -87q-40 -36 -64 -80q-30 -54 -30 -116l-28 -1q-22 112 -63 167q-31 46 -64 101q-24 40 -46 81v-359q0 -12 -14 -12t-14 12v420l25 5q12 -25 21 -42q53 -99 117 -193q28 -40 48 -101q10 31 27 59
q23 38 65 77q71 66 120 139q16 24 36 61l27 -5v-418z" />
    <glyph glyph-name="afii10079" unicode="&#x43d;" horiz-adv-x="428" 
d="M397 0q0 -11 -14 -11q-15 0 -15 11v217h-303v-219q0 -11 -14 -11q-15 0 -15 11v451q0 11 15 11q14 0 14 -11v-208h303v208q0 11 15 11q14 0 14 -11v-449z" />
    <glyph glyph-name="afii10080" unicode="&#x43e;" horiz-adv-x="460" 
d="M96 21q-33 22 -48.5 53t-15.5 67q0 98 90.5 195.5t180.5 97.5q40 0 69 -23q25 -20 36.5 -49.5t11.5 -67.5q0 -103 -71 -199q-75 -102 -167 -102q-43 0 -86 28zM109 40q16 -11 35 -16.5t39 -5.5q83 0 158 82t75 172q0 35 -13.5 65t-43.5 55q-19 15 -40 22.5t-43 7.5
q-82 0 -151 -88.5t-69 -181.5q0 -36 12.5 -64.5t40.5 -47.5z" />
    <glyph glyph-name="afii10081" unicode="&#x43f;" horiz-adv-x="389" 
d="M72 443v-180q46 69 105 121q65 58 108 58q25 0 39.5 -19t18.5 -63v-363q0 -11 -11 -11t-11 11v363q1 7 1 19q0 42 -31 42q-41 0 -110.5 -63.5t-109.5 -136.5l1 -224q0 -11 -11 -11t-11 11v226v4v216q0 11 11 11t11 -11z" />
    <glyph glyph-name="afii10082" unicode="&#x440;" horiz-adv-x="399" 
d="M63 449v-117q32 59 82 102q57 49 109 49q25 0 45.5 -11t38.5 -37q23 -39 23 -101q0 -113 -64 -219q-68 -113 -150 -113q-22 0 -43.5 8.5t-41.5 27.5l1 -254q0 -11 -11 -11t-11 11v665q0 11 11 11t11 -11zM63 275v-205q18 -25 39 -37t42 -12q70 0 135 108q62 104 62 207
q0 54 -22 88q-20 38 -59 38q-54 0 -117.5 -62t-76.5 -120z" />
    <glyph glyph-name="afii10083" unicode="&#x441;" horiz-adv-x="408" 
d="M368 377q4 -6 -0.5 -11.5t-10.5 -5.5t-9 6q-21 40 -45 58.5t-51 18.5q-66 0 -128 -94.5t-62 -179.5q0 -82 32 -122q28 -35 76 -35q51 0 105.5 36.5t80.5 86.5q3 6 10 6q5 0 9 -4.5t2 -10.5q-26 -53 -87.5 -94t-121.5 -41q-57 0 -90 39q-38 45 -38 139q0 90 65 189
q70 106 145 106q33 0 62 -20t56 -67z" />
    <glyph glyph-name="afii10084" unicode="&#x442;" horiz-adv-x="660" 
d="M584 363q1 6 1 12v9q0 36 -26 36q-38 0 -114 -70q-70 -64 -107 -121v-229q0 -11 -11 -11t-11 11v220l-1 13l1 130q1 6 1 12v9q0 36 -26 36q-39 0 -118 -73q-73 -67 -107 -123v-224q0 -11 -11 -11t-11 11v446q0 11 11 11t11 -11v-186q53 68 104 115q71 65 113 65
q23 0 37 -18t18 -59l-1 -99q53 68 104 114q68 62 110 62q23 0 37.5 -17.5t18.5 -59.5v-363q0 -11 -11 -11q-12 0 -12 11v363z" />
    <glyph glyph-name="afii10085" unicode="&#x443;" horiz-adv-x="485" 
d="M443 449q-15 -36 -29 -72q-44 -109 -68 -166q-43 -102 -80 -185l-3 -8q-9 -20 -32 -68q-18 -38 -24 -49q-11 -21 -37.5 -35.5t-55.5 -14.5q-35 0 -57 22q-26 27 -26 78q0 11 12 11q11 0 11 -11q0 -41 18 -61q15 -17 43 -17q22 0 42 11t31 28q20 35 55 115l-177 421
q-5 15 11 15q6 0 9 -6l170 -403q27 63 75 178q63 153 65 157q13 33 27 67q3 7 10 7q3 0 8 -3.5t2 -10.5z" />
    <glyph glyph-name="afii10086" unicode="&#x444;" horiz-adv-x="349" 
d="M291 431q31 -16 45.5 -44.5t14.5 -64.5q0 -97 -82 -200t-165 -103q-25 0 -51 15t-38.5 43t-12.5 66q0 100 71 199q75 104 160 104q29 0 58 -15zM210 477l-30 -8v-675q0 -4 -2 -7.5t-11 -3.5q-5 0 -7.5 2t-3.5 3v677l-30 -6q-16 -3 -16 9q0 8 10 9l84 19q15 2 15 -11
q0 -6 -9 -8zM278 414q-11 6 -29 6q-67 0 -145.5 -100.5t-78.5 -187.5q0 -29 9.5 -49t31.5 -33t43 -13q71 0 139 108q64 102 64 193q0 21 -4 36q-8 29 -30 40z" />
    <glyph glyph-name="afii10087" unicode="&#x445;" horiz-adv-x="431" 
d="M377 454q-4 -12 -29 -48q-30 -42 -113 -149q84 -97 113 -157q25 -52 25 -100q0 -11 -11 -11t-11 11q0 54 -39 118q-27 44 -90 119q-24 -32 -73 -97q-41 -55 -61 -85q-28 -42 -34 -59q-1 -7 -9 -7q-14 0 -11 15q11 30 64 104q39 55 109 146q-65 77 -83 102q-40 55 -53 98
q0 14 15 14q7 0 7 -8q11 -44 65 -112q13 -16 63 -75q66 85 73 94q61 80 61 93q0 8 8 8q14 0 14 -14z" />
    <glyph glyph-name="afii10088" unicode="&#x446;" horiz-adv-x="465" 
d="M417 159l-1 -223q-4 -13 -17 -17l-216 -30q-11 4 -11 9q0 3 3 5.5t4 2.5q13 4 111 18q32 4 95 14q4 0 7 10v141q-29 -43 -81 -71t-99 -28q-85 0 -119 41q-24 29 -24 86v322q0 10 12 10t12 -10l-1 -322q0 -54 18 -76q26 -32 102 -32q55 0 115 46q65 50 65 104v281
q0 9 13 9q12 0 12 -9v-281z" />
    <glyph glyph-name="afii10089" unicode="&#x447;" horiz-adv-x="465" 
d="M417 322l-1 -319q-1 -8 -13 -8q-11 0 -11 8v249q-29 -43 -80.5 -71.5t-99.5 -28.5q-85 0 -119 41q-24 29 -24 86v160q0 10 12 10t12 -10l-1 -160q0 -54 18 -76q25 -31 102 -31q56 0 115 45q65 49 65 105v118q0 9 13 9q12 0 12 -9v-118z" />
    <glyph glyph-name="afii10090" unicode="&#x448;" horiz-adv-x="660" 
d="M350 67q0 -29 8.5 -42.5t25.5 -13.5q40 0 114 72q66 63 102 123v254q0 11 11 11t11 -11v-476q0 -11 -11 -11t-11 11v186q-53 -68 -104 -115q-71 -65 -113 -65q-23 0 -37 18t-18 59l1 99q-53 -68 -104 -114q-68 -62 -110 -62q-23 0 -37.5 17.5t-18.5 59.5v393q0 11 12 11
q11 0 11 -11v-393q0 -54 34 -54q38 0 111 69q63 60 101 119v259q0 11 11 11t11 -11l-1 -250z" />
    <glyph glyph-name="afii10091" unicode="&#x449;" horiz-adv-x="660" 
d="M608 -54q-29 -3 -125 -20q-18 -3 -49 -9q-12 5 -12 12q0 5 2 7.5t4 3.5q52 8 92 14q80 12 80 17v199q-53 -68 -104 -115q-71 -65 -113 -65q-23 0 -37 18t-18 59l1 99q-53 -68 -104 -114q-68 -62 -110 -62q-23 0 -37.5 17.5t-18.5 59.5v393q0 11 12 11q11 0 11 -11v-393
q0 -51 33 -51q39 0 111 67q63 59 102 118v259q0 11 11 11t11 -11v-250l1 -13l-1 -130q0 -54 34 -54q40 0 114 71q66 63 102 122v254q0 11 11 11t11 -11v-476q0 -14 -2.5 -24.5t-11.5 -13.5z" />
    <glyph glyph-name="afii10092" unicode="&#x44a;" horiz-adv-x="519" 
d="M492 209q2 -10 2 -16q0 -57 -96 -110q-65 -36 -178 -68q-84 -24 -96 -24l-13 8v447q-23 0 -38 -1.5t-32 -10.5q-3 -9 -4 -34t-1 -30q0 -45 3 -91q0 -9 2 -22q0 -10 -11 -10q-12 0 -12 10q-2 14 -2 23q-5 58 -5 98q0 51 7 72q14 8 37.5 12t43.5 4q31 0 35 -4l1 -19v-194
q67 11 94 17q42 9 85 14q10 1 19.5 1.5t22.5 0.5q54 0 89 -16.5t47 -56.5zM469 206q-6 31 -35.5 44t-77.5 13t-120 -13q-51 -10 -101 -20v-217q154 36 245 84t91 93q0 11 -2 16z" />
    <glyph glyph-name="afii10093" unicode="&#x44b;" horiz-adv-x="572" 
d="M511 0q0 -10 -11 -10q-12 0 -12 10v456q0 10 12 10q11 0 11 -10v-456zM449 209q2 -10 2 -16q0 -57 -96 -110q-65 -36 -178 -68q-84 -24 -96 -24l-12 8v462q0 9 8 9t14 -8l1 -19v-194q69 12 95 17q43 9 84 14q10 1 19.5 1.5t22.5 0.5q54 0 89 -16.5t47 -56.5zM426 206
q-6 31 -35.5 44t-77.5 13q-49 0 -120 -13q-51 -10 -101 -20v-217q154 36 245 83.5t91 93.5q0 11 -2 16z" />
    <glyph glyph-name="afii10094" unicode="&#x44c;" horiz-adv-x="485" 
d="M449 209q2 -10 2 -16q0 -57 -96 -110q-65 -36 -178 -68q-84 -24 -96 -24l-12 8v462q0 9 8 9t14 -8l1 -19v-194q69 12 95 17q43 9 84 14q10 1 19.5 1.5t22.5 0.5q54 0 89 -16.5t47 -56.5zM426 206q-6 31 -35.5 44t-77.5 13q-49 0 -120 -13q-51 -10 -101 -20v-217
q154 36 245 83.5t91 93.5q0 11 -2 16z" />
    <glyph glyph-name="afii10095" unicode="&#x44d;" horiz-adv-x="445" 
d="M411 251q0 -109 -77 -178q-70 -63 -172 -72q-5 -1 -16 -1q-37 0 -70 15q-41 18 -58 54q-2 5 2 9t10 4q7 0 9 -6q15 -32 57 -47q29 -10 64 -10q88 8 150 60q69 58 77 150q-26 -4 -52 -7q-95 -18 -181 -28q-7 3 -7 10t7 10l233 39q0 71 -31 116q-37 54 -110 54
q-56 0 -112.5 -30.5t-94.5 -81.5q-3 -4 -10 -4q-6 0 -10 4t0 9q39 55 100.5 88.5t126.5 33.5q87 0 130 -62q35 -51 35 -129z" />
    <glyph glyph-name="afii10096" unicode="&#x44e;" horiz-adv-x="638" 
d="M621 229q0 -86 -71.5 -163.5t-148.5 -77.5q-16 0 -24 2q-71 16 -105.5 67.5t-34.5 120.5v24h-138v-202q0 -13 -16 -13t-16 13v416q0 13 16 13t16 -13v-182h139q22 78 86 139q68 65 138 65q8 0 22 -2q73 -14 105 -63t32 -144zM599 229q0 89 -28.5 132t-92.5 56
q-12 2 -18 2q-65 0 -133 -81.5t-68 -159.5q0 -65 29.5 -110.5t93.5 -59.5q12 -2 19 -2q64 0 131 73t67 150z" />
    <glyph glyph-name="afii10097" unicode="&#x44f;" horiz-adv-x="468" 
d="M426 431q10 0 10 -11q0 -6 -3.5 -9.5t-8.5 -0.5l-28 1v-407q0 -10 -12 -10t-12 10v218l-323 -229q-6 -5 -12 -2t-6 9q0 4 4 7l310 222q-30 -5 -73.5 -10t-72.5 -5q-57 0 -87 14q-36 17 -36 54q38 57 126 104t170 47v27q0 10 12 10t12 -10v-27q13 0 19.5 -0.5t10.5 -1.5z
M372 250v162q-9 1 -14 1q-66 0 -152 -46.5t-109 -90.5q11 -23 38.5 -33.5t68.5 -10.5q24 0 58.5 3t109.5 15z" />
    <glyph glyph-name="afii10059" unicode="&#x40a;" horiz-adv-x="851" 
d="M822 301q2 -16 2 -24q0 -88 -111 -167q-77 -55 -208 -104q-97 -36 -112 -36l-14 11v349l-309 -89v-244q0 -11 -11 -11t-11 11v632q0 11 11 11t11 -11v-366l309 90v276q0 11 11 11t11 -11v-268q69 15 114.5 27t99.5 21q23 3 45 3q63 0 102 -23q46 -27 60 -88zM800 298
q-7 49 -43.5 69.5t-94.5 20.5q-59 0 -143 -20q-89 -25 -118 -32v-339q70 21 136 49q110 46 177 96q89 66 89 131q0 13 -3 25z" />
    <glyph glyph-name="afii10107" unicode="&#x45a;" horiz-adv-x="710" 
d="M699 209q2 -10 2 -16q0 -57 -96 -110q-65 -36 -178 -68q-84 -24 -96 -24l-12 8v225l-254 -52v-174q0 -11 -14 -11q-15 0 -15 11v451q0 11 15 11q14 0 14 -11v-258l254 52v218q0 10 12 10q11 0 11 -10v-212q69 12 95 17q43 9 84 14q10 1 19.5 1.5t22.5 0.5q54 0 89 -16.5
t47 -56.5zM676 206q-6 31 -35.5 44t-77.5 13q-49 0 -120 -13q-51 -10 -101 -20v-217q154 36 245 83.5t91 93.5q0 11 -2 16z" />
    <glyph glyph-name="afii10058" unicode="&#x409;" horiz-adv-x="762" 
d="M310 355v-337q76 23 136 48q107 44 177 96q89 66 89 130q0 13 -3 25q-7 49 -43.5 69.5t-94.5 20.5q-59 0 -143 -20q-89 -25 -118 -32zM523 428q23 3 45 3q63 0 102 -23q46 -27 60 -88q2 -16 2 -23q0 -88 -112 -168q-81 -58 -209 -106q-96 -36 -113 -36l-11 13v648
q0 11 11 11t11 -11v-28v-240q69 15 114.5 27t99.5 21zM298 573q-21 -103 -69 -212q-34 -77 -98 -190l-94 -164q-3 -6 -9 -6t-10 5.5t-1 11.5q52 91 105 183q67 119 104 212q50 126 61 235h22z" />
    <glyph glyph-name="afii10106" unicode="&#x459;" horiz-adv-x="412" 
d="M620 209q2 -10 2 -16q0 -57 -96 -110q-65 -36 -178 -68q-84 -24 -96 -24l-12 8v462q0 10 12 10q10 0 10 -9l1 -19v-194q69 12 95 17q43 9 84 14q10 1 19.5 1.5t22.5 0.5q54 0 89 -16.5t47 -56.5zM263 426l-10 -73q-19 -61 -61 -131q-29 -48 -81 -118q-38 -51 -76 -101
q-3 -6 -11 -6q-7 0 -12.5 5.5t-1.5 12.5l90 118q56 75 88 138q43 82 52 155h23zM597 206q-6 31 -35.5 44t-77.5 13q-49 0 -120 -13q-51 -10 -101 -20v-217q154 36 245 83.5t91 93.5q0 11 -2 16z" />
    <glyph glyph-name="afii10193" unicode="&#x45f;" horiz-adv-x="397" 
d="M346 -6q0 -10 -11 -11q-10 0 -11 11v109q-30 -46 -84 -81q-27 -16 -51 -24v-100q0 -10 -11 -11q-10 0 -11 11v94l-28 -4q-40 0 -63 24q-26 28 -26 85v346q0 10 11 11q10 0 11 -11v-346q0 -43 18 -61.5t47 -18.5q56 0 121.5 53.5t65.5 100.5v272q0 10 11 11q10 0 11 -11
v-449z" />
    <glyph glyph-name="afii10100" unicode="&#x453;" horiz-adv-x="479" 
d="M466 156q-49 -70 -79 -97q-62 -56 -134 -56l-23 1q-78 9 -123.5 42t-45.5 74q0 39 45.5 77t137.5 62q57 14 89 44t32 62q0 53 -68 53q-40 0 -90.5 -22t-115.5 -75q-2 -2 -11 -1q-6 2 -6 11q3 5 5 7q61 53 120 79t105 26q45 0 71.5 -21t26.5 -54q0 -35 -37.5 -72
t-119.5 -61q-43 -11 -70.5 -23t-50.5 -30q-37 -28 -37 -58q0 -33 39.5 -59t105.5 -38l12 -1h8q65 0 118 48l74 81q8 8 20 8zM327 650q5 5 12 2q6 -3 6 -10l-3 -7l-125 -124l-8 -4q-9 0 -10 10l3 8z" />
    <glyph glyph-name="Euro" unicode="&#x20ac;" horiz-adv-x="249" 
 />
    <glyph glyph-name="glyph224" horiz-adv-x="249" 
 />
    <glyph glyph-name="periodcentered" unicode="&#x2219;" horiz-adv-x="166" 
d="M46 301q0 17 11.5 28.5t26.5 11.5q14 0 25 -13.5t11 -29.5q0 -15 -10.5 -26.5t-28.5 -13.5q-15 0 -25 13t-10 30z" />
  </font>
</defs>
</svg>
